G75*
%MOIN*%
%OFA0B0*%
%FSLAX25Y25*%
%IPPOS*%
%LPD*%
%AMOC8*
5,1,8,0,0,1.08239X$1,22.5*
%
%ADD10C,0.00000*%
%ADD11C,0.00394*%
%ADD12C,0.01000*%
%ADD13R,0.01024X0.02205*%
%ADD14R,0.03937X0.03937*%
%ADD15R,0.01181X0.01181*%
%ADD16R,0.02205X0.01024*%
%ADD17R,0.01417X0.08701*%
%ADD18R,0.07854X0.05984*%
%ADD19R,0.04646X0.07106*%
%ADD20R,0.04094X0.04882*%
%ADD21R,0.03150X0.06299*%
%ADD22R,0.01984X0.02772*%
%ADD23R,0.02520X0.02913*%
%ADD24R,0.03150X0.03543*%
%ADD25R,0.03543X0.03150*%
%ADD26R,0.02205X0.02205*%
%ADD27R,0.02772X0.01984*%
%ADD28R,0.04882X0.04094*%
%ADD29R,0.09685X0.08504*%
%ADD30R,0.04488X0.00945*%
%ADD31R,0.03780X0.06929*%
%ADD32R,0.06693X0.04724*%
%ADD33R,0.06299X0.13386*%
%ADD34R,0.04409X0.05984*%
%ADD35R,0.06378X0.04409*%
%ADD36R,0.05276X0.02520*%
%ADD37C,0.00945*%
%ADD38R,0.02835X0.04803*%
%ADD39R,0.04803X0.02835*%
%ADD40R,0.18898X0.18898*%
%ADD41R,0.06299X0.03150*%
%ADD42R,0.16929X0.03150*%
%ADD43R,0.13386X0.05906*%
%ADD44R,0.05400X0.02400*%
%ADD45R,0.02835X0.06378*%
%ADD46R,0.02394X0.04402*%
%ADD47R,0.13386X0.09449*%
%ADD48R,0.00800X0.02600*%
%ADD49R,0.05039X0.05839*%
%ADD50R,0.01600X0.05400*%
%ADD51R,0.05400X0.01600*%
%ADD52R,0.09291X0.03780*%
%ADD53R,0.03780X0.09291*%
%ADD54R,0.08898X0.03780*%
D10*
X0182105Y0257072D02*
X0182107Y0257165D01*
X0182113Y0257257D01*
X0182123Y0257349D01*
X0182137Y0257440D01*
X0182154Y0257531D01*
X0182176Y0257621D01*
X0182201Y0257710D01*
X0182230Y0257798D01*
X0182263Y0257884D01*
X0182300Y0257969D01*
X0182340Y0258053D01*
X0182384Y0258134D01*
X0182431Y0258214D01*
X0182481Y0258292D01*
X0182535Y0258367D01*
X0182592Y0258440D01*
X0182652Y0258510D01*
X0182715Y0258578D01*
X0182781Y0258643D01*
X0182849Y0258705D01*
X0182920Y0258765D01*
X0182994Y0258821D01*
X0183070Y0258874D01*
X0183148Y0258923D01*
X0183228Y0258970D01*
X0183310Y0259012D01*
X0183394Y0259052D01*
X0183479Y0259087D01*
X0183566Y0259119D01*
X0183654Y0259148D01*
X0183743Y0259172D01*
X0183833Y0259193D01*
X0183924Y0259209D01*
X0184016Y0259222D01*
X0184108Y0259231D01*
X0184201Y0259236D01*
X0184293Y0259237D01*
X0184386Y0259234D01*
X0184478Y0259227D01*
X0184570Y0259216D01*
X0184661Y0259201D01*
X0184752Y0259183D01*
X0184842Y0259160D01*
X0184930Y0259134D01*
X0185018Y0259104D01*
X0185104Y0259070D01*
X0185188Y0259033D01*
X0185271Y0258991D01*
X0185352Y0258947D01*
X0185432Y0258899D01*
X0185509Y0258848D01*
X0185583Y0258793D01*
X0185656Y0258735D01*
X0185726Y0258675D01*
X0185793Y0258611D01*
X0185857Y0258545D01*
X0185919Y0258475D01*
X0185977Y0258404D01*
X0186032Y0258330D01*
X0186084Y0258253D01*
X0186133Y0258174D01*
X0186179Y0258094D01*
X0186221Y0258011D01*
X0186259Y0257927D01*
X0186294Y0257841D01*
X0186325Y0257754D01*
X0186352Y0257666D01*
X0186375Y0257576D01*
X0186395Y0257486D01*
X0186411Y0257395D01*
X0186423Y0257303D01*
X0186431Y0257211D01*
X0186435Y0257118D01*
X0186435Y0257026D01*
X0186431Y0256933D01*
X0186423Y0256841D01*
X0186411Y0256749D01*
X0186395Y0256658D01*
X0186375Y0256568D01*
X0186352Y0256478D01*
X0186325Y0256390D01*
X0186294Y0256303D01*
X0186259Y0256217D01*
X0186221Y0256133D01*
X0186179Y0256050D01*
X0186133Y0255970D01*
X0186084Y0255891D01*
X0186032Y0255814D01*
X0185977Y0255740D01*
X0185919Y0255669D01*
X0185857Y0255599D01*
X0185793Y0255533D01*
X0185726Y0255469D01*
X0185656Y0255409D01*
X0185583Y0255351D01*
X0185509Y0255296D01*
X0185432Y0255245D01*
X0185353Y0255197D01*
X0185271Y0255153D01*
X0185188Y0255111D01*
X0185104Y0255074D01*
X0185018Y0255040D01*
X0184930Y0255010D01*
X0184842Y0254984D01*
X0184752Y0254961D01*
X0184661Y0254943D01*
X0184570Y0254928D01*
X0184478Y0254917D01*
X0184386Y0254910D01*
X0184293Y0254907D01*
X0184201Y0254908D01*
X0184108Y0254913D01*
X0184016Y0254922D01*
X0183924Y0254935D01*
X0183833Y0254951D01*
X0183743Y0254972D01*
X0183654Y0254996D01*
X0183566Y0255025D01*
X0183479Y0255057D01*
X0183394Y0255092D01*
X0183310Y0255132D01*
X0183228Y0255174D01*
X0183148Y0255221D01*
X0183070Y0255270D01*
X0182994Y0255323D01*
X0182920Y0255379D01*
X0182849Y0255439D01*
X0182781Y0255501D01*
X0182715Y0255566D01*
X0182652Y0255634D01*
X0182592Y0255704D01*
X0182535Y0255777D01*
X0182481Y0255852D01*
X0182431Y0255930D01*
X0182384Y0256010D01*
X0182340Y0256091D01*
X0182300Y0256175D01*
X0182263Y0256260D01*
X0182230Y0256346D01*
X0182201Y0256434D01*
X0182176Y0256523D01*
X0182154Y0256613D01*
X0182137Y0256704D01*
X0182123Y0256795D01*
X0182113Y0256887D01*
X0182107Y0256979D01*
X0182105Y0257072D01*
X0185727Y0262072D02*
X0185729Y0262190D01*
X0185735Y0262309D01*
X0185745Y0262427D01*
X0185759Y0262544D01*
X0185776Y0262661D01*
X0185798Y0262778D01*
X0185824Y0262893D01*
X0185853Y0263008D01*
X0185886Y0263122D01*
X0185923Y0263234D01*
X0185964Y0263345D01*
X0186008Y0263455D01*
X0186056Y0263563D01*
X0186108Y0263670D01*
X0186163Y0263775D01*
X0186222Y0263878D01*
X0186284Y0263978D01*
X0186349Y0264077D01*
X0186418Y0264174D01*
X0186489Y0264268D01*
X0186564Y0264359D01*
X0186642Y0264449D01*
X0186723Y0264535D01*
X0186807Y0264619D01*
X0186893Y0264700D01*
X0186983Y0264778D01*
X0187074Y0264853D01*
X0187168Y0264924D01*
X0187265Y0264993D01*
X0187364Y0265058D01*
X0187464Y0265120D01*
X0187567Y0265179D01*
X0187672Y0265234D01*
X0187779Y0265286D01*
X0187887Y0265334D01*
X0187997Y0265378D01*
X0188108Y0265419D01*
X0188220Y0265456D01*
X0188334Y0265489D01*
X0188449Y0265518D01*
X0188564Y0265544D01*
X0188681Y0265566D01*
X0188798Y0265583D01*
X0188915Y0265597D01*
X0189033Y0265607D01*
X0189152Y0265613D01*
X0189270Y0265615D01*
X0189388Y0265613D01*
X0189507Y0265607D01*
X0189625Y0265597D01*
X0189742Y0265583D01*
X0189859Y0265566D01*
X0189976Y0265544D01*
X0190091Y0265518D01*
X0190206Y0265489D01*
X0190320Y0265456D01*
X0190432Y0265419D01*
X0190543Y0265378D01*
X0190653Y0265334D01*
X0190761Y0265286D01*
X0190868Y0265234D01*
X0190973Y0265179D01*
X0191076Y0265120D01*
X0191176Y0265058D01*
X0191275Y0264993D01*
X0191372Y0264924D01*
X0191466Y0264853D01*
X0191557Y0264778D01*
X0191647Y0264700D01*
X0191733Y0264619D01*
X0191817Y0264535D01*
X0191898Y0264449D01*
X0191976Y0264359D01*
X0192051Y0264268D01*
X0192122Y0264174D01*
X0192191Y0264077D01*
X0192256Y0263978D01*
X0192318Y0263878D01*
X0192377Y0263775D01*
X0192432Y0263670D01*
X0192484Y0263563D01*
X0192532Y0263455D01*
X0192576Y0263345D01*
X0192617Y0263234D01*
X0192654Y0263122D01*
X0192687Y0263008D01*
X0192716Y0262893D01*
X0192742Y0262778D01*
X0192764Y0262661D01*
X0192781Y0262544D01*
X0192795Y0262427D01*
X0192805Y0262309D01*
X0192811Y0262190D01*
X0192813Y0262072D01*
X0192811Y0261954D01*
X0192805Y0261835D01*
X0192795Y0261717D01*
X0192781Y0261600D01*
X0192764Y0261483D01*
X0192742Y0261366D01*
X0192716Y0261251D01*
X0192687Y0261136D01*
X0192654Y0261022D01*
X0192617Y0260910D01*
X0192576Y0260799D01*
X0192532Y0260689D01*
X0192484Y0260581D01*
X0192432Y0260474D01*
X0192377Y0260369D01*
X0192318Y0260266D01*
X0192256Y0260166D01*
X0192191Y0260067D01*
X0192122Y0259970D01*
X0192051Y0259876D01*
X0191976Y0259785D01*
X0191898Y0259695D01*
X0191817Y0259609D01*
X0191733Y0259525D01*
X0191647Y0259444D01*
X0191557Y0259366D01*
X0191466Y0259291D01*
X0191372Y0259220D01*
X0191275Y0259151D01*
X0191176Y0259086D01*
X0191076Y0259024D01*
X0190973Y0258965D01*
X0190868Y0258910D01*
X0190761Y0258858D01*
X0190653Y0258810D01*
X0190543Y0258766D01*
X0190432Y0258725D01*
X0190320Y0258688D01*
X0190206Y0258655D01*
X0190091Y0258626D01*
X0189976Y0258600D01*
X0189859Y0258578D01*
X0189742Y0258561D01*
X0189625Y0258547D01*
X0189507Y0258537D01*
X0189388Y0258531D01*
X0189270Y0258529D01*
X0189152Y0258531D01*
X0189033Y0258537D01*
X0188915Y0258547D01*
X0188798Y0258561D01*
X0188681Y0258578D01*
X0188564Y0258600D01*
X0188449Y0258626D01*
X0188334Y0258655D01*
X0188220Y0258688D01*
X0188108Y0258725D01*
X0187997Y0258766D01*
X0187887Y0258810D01*
X0187779Y0258858D01*
X0187672Y0258910D01*
X0187567Y0258965D01*
X0187464Y0259024D01*
X0187364Y0259086D01*
X0187265Y0259151D01*
X0187168Y0259220D01*
X0187074Y0259291D01*
X0186983Y0259366D01*
X0186893Y0259444D01*
X0186807Y0259525D01*
X0186723Y0259609D01*
X0186642Y0259695D01*
X0186564Y0259785D01*
X0186489Y0259876D01*
X0186418Y0259970D01*
X0186349Y0260067D01*
X0186284Y0260166D01*
X0186222Y0260266D01*
X0186163Y0260369D01*
X0186108Y0260474D01*
X0186056Y0260581D01*
X0186008Y0260689D01*
X0185964Y0260799D01*
X0185923Y0260910D01*
X0185886Y0261022D01*
X0185853Y0261136D01*
X0185824Y0261251D01*
X0185798Y0261366D01*
X0185776Y0261483D01*
X0185759Y0261600D01*
X0185745Y0261717D01*
X0185735Y0261835D01*
X0185729Y0261954D01*
X0185727Y0262072D01*
X0182105Y0267072D02*
X0182107Y0267165D01*
X0182113Y0267257D01*
X0182123Y0267349D01*
X0182137Y0267440D01*
X0182154Y0267531D01*
X0182176Y0267621D01*
X0182201Y0267710D01*
X0182230Y0267798D01*
X0182263Y0267884D01*
X0182300Y0267969D01*
X0182340Y0268053D01*
X0182384Y0268134D01*
X0182431Y0268214D01*
X0182481Y0268292D01*
X0182535Y0268367D01*
X0182592Y0268440D01*
X0182652Y0268510D01*
X0182715Y0268578D01*
X0182781Y0268643D01*
X0182849Y0268705D01*
X0182920Y0268765D01*
X0182994Y0268821D01*
X0183070Y0268874D01*
X0183148Y0268923D01*
X0183228Y0268970D01*
X0183310Y0269012D01*
X0183394Y0269052D01*
X0183479Y0269087D01*
X0183566Y0269119D01*
X0183654Y0269148D01*
X0183743Y0269172D01*
X0183833Y0269193D01*
X0183924Y0269209D01*
X0184016Y0269222D01*
X0184108Y0269231D01*
X0184201Y0269236D01*
X0184293Y0269237D01*
X0184386Y0269234D01*
X0184478Y0269227D01*
X0184570Y0269216D01*
X0184661Y0269201D01*
X0184752Y0269183D01*
X0184842Y0269160D01*
X0184930Y0269134D01*
X0185018Y0269104D01*
X0185104Y0269070D01*
X0185188Y0269033D01*
X0185271Y0268991D01*
X0185352Y0268947D01*
X0185432Y0268899D01*
X0185509Y0268848D01*
X0185583Y0268793D01*
X0185656Y0268735D01*
X0185726Y0268675D01*
X0185793Y0268611D01*
X0185857Y0268545D01*
X0185919Y0268475D01*
X0185977Y0268404D01*
X0186032Y0268330D01*
X0186084Y0268253D01*
X0186133Y0268174D01*
X0186179Y0268094D01*
X0186221Y0268011D01*
X0186259Y0267927D01*
X0186294Y0267841D01*
X0186325Y0267754D01*
X0186352Y0267666D01*
X0186375Y0267576D01*
X0186395Y0267486D01*
X0186411Y0267395D01*
X0186423Y0267303D01*
X0186431Y0267211D01*
X0186435Y0267118D01*
X0186435Y0267026D01*
X0186431Y0266933D01*
X0186423Y0266841D01*
X0186411Y0266749D01*
X0186395Y0266658D01*
X0186375Y0266568D01*
X0186352Y0266478D01*
X0186325Y0266390D01*
X0186294Y0266303D01*
X0186259Y0266217D01*
X0186221Y0266133D01*
X0186179Y0266050D01*
X0186133Y0265970D01*
X0186084Y0265891D01*
X0186032Y0265814D01*
X0185977Y0265740D01*
X0185919Y0265669D01*
X0185857Y0265599D01*
X0185793Y0265533D01*
X0185726Y0265469D01*
X0185656Y0265409D01*
X0185583Y0265351D01*
X0185509Y0265296D01*
X0185432Y0265245D01*
X0185353Y0265197D01*
X0185271Y0265153D01*
X0185188Y0265111D01*
X0185104Y0265074D01*
X0185018Y0265040D01*
X0184930Y0265010D01*
X0184842Y0264984D01*
X0184752Y0264961D01*
X0184661Y0264943D01*
X0184570Y0264928D01*
X0184478Y0264917D01*
X0184386Y0264910D01*
X0184293Y0264907D01*
X0184201Y0264908D01*
X0184108Y0264913D01*
X0184016Y0264922D01*
X0183924Y0264935D01*
X0183833Y0264951D01*
X0183743Y0264972D01*
X0183654Y0264996D01*
X0183566Y0265025D01*
X0183479Y0265057D01*
X0183394Y0265092D01*
X0183310Y0265132D01*
X0183228Y0265174D01*
X0183148Y0265221D01*
X0183070Y0265270D01*
X0182994Y0265323D01*
X0182920Y0265379D01*
X0182849Y0265439D01*
X0182781Y0265501D01*
X0182715Y0265566D01*
X0182652Y0265634D01*
X0182592Y0265704D01*
X0182535Y0265777D01*
X0182481Y0265852D01*
X0182431Y0265930D01*
X0182384Y0266010D01*
X0182340Y0266091D01*
X0182300Y0266175D01*
X0182263Y0266260D01*
X0182230Y0266346D01*
X0182201Y0266434D01*
X0182176Y0266523D01*
X0182154Y0266613D01*
X0182137Y0266704D01*
X0182123Y0266795D01*
X0182113Y0266887D01*
X0182107Y0266979D01*
X0182105Y0267072D01*
X0192105Y0267072D02*
X0192107Y0267165D01*
X0192113Y0267257D01*
X0192123Y0267349D01*
X0192137Y0267440D01*
X0192154Y0267531D01*
X0192176Y0267621D01*
X0192201Y0267710D01*
X0192230Y0267798D01*
X0192263Y0267884D01*
X0192300Y0267969D01*
X0192340Y0268053D01*
X0192384Y0268134D01*
X0192431Y0268214D01*
X0192481Y0268292D01*
X0192535Y0268367D01*
X0192592Y0268440D01*
X0192652Y0268510D01*
X0192715Y0268578D01*
X0192781Y0268643D01*
X0192849Y0268705D01*
X0192920Y0268765D01*
X0192994Y0268821D01*
X0193070Y0268874D01*
X0193148Y0268923D01*
X0193228Y0268970D01*
X0193310Y0269012D01*
X0193394Y0269052D01*
X0193479Y0269087D01*
X0193566Y0269119D01*
X0193654Y0269148D01*
X0193743Y0269172D01*
X0193833Y0269193D01*
X0193924Y0269209D01*
X0194016Y0269222D01*
X0194108Y0269231D01*
X0194201Y0269236D01*
X0194293Y0269237D01*
X0194386Y0269234D01*
X0194478Y0269227D01*
X0194570Y0269216D01*
X0194661Y0269201D01*
X0194752Y0269183D01*
X0194842Y0269160D01*
X0194930Y0269134D01*
X0195018Y0269104D01*
X0195104Y0269070D01*
X0195188Y0269033D01*
X0195271Y0268991D01*
X0195352Y0268947D01*
X0195432Y0268899D01*
X0195509Y0268848D01*
X0195583Y0268793D01*
X0195656Y0268735D01*
X0195726Y0268675D01*
X0195793Y0268611D01*
X0195857Y0268545D01*
X0195919Y0268475D01*
X0195977Y0268404D01*
X0196032Y0268330D01*
X0196084Y0268253D01*
X0196133Y0268174D01*
X0196179Y0268094D01*
X0196221Y0268011D01*
X0196259Y0267927D01*
X0196294Y0267841D01*
X0196325Y0267754D01*
X0196352Y0267666D01*
X0196375Y0267576D01*
X0196395Y0267486D01*
X0196411Y0267395D01*
X0196423Y0267303D01*
X0196431Y0267211D01*
X0196435Y0267118D01*
X0196435Y0267026D01*
X0196431Y0266933D01*
X0196423Y0266841D01*
X0196411Y0266749D01*
X0196395Y0266658D01*
X0196375Y0266568D01*
X0196352Y0266478D01*
X0196325Y0266390D01*
X0196294Y0266303D01*
X0196259Y0266217D01*
X0196221Y0266133D01*
X0196179Y0266050D01*
X0196133Y0265970D01*
X0196084Y0265891D01*
X0196032Y0265814D01*
X0195977Y0265740D01*
X0195919Y0265669D01*
X0195857Y0265599D01*
X0195793Y0265533D01*
X0195726Y0265469D01*
X0195656Y0265409D01*
X0195583Y0265351D01*
X0195509Y0265296D01*
X0195432Y0265245D01*
X0195353Y0265197D01*
X0195271Y0265153D01*
X0195188Y0265111D01*
X0195104Y0265074D01*
X0195018Y0265040D01*
X0194930Y0265010D01*
X0194842Y0264984D01*
X0194752Y0264961D01*
X0194661Y0264943D01*
X0194570Y0264928D01*
X0194478Y0264917D01*
X0194386Y0264910D01*
X0194293Y0264907D01*
X0194201Y0264908D01*
X0194108Y0264913D01*
X0194016Y0264922D01*
X0193924Y0264935D01*
X0193833Y0264951D01*
X0193743Y0264972D01*
X0193654Y0264996D01*
X0193566Y0265025D01*
X0193479Y0265057D01*
X0193394Y0265092D01*
X0193310Y0265132D01*
X0193228Y0265174D01*
X0193148Y0265221D01*
X0193070Y0265270D01*
X0192994Y0265323D01*
X0192920Y0265379D01*
X0192849Y0265439D01*
X0192781Y0265501D01*
X0192715Y0265566D01*
X0192652Y0265634D01*
X0192592Y0265704D01*
X0192535Y0265777D01*
X0192481Y0265852D01*
X0192431Y0265930D01*
X0192384Y0266010D01*
X0192340Y0266091D01*
X0192300Y0266175D01*
X0192263Y0266260D01*
X0192230Y0266346D01*
X0192201Y0266434D01*
X0192176Y0266523D01*
X0192154Y0266613D01*
X0192137Y0266704D01*
X0192123Y0266795D01*
X0192113Y0266887D01*
X0192107Y0266979D01*
X0192105Y0267072D01*
X0192105Y0257072D02*
X0192107Y0257165D01*
X0192113Y0257257D01*
X0192123Y0257349D01*
X0192137Y0257440D01*
X0192154Y0257531D01*
X0192176Y0257621D01*
X0192201Y0257710D01*
X0192230Y0257798D01*
X0192263Y0257884D01*
X0192300Y0257969D01*
X0192340Y0258053D01*
X0192384Y0258134D01*
X0192431Y0258214D01*
X0192481Y0258292D01*
X0192535Y0258367D01*
X0192592Y0258440D01*
X0192652Y0258510D01*
X0192715Y0258578D01*
X0192781Y0258643D01*
X0192849Y0258705D01*
X0192920Y0258765D01*
X0192994Y0258821D01*
X0193070Y0258874D01*
X0193148Y0258923D01*
X0193228Y0258970D01*
X0193310Y0259012D01*
X0193394Y0259052D01*
X0193479Y0259087D01*
X0193566Y0259119D01*
X0193654Y0259148D01*
X0193743Y0259172D01*
X0193833Y0259193D01*
X0193924Y0259209D01*
X0194016Y0259222D01*
X0194108Y0259231D01*
X0194201Y0259236D01*
X0194293Y0259237D01*
X0194386Y0259234D01*
X0194478Y0259227D01*
X0194570Y0259216D01*
X0194661Y0259201D01*
X0194752Y0259183D01*
X0194842Y0259160D01*
X0194930Y0259134D01*
X0195018Y0259104D01*
X0195104Y0259070D01*
X0195188Y0259033D01*
X0195271Y0258991D01*
X0195352Y0258947D01*
X0195432Y0258899D01*
X0195509Y0258848D01*
X0195583Y0258793D01*
X0195656Y0258735D01*
X0195726Y0258675D01*
X0195793Y0258611D01*
X0195857Y0258545D01*
X0195919Y0258475D01*
X0195977Y0258404D01*
X0196032Y0258330D01*
X0196084Y0258253D01*
X0196133Y0258174D01*
X0196179Y0258094D01*
X0196221Y0258011D01*
X0196259Y0257927D01*
X0196294Y0257841D01*
X0196325Y0257754D01*
X0196352Y0257666D01*
X0196375Y0257576D01*
X0196395Y0257486D01*
X0196411Y0257395D01*
X0196423Y0257303D01*
X0196431Y0257211D01*
X0196435Y0257118D01*
X0196435Y0257026D01*
X0196431Y0256933D01*
X0196423Y0256841D01*
X0196411Y0256749D01*
X0196395Y0256658D01*
X0196375Y0256568D01*
X0196352Y0256478D01*
X0196325Y0256390D01*
X0196294Y0256303D01*
X0196259Y0256217D01*
X0196221Y0256133D01*
X0196179Y0256050D01*
X0196133Y0255970D01*
X0196084Y0255891D01*
X0196032Y0255814D01*
X0195977Y0255740D01*
X0195919Y0255669D01*
X0195857Y0255599D01*
X0195793Y0255533D01*
X0195726Y0255469D01*
X0195656Y0255409D01*
X0195583Y0255351D01*
X0195509Y0255296D01*
X0195432Y0255245D01*
X0195353Y0255197D01*
X0195271Y0255153D01*
X0195188Y0255111D01*
X0195104Y0255074D01*
X0195018Y0255040D01*
X0194930Y0255010D01*
X0194842Y0254984D01*
X0194752Y0254961D01*
X0194661Y0254943D01*
X0194570Y0254928D01*
X0194478Y0254917D01*
X0194386Y0254910D01*
X0194293Y0254907D01*
X0194201Y0254908D01*
X0194108Y0254913D01*
X0194016Y0254922D01*
X0193924Y0254935D01*
X0193833Y0254951D01*
X0193743Y0254972D01*
X0193654Y0254996D01*
X0193566Y0255025D01*
X0193479Y0255057D01*
X0193394Y0255092D01*
X0193310Y0255132D01*
X0193228Y0255174D01*
X0193148Y0255221D01*
X0193070Y0255270D01*
X0192994Y0255323D01*
X0192920Y0255379D01*
X0192849Y0255439D01*
X0192781Y0255501D01*
X0192715Y0255566D01*
X0192652Y0255634D01*
X0192592Y0255704D01*
X0192535Y0255777D01*
X0192481Y0255852D01*
X0192431Y0255930D01*
X0192384Y0256010D01*
X0192340Y0256091D01*
X0192300Y0256175D01*
X0192263Y0256260D01*
X0192230Y0256346D01*
X0192201Y0256434D01*
X0192176Y0256523D01*
X0192154Y0256613D01*
X0192137Y0256704D01*
X0192123Y0256795D01*
X0192113Y0256887D01*
X0192107Y0256979D01*
X0192105Y0257072D01*
X0202105Y0257072D02*
X0202107Y0257165D01*
X0202113Y0257257D01*
X0202123Y0257349D01*
X0202137Y0257440D01*
X0202154Y0257531D01*
X0202176Y0257621D01*
X0202201Y0257710D01*
X0202230Y0257798D01*
X0202263Y0257884D01*
X0202300Y0257969D01*
X0202340Y0258053D01*
X0202384Y0258134D01*
X0202431Y0258214D01*
X0202481Y0258292D01*
X0202535Y0258367D01*
X0202592Y0258440D01*
X0202652Y0258510D01*
X0202715Y0258578D01*
X0202781Y0258643D01*
X0202849Y0258705D01*
X0202920Y0258765D01*
X0202994Y0258821D01*
X0203070Y0258874D01*
X0203148Y0258923D01*
X0203228Y0258970D01*
X0203310Y0259012D01*
X0203394Y0259052D01*
X0203479Y0259087D01*
X0203566Y0259119D01*
X0203654Y0259148D01*
X0203743Y0259172D01*
X0203833Y0259193D01*
X0203924Y0259209D01*
X0204016Y0259222D01*
X0204108Y0259231D01*
X0204201Y0259236D01*
X0204293Y0259237D01*
X0204386Y0259234D01*
X0204478Y0259227D01*
X0204570Y0259216D01*
X0204661Y0259201D01*
X0204752Y0259183D01*
X0204842Y0259160D01*
X0204930Y0259134D01*
X0205018Y0259104D01*
X0205104Y0259070D01*
X0205188Y0259033D01*
X0205271Y0258991D01*
X0205352Y0258947D01*
X0205432Y0258899D01*
X0205509Y0258848D01*
X0205583Y0258793D01*
X0205656Y0258735D01*
X0205726Y0258675D01*
X0205793Y0258611D01*
X0205857Y0258545D01*
X0205919Y0258475D01*
X0205977Y0258404D01*
X0206032Y0258330D01*
X0206084Y0258253D01*
X0206133Y0258174D01*
X0206179Y0258094D01*
X0206221Y0258011D01*
X0206259Y0257927D01*
X0206294Y0257841D01*
X0206325Y0257754D01*
X0206352Y0257666D01*
X0206375Y0257576D01*
X0206395Y0257486D01*
X0206411Y0257395D01*
X0206423Y0257303D01*
X0206431Y0257211D01*
X0206435Y0257118D01*
X0206435Y0257026D01*
X0206431Y0256933D01*
X0206423Y0256841D01*
X0206411Y0256749D01*
X0206395Y0256658D01*
X0206375Y0256568D01*
X0206352Y0256478D01*
X0206325Y0256390D01*
X0206294Y0256303D01*
X0206259Y0256217D01*
X0206221Y0256133D01*
X0206179Y0256050D01*
X0206133Y0255970D01*
X0206084Y0255891D01*
X0206032Y0255814D01*
X0205977Y0255740D01*
X0205919Y0255669D01*
X0205857Y0255599D01*
X0205793Y0255533D01*
X0205726Y0255469D01*
X0205656Y0255409D01*
X0205583Y0255351D01*
X0205509Y0255296D01*
X0205432Y0255245D01*
X0205353Y0255197D01*
X0205271Y0255153D01*
X0205188Y0255111D01*
X0205104Y0255074D01*
X0205018Y0255040D01*
X0204930Y0255010D01*
X0204842Y0254984D01*
X0204752Y0254961D01*
X0204661Y0254943D01*
X0204570Y0254928D01*
X0204478Y0254917D01*
X0204386Y0254910D01*
X0204293Y0254907D01*
X0204201Y0254908D01*
X0204108Y0254913D01*
X0204016Y0254922D01*
X0203924Y0254935D01*
X0203833Y0254951D01*
X0203743Y0254972D01*
X0203654Y0254996D01*
X0203566Y0255025D01*
X0203479Y0255057D01*
X0203394Y0255092D01*
X0203310Y0255132D01*
X0203228Y0255174D01*
X0203148Y0255221D01*
X0203070Y0255270D01*
X0202994Y0255323D01*
X0202920Y0255379D01*
X0202849Y0255439D01*
X0202781Y0255501D01*
X0202715Y0255566D01*
X0202652Y0255634D01*
X0202592Y0255704D01*
X0202535Y0255777D01*
X0202481Y0255852D01*
X0202431Y0255930D01*
X0202384Y0256010D01*
X0202340Y0256091D01*
X0202300Y0256175D01*
X0202263Y0256260D01*
X0202230Y0256346D01*
X0202201Y0256434D01*
X0202176Y0256523D01*
X0202154Y0256613D01*
X0202137Y0256704D01*
X0202123Y0256795D01*
X0202113Y0256887D01*
X0202107Y0256979D01*
X0202105Y0257072D01*
X0202105Y0267072D02*
X0202107Y0267165D01*
X0202113Y0267257D01*
X0202123Y0267349D01*
X0202137Y0267440D01*
X0202154Y0267531D01*
X0202176Y0267621D01*
X0202201Y0267710D01*
X0202230Y0267798D01*
X0202263Y0267884D01*
X0202300Y0267969D01*
X0202340Y0268053D01*
X0202384Y0268134D01*
X0202431Y0268214D01*
X0202481Y0268292D01*
X0202535Y0268367D01*
X0202592Y0268440D01*
X0202652Y0268510D01*
X0202715Y0268578D01*
X0202781Y0268643D01*
X0202849Y0268705D01*
X0202920Y0268765D01*
X0202994Y0268821D01*
X0203070Y0268874D01*
X0203148Y0268923D01*
X0203228Y0268970D01*
X0203310Y0269012D01*
X0203394Y0269052D01*
X0203479Y0269087D01*
X0203566Y0269119D01*
X0203654Y0269148D01*
X0203743Y0269172D01*
X0203833Y0269193D01*
X0203924Y0269209D01*
X0204016Y0269222D01*
X0204108Y0269231D01*
X0204201Y0269236D01*
X0204293Y0269237D01*
X0204386Y0269234D01*
X0204478Y0269227D01*
X0204570Y0269216D01*
X0204661Y0269201D01*
X0204752Y0269183D01*
X0204842Y0269160D01*
X0204930Y0269134D01*
X0205018Y0269104D01*
X0205104Y0269070D01*
X0205188Y0269033D01*
X0205271Y0268991D01*
X0205352Y0268947D01*
X0205432Y0268899D01*
X0205509Y0268848D01*
X0205583Y0268793D01*
X0205656Y0268735D01*
X0205726Y0268675D01*
X0205793Y0268611D01*
X0205857Y0268545D01*
X0205919Y0268475D01*
X0205977Y0268404D01*
X0206032Y0268330D01*
X0206084Y0268253D01*
X0206133Y0268174D01*
X0206179Y0268094D01*
X0206221Y0268011D01*
X0206259Y0267927D01*
X0206294Y0267841D01*
X0206325Y0267754D01*
X0206352Y0267666D01*
X0206375Y0267576D01*
X0206395Y0267486D01*
X0206411Y0267395D01*
X0206423Y0267303D01*
X0206431Y0267211D01*
X0206435Y0267118D01*
X0206435Y0267026D01*
X0206431Y0266933D01*
X0206423Y0266841D01*
X0206411Y0266749D01*
X0206395Y0266658D01*
X0206375Y0266568D01*
X0206352Y0266478D01*
X0206325Y0266390D01*
X0206294Y0266303D01*
X0206259Y0266217D01*
X0206221Y0266133D01*
X0206179Y0266050D01*
X0206133Y0265970D01*
X0206084Y0265891D01*
X0206032Y0265814D01*
X0205977Y0265740D01*
X0205919Y0265669D01*
X0205857Y0265599D01*
X0205793Y0265533D01*
X0205726Y0265469D01*
X0205656Y0265409D01*
X0205583Y0265351D01*
X0205509Y0265296D01*
X0205432Y0265245D01*
X0205353Y0265197D01*
X0205271Y0265153D01*
X0205188Y0265111D01*
X0205104Y0265074D01*
X0205018Y0265040D01*
X0204930Y0265010D01*
X0204842Y0264984D01*
X0204752Y0264961D01*
X0204661Y0264943D01*
X0204570Y0264928D01*
X0204478Y0264917D01*
X0204386Y0264910D01*
X0204293Y0264907D01*
X0204201Y0264908D01*
X0204108Y0264913D01*
X0204016Y0264922D01*
X0203924Y0264935D01*
X0203833Y0264951D01*
X0203743Y0264972D01*
X0203654Y0264996D01*
X0203566Y0265025D01*
X0203479Y0265057D01*
X0203394Y0265092D01*
X0203310Y0265132D01*
X0203228Y0265174D01*
X0203148Y0265221D01*
X0203070Y0265270D01*
X0202994Y0265323D01*
X0202920Y0265379D01*
X0202849Y0265439D01*
X0202781Y0265501D01*
X0202715Y0265566D01*
X0202652Y0265634D01*
X0202592Y0265704D01*
X0202535Y0265777D01*
X0202481Y0265852D01*
X0202431Y0265930D01*
X0202384Y0266010D01*
X0202340Y0266091D01*
X0202300Y0266175D01*
X0202263Y0266260D01*
X0202230Y0266346D01*
X0202201Y0266434D01*
X0202176Y0266523D01*
X0202154Y0266613D01*
X0202137Y0266704D01*
X0202123Y0266795D01*
X0202113Y0266887D01*
X0202107Y0266979D01*
X0202105Y0267072D01*
X0212105Y0267072D02*
X0212107Y0267165D01*
X0212113Y0267257D01*
X0212123Y0267349D01*
X0212137Y0267440D01*
X0212154Y0267531D01*
X0212176Y0267621D01*
X0212201Y0267710D01*
X0212230Y0267798D01*
X0212263Y0267884D01*
X0212300Y0267969D01*
X0212340Y0268053D01*
X0212384Y0268134D01*
X0212431Y0268214D01*
X0212481Y0268292D01*
X0212535Y0268367D01*
X0212592Y0268440D01*
X0212652Y0268510D01*
X0212715Y0268578D01*
X0212781Y0268643D01*
X0212849Y0268705D01*
X0212920Y0268765D01*
X0212994Y0268821D01*
X0213070Y0268874D01*
X0213148Y0268923D01*
X0213228Y0268970D01*
X0213310Y0269012D01*
X0213394Y0269052D01*
X0213479Y0269087D01*
X0213566Y0269119D01*
X0213654Y0269148D01*
X0213743Y0269172D01*
X0213833Y0269193D01*
X0213924Y0269209D01*
X0214016Y0269222D01*
X0214108Y0269231D01*
X0214201Y0269236D01*
X0214293Y0269237D01*
X0214386Y0269234D01*
X0214478Y0269227D01*
X0214570Y0269216D01*
X0214661Y0269201D01*
X0214752Y0269183D01*
X0214842Y0269160D01*
X0214930Y0269134D01*
X0215018Y0269104D01*
X0215104Y0269070D01*
X0215188Y0269033D01*
X0215271Y0268991D01*
X0215352Y0268947D01*
X0215432Y0268899D01*
X0215509Y0268848D01*
X0215583Y0268793D01*
X0215656Y0268735D01*
X0215726Y0268675D01*
X0215793Y0268611D01*
X0215857Y0268545D01*
X0215919Y0268475D01*
X0215977Y0268404D01*
X0216032Y0268330D01*
X0216084Y0268253D01*
X0216133Y0268174D01*
X0216179Y0268094D01*
X0216221Y0268011D01*
X0216259Y0267927D01*
X0216294Y0267841D01*
X0216325Y0267754D01*
X0216352Y0267666D01*
X0216375Y0267576D01*
X0216395Y0267486D01*
X0216411Y0267395D01*
X0216423Y0267303D01*
X0216431Y0267211D01*
X0216435Y0267118D01*
X0216435Y0267026D01*
X0216431Y0266933D01*
X0216423Y0266841D01*
X0216411Y0266749D01*
X0216395Y0266658D01*
X0216375Y0266568D01*
X0216352Y0266478D01*
X0216325Y0266390D01*
X0216294Y0266303D01*
X0216259Y0266217D01*
X0216221Y0266133D01*
X0216179Y0266050D01*
X0216133Y0265970D01*
X0216084Y0265891D01*
X0216032Y0265814D01*
X0215977Y0265740D01*
X0215919Y0265669D01*
X0215857Y0265599D01*
X0215793Y0265533D01*
X0215726Y0265469D01*
X0215656Y0265409D01*
X0215583Y0265351D01*
X0215509Y0265296D01*
X0215432Y0265245D01*
X0215353Y0265197D01*
X0215271Y0265153D01*
X0215188Y0265111D01*
X0215104Y0265074D01*
X0215018Y0265040D01*
X0214930Y0265010D01*
X0214842Y0264984D01*
X0214752Y0264961D01*
X0214661Y0264943D01*
X0214570Y0264928D01*
X0214478Y0264917D01*
X0214386Y0264910D01*
X0214293Y0264907D01*
X0214201Y0264908D01*
X0214108Y0264913D01*
X0214016Y0264922D01*
X0213924Y0264935D01*
X0213833Y0264951D01*
X0213743Y0264972D01*
X0213654Y0264996D01*
X0213566Y0265025D01*
X0213479Y0265057D01*
X0213394Y0265092D01*
X0213310Y0265132D01*
X0213228Y0265174D01*
X0213148Y0265221D01*
X0213070Y0265270D01*
X0212994Y0265323D01*
X0212920Y0265379D01*
X0212849Y0265439D01*
X0212781Y0265501D01*
X0212715Y0265566D01*
X0212652Y0265634D01*
X0212592Y0265704D01*
X0212535Y0265777D01*
X0212481Y0265852D01*
X0212431Y0265930D01*
X0212384Y0266010D01*
X0212340Y0266091D01*
X0212300Y0266175D01*
X0212263Y0266260D01*
X0212230Y0266346D01*
X0212201Y0266434D01*
X0212176Y0266523D01*
X0212154Y0266613D01*
X0212137Y0266704D01*
X0212123Y0266795D01*
X0212113Y0266887D01*
X0212107Y0266979D01*
X0212105Y0267072D01*
X0212105Y0257072D02*
X0212107Y0257165D01*
X0212113Y0257257D01*
X0212123Y0257349D01*
X0212137Y0257440D01*
X0212154Y0257531D01*
X0212176Y0257621D01*
X0212201Y0257710D01*
X0212230Y0257798D01*
X0212263Y0257884D01*
X0212300Y0257969D01*
X0212340Y0258053D01*
X0212384Y0258134D01*
X0212431Y0258214D01*
X0212481Y0258292D01*
X0212535Y0258367D01*
X0212592Y0258440D01*
X0212652Y0258510D01*
X0212715Y0258578D01*
X0212781Y0258643D01*
X0212849Y0258705D01*
X0212920Y0258765D01*
X0212994Y0258821D01*
X0213070Y0258874D01*
X0213148Y0258923D01*
X0213228Y0258970D01*
X0213310Y0259012D01*
X0213394Y0259052D01*
X0213479Y0259087D01*
X0213566Y0259119D01*
X0213654Y0259148D01*
X0213743Y0259172D01*
X0213833Y0259193D01*
X0213924Y0259209D01*
X0214016Y0259222D01*
X0214108Y0259231D01*
X0214201Y0259236D01*
X0214293Y0259237D01*
X0214386Y0259234D01*
X0214478Y0259227D01*
X0214570Y0259216D01*
X0214661Y0259201D01*
X0214752Y0259183D01*
X0214842Y0259160D01*
X0214930Y0259134D01*
X0215018Y0259104D01*
X0215104Y0259070D01*
X0215188Y0259033D01*
X0215271Y0258991D01*
X0215352Y0258947D01*
X0215432Y0258899D01*
X0215509Y0258848D01*
X0215583Y0258793D01*
X0215656Y0258735D01*
X0215726Y0258675D01*
X0215793Y0258611D01*
X0215857Y0258545D01*
X0215919Y0258475D01*
X0215977Y0258404D01*
X0216032Y0258330D01*
X0216084Y0258253D01*
X0216133Y0258174D01*
X0216179Y0258094D01*
X0216221Y0258011D01*
X0216259Y0257927D01*
X0216294Y0257841D01*
X0216325Y0257754D01*
X0216352Y0257666D01*
X0216375Y0257576D01*
X0216395Y0257486D01*
X0216411Y0257395D01*
X0216423Y0257303D01*
X0216431Y0257211D01*
X0216435Y0257118D01*
X0216435Y0257026D01*
X0216431Y0256933D01*
X0216423Y0256841D01*
X0216411Y0256749D01*
X0216395Y0256658D01*
X0216375Y0256568D01*
X0216352Y0256478D01*
X0216325Y0256390D01*
X0216294Y0256303D01*
X0216259Y0256217D01*
X0216221Y0256133D01*
X0216179Y0256050D01*
X0216133Y0255970D01*
X0216084Y0255891D01*
X0216032Y0255814D01*
X0215977Y0255740D01*
X0215919Y0255669D01*
X0215857Y0255599D01*
X0215793Y0255533D01*
X0215726Y0255469D01*
X0215656Y0255409D01*
X0215583Y0255351D01*
X0215509Y0255296D01*
X0215432Y0255245D01*
X0215353Y0255197D01*
X0215271Y0255153D01*
X0215188Y0255111D01*
X0215104Y0255074D01*
X0215018Y0255040D01*
X0214930Y0255010D01*
X0214842Y0254984D01*
X0214752Y0254961D01*
X0214661Y0254943D01*
X0214570Y0254928D01*
X0214478Y0254917D01*
X0214386Y0254910D01*
X0214293Y0254907D01*
X0214201Y0254908D01*
X0214108Y0254913D01*
X0214016Y0254922D01*
X0213924Y0254935D01*
X0213833Y0254951D01*
X0213743Y0254972D01*
X0213654Y0254996D01*
X0213566Y0255025D01*
X0213479Y0255057D01*
X0213394Y0255092D01*
X0213310Y0255132D01*
X0213228Y0255174D01*
X0213148Y0255221D01*
X0213070Y0255270D01*
X0212994Y0255323D01*
X0212920Y0255379D01*
X0212849Y0255439D01*
X0212781Y0255501D01*
X0212715Y0255566D01*
X0212652Y0255634D01*
X0212592Y0255704D01*
X0212535Y0255777D01*
X0212481Y0255852D01*
X0212431Y0255930D01*
X0212384Y0256010D01*
X0212340Y0256091D01*
X0212300Y0256175D01*
X0212263Y0256260D01*
X0212230Y0256346D01*
X0212201Y0256434D01*
X0212176Y0256523D01*
X0212154Y0256613D01*
X0212137Y0256704D01*
X0212123Y0256795D01*
X0212113Y0256887D01*
X0212107Y0256979D01*
X0212105Y0257072D01*
X0222105Y0257072D02*
X0222107Y0257165D01*
X0222113Y0257257D01*
X0222123Y0257349D01*
X0222137Y0257440D01*
X0222154Y0257531D01*
X0222176Y0257621D01*
X0222201Y0257710D01*
X0222230Y0257798D01*
X0222263Y0257884D01*
X0222300Y0257969D01*
X0222340Y0258053D01*
X0222384Y0258134D01*
X0222431Y0258214D01*
X0222481Y0258292D01*
X0222535Y0258367D01*
X0222592Y0258440D01*
X0222652Y0258510D01*
X0222715Y0258578D01*
X0222781Y0258643D01*
X0222849Y0258705D01*
X0222920Y0258765D01*
X0222994Y0258821D01*
X0223070Y0258874D01*
X0223148Y0258923D01*
X0223228Y0258970D01*
X0223310Y0259012D01*
X0223394Y0259052D01*
X0223479Y0259087D01*
X0223566Y0259119D01*
X0223654Y0259148D01*
X0223743Y0259172D01*
X0223833Y0259193D01*
X0223924Y0259209D01*
X0224016Y0259222D01*
X0224108Y0259231D01*
X0224201Y0259236D01*
X0224293Y0259237D01*
X0224386Y0259234D01*
X0224478Y0259227D01*
X0224570Y0259216D01*
X0224661Y0259201D01*
X0224752Y0259183D01*
X0224842Y0259160D01*
X0224930Y0259134D01*
X0225018Y0259104D01*
X0225104Y0259070D01*
X0225188Y0259033D01*
X0225271Y0258991D01*
X0225352Y0258947D01*
X0225432Y0258899D01*
X0225509Y0258848D01*
X0225583Y0258793D01*
X0225656Y0258735D01*
X0225726Y0258675D01*
X0225793Y0258611D01*
X0225857Y0258545D01*
X0225919Y0258475D01*
X0225977Y0258404D01*
X0226032Y0258330D01*
X0226084Y0258253D01*
X0226133Y0258174D01*
X0226179Y0258094D01*
X0226221Y0258011D01*
X0226259Y0257927D01*
X0226294Y0257841D01*
X0226325Y0257754D01*
X0226352Y0257666D01*
X0226375Y0257576D01*
X0226395Y0257486D01*
X0226411Y0257395D01*
X0226423Y0257303D01*
X0226431Y0257211D01*
X0226435Y0257118D01*
X0226435Y0257026D01*
X0226431Y0256933D01*
X0226423Y0256841D01*
X0226411Y0256749D01*
X0226395Y0256658D01*
X0226375Y0256568D01*
X0226352Y0256478D01*
X0226325Y0256390D01*
X0226294Y0256303D01*
X0226259Y0256217D01*
X0226221Y0256133D01*
X0226179Y0256050D01*
X0226133Y0255970D01*
X0226084Y0255891D01*
X0226032Y0255814D01*
X0225977Y0255740D01*
X0225919Y0255669D01*
X0225857Y0255599D01*
X0225793Y0255533D01*
X0225726Y0255469D01*
X0225656Y0255409D01*
X0225583Y0255351D01*
X0225509Y0255296D01*
X0225432Y0255245D01*
X0225353Y0255197D01*
X0225271Y0255153D01*
X0225188Y0255111D01*
X0225104Y0255074D01*
X0225018Y0255040D01*
X0224930Y0255010D01*
X0224842Y0254984D01*
X0224752Y0254961D01*
X0224661Y0254943D01*
X0224570Y0254928D01*
X0224478Y0254917D01*
X0224386Y0254910D01*
X0224293Y0254907D01*
X0224201Y0254908D01*
X0224108Y0254913D01*
X0224016Y0254922D01*
X0223924Y0254935D01*
X0223833Y0254951D01*
X0223743Y0254972D01*
X0223654Y0254996D01*
X0223566Y0255025D01*
X0223479Y0255057D01*
X0223394Y0255092D01*
X0223310Y0255132D01*
X0223228Y0255174D01*
X0223148Y0255221D01*
X0223070Y0255270D01*
X0222994Y0255323D01*
X0222920Y0255379D01*
X0222849Y0255439D01*
X0222781Y0255501D01*
X0222715Y0255566D01*
X0222652Y0255634D01*
X0222592Y0255704D01*
X0222535Y0255777D01*
X0222481Y0255852D01*
X0222431Y0255930D01*
X0222384Y0256010D01*
X0222340Y0256091D01*
X0222300Y0256175D01*
X0222263Y0256260D01*
X0222230Y0256346D01*
X0222201Y0256434D01*
X0222176Y0256523D01*
X0222154Y0256613D01*
X0222137Y0256704D01*
X0222123Y0256795D01*
X0222113Y0256887D01*
X0222107Y0256979D01*
X0222105Y0257072D01*
X0225727Y0262072D02*
X0225729Y0262190D01*
X0225735Y0262309D01*
X0225745Y0262427D01*
X0225759Y0262544D01*
X0225776Y0262661D01*
X0225798Y0262778D01*
X0225824Y0262893D01*
X0225853Y0263008D01*
X0225886Y0263122D01*
X0225923Y0263234D01*
X0225964Y0263345D01*
X0226008Y0263455D01*
X0226056Y0263563D01*
X0226108Y0263670D01*
X0226163Y0263775D01*
X0226222Y0263878D01*
X0226284Y0263978D01*
X0226349Y0264077D01*
X0226418Y0264174D01*
X0226489Y0264268D01*
X0226564Y0264359D01*
X0226642Y0264449D01*
X0226723Y0264535D01*
X0226807Y0264619D01*
X0226893Y0264700D01*
X0226983Y0264778D01*
X0227074Y0264853D01*
X0227168Y0264924D01*
X0227265Y0264993D01*
X0227364Y0265058D01*
X0227464Y0265120D01*
X0227567Y0265179D01*
X0227672Y0265234D01*
X0227779Y0265286D01*
X0227887Y0265334D01*
X0227997Y0265378D01*
X0228108Y0265419D01*
X0228220Y0265456D01*
X0228334Y0265489D01*
X0228449Y0265518D01*
X0228564Y0265544D01*
X0228681Y0265566D01*
X0228798Y0265583D01*
X0228915Y0265597D01*
X0229033Y0265607D01*
X0229152Y0265613D01*
X0229270Y0265615D01*
X0229388Y0265613D01*
X0229507Y0265607D01*
X0229625Y0265597D01*
X0229742Y0265583D01*
X0229859Y0265566D01*
X0229976Y0265544D01*
X0230091Y0265518D01*
X0230206Y0265489D01*
X0230320Y0265456D01*
X0230432Y0265419D01*
X0230543Y0265378D01*
X0230653Y0265334D01*
X0230761Y0265286D01*
X0230868Y0265234D01*
X0230973Y0265179D01*
X0231076Y0265120D01*
X0231176Y0265058D01*
X0231275Y0264993D01*
X0231372Y0264924D01*
X0231466Y0264853D01*
X0231557Y0264778D01*
X0231647Y0264700D01*
X0231733Y0264619D01*
X0231817Y0264535D01*
X0231898Y0264449D01*
X0231976Y0264359D01*
X0232051Y0264268D01*
X0232122Y0264174D01*
X0232191Y0264077D01*
X0232256Y0263978D01*
X0232318Y0263878D01*
X0232377Y0263775D01*
X0232432Y0263670D01*
X0232484Y0263563D01*
X0232532Y0263455D01*
X0232576Y0263345D01*
X0232617Y0263234D01*
X0232654Y0263122D01*
X0232687Y0263008D01*
X0232716Y0262893D01*
X0232742Y0262778D01*
X0232764Y0262661D01*
X0232781Y0262544D01*
X0232795Y0262427D01*
X0232805Y0262309D01*
X0232811Y0262190D01*
X0232813Y0262072D01*
X0232811Y0261954D01*
X0232805Y0261835D01*
X0232795Y0261717D01*
X0232781Y0261600D01*
X0232764Y0261483D01*
X0232742Y0261366D01*
X0232716Y0261251D01*
X0232687Y0261136D01*
X0232654Y0261022D01*
X0232617Y0260910D01*
X0232576Y0260799D01*
X0232532Y0260689D01*
X0232484Y0260581D01*
X0232432Y0260474D01*
X0232377Y0260369D01*
X0232318Y0260266D01*
X0232256Y0260166D01*
X0232191Y0260067D01*
X0232122Y0259970D01*
X0232051Y0259876D01*
X0231976Y0259785D01*
X0231898Y0259695D01*
X0231817Y0259609D01*
X0231733Y0259525D01*
X0231647Y0259444D01*
X0231557Y0259366D01*
X0231466Y0259291D01*
X0231372Y0259220D01*
X0231275Y0259151D01*
X0231176Y0259086D01*
X0231076Y0259024D01*
X0230973Y0258965D01*
X0230868Y0258910D01*
X0230761Y0258858D01*
X0230653Y0258810D01*
X0230543Y0258766D01*
X0230432Y0258725D01*
X0230320Y0258688D01*
X0230206Y0258655D01*
X0230091Y0258626D01*
X0229976Y0258600D01*
X0229859Y0258578D01*
X0229742Y0258561D01*
X0229625Y0258547D01*
X0229507Y0258537D01*
X0229388Y0258531D01*
X0229270Y0258529D01*
X0229152Y0258531D01*
X0229033Y0258537D01*
X0228915Y0258547D01*
X0228798Y0258561D01*
X0228681Y0258578D01*
X0228564Y0258600D01*
X0228449Y0258626D01*
X0228334Y0258655D01*
X0228220Y0258688D01*
X0228108Y0258725D01*
X0227997Y0258766D01*
X0227887Y0258810D01*
X0227779Y0258858D01*
X0227672Y0258910D01*
X0227567Y0258965D01*
X0227464Y0259024D01*
X0227364Y0259086D01*
X0227265Y0259151D01*
X0227168Y0259220D01*
X0227074Y0259291D01*
X0226983Y0259366D01*
X0226893Y0259444D01*
X0226807Y0259525D01*
X0226723Y0259609D01*
X0226642Y0259695D01*
X0226564Y0259785D01*
X0226489Y0259876D01*
X0226418Y0259970D01*
X0226349Y0260067D01*
X0226284Y0260166D01*
X0226222Y0260266D01*
X0226163Y0260369D01*
X0226108Y0260474D01*
X0226056Y0260581D01*
X0226008Y0260689D01*
X0225964Y0260799D01*
X0225923Y0260910D01*
X0225886Y0261022D01*
X0225853Y0261136D01*
X0225824Y0261251D01*
X0225798Y0261366D01*
X0225776Y0261483D01*
X0225759Y0261600D01*
X0225745Y0261717D01*
X0225735Y0261835D01*
X0225729Y0261954D01*
X0225727Y0262072D01*
X0222105Y0267072D02*
X0222107Y0267165D01*
X0222113Y0267257D01*
X0222123Y0267349D01*
X0222137Y0267440D01*
X0222154Y0267531D01*
X0222176Y0267621D01*
X0222201Y0267710D01*
X0222230Y0267798D01*
X0222263Y0267884D01*
X0222300Y0267969D01*
X0222340Y0268053D01*
X0222384Y0268134D01*
X0222431Y0268214D01*
X0222481Y0268292D01*
X0222535Y0268367D01*
X0222592Y0268440D01*
X0222652Y0268510D01*
X0222715Y0268578D01*
X0222781Y0268643D01*
X0222849Y0268705D01*
X0222920Y0268765D01*
X0222994Y0268821D01*
X0223070Y0268874D01*
X0223148Y0268923D01*
X0223228Y0268970D01*
X0223310Y0269012D01*
X0223394Y0269052D01*
X0223479Y0269087D01*
X0223566Y0269119D01*
X0223654Y0269148D01*
X0223743Y0269172D01*
X0223833Y0269193D01*
X0223924Y0269209D01*
X0224016Y0269222D01*
X0224108Y0269231D01*
X0224201Y0269236D01*
X0224293Y0269237D01*
X0224386Y0269234D01*
X0224478Y0269227D01*
X0224570Y0269216D01*
X0224661Y0269201D01*
X0224752Y0269183D01*
X0224842Y0269160D01*
X0224930Y0269134D01*
X0225018Y0269104D01*
X0225104Y0269070D01*
X0225188Y0269033D01*
X0225271Y0268991D01*
X0225352Y0268947D01*
X0225432Y0268899D01*
X0225509Y0268848D01*
X0225583Y0268793D01*
X0225656Y0268735D01*
X0225726Y0268675D01*
X0225793Y0268611D01*
X0225857Y0268545D01*
X0225919Y0268475D01*
X0225977Y0268404D01*
X0226032Y0268330D01*
X0226084Y0268253D01*
X0226133Y0268174D01*
X0226179Y0268094D01*
X0226221Y0268011D01*
X0226259Y0267927D01*
X0226294Y0267841D01*
X0226325Y0267754D01*
X0226352Y0267666D01*
X0226375Y0267576D01*
X0226395Y0267486D01*
X0226411Y0267395D01*
X0226423Y0267303D01*
X0226431Y0267211D01*
X0226435Y0267118D01*
X0226435Y0267026D01*
X0226431Y0266933D01*
X0226423Y0266841D01*
X0226411Y0266749D01*
X0226395Y0266658D01*
X0226375Y0266568D01*
X0226352Y0266478D01*
X0226325Y0266390D01*
X0226294Y0266303D01*
X0226259Y0266217D01*
X0226221Y0266133D01*
X0226179Y0266050D01*
X0226133Y0265970D01*
X0226084Y0265891D01*
X0226032Y0265814D01*
X0225977Y0265740D01*
X0225919Y0265669D01*
X0225857Y0265599D01*
X0225793Y0265533D01*
X0225726Y0265469D01*
X0225656Y0265409D01*
X0225583Y0265351D01*
X0225509Y0265296D01*
X0225432Y0265245D01*
X0225353Y0265197D01*
X0225271Y0265153D01*
X0225188Y0265111D01*
X0225104Y0265074D01*
X0225018Y0265040D01*
X0224930Y0265010D01*
X0224842Y0264984D01*
X0224752Y0264961D01*
X0224661Y0264943D01*
X0224570Y0264928D01*
X0224478Y0264917D01*
X0224386Y0264910D01*
X0224293Y0264907D01*
X0224201Y0264908D01*
X0224108Y0264913D01*
X0224016Y0264922D01*
X0223924Y0264935D01*
X0223833Y0264951D01*
X0223743Y0264972D01*
X0223654Y0264996D01*
X0223566Y0265025D01*
X0223479Y0265057D01*
X0223394Y0265092D01*
X0223310Y0265132D01*
X0223228Y0265174D01*
X0223148Y0265221D01*
X0223070Y0265270D01*
X0222994Y0265323D01*
X0222920Y0265379D01*
X0222849Y0265439D01*
X0222781Y0265501D01*
X0222715Y0265566D01*
X0222652Y0265634D01*
X0222592Y0265704D01*
X0222535Y0265777D01*
X0222481Y0265852D01*
X0222431Y0265930D01*
X0222384Y0266010D01*
X0222340Y0266091D01*
X0222300Y0266175D01*
X0222263Y0266260D01*
X0222230Y0266346D01*
X0222201Y0266434D01*
X0222176Y0266523D01*
X0222154Y0266613D01*
X0222137Y0266704D01*
X0222123Y0266795D01*
X0222113Y0266887D01*
X0222107Y0266979D01*
X0222105Y0267072D01*
X0232105Y0267072D02*
X0232107Y0267165D01*
X0232113Y0267257D01*
X0232123Y0267349D01*
X0232137Y0267440D01*
X0232154Y0267531D01*
X0232176Y0267621D01*
X0232201Y0267710D01*
X0232230Y0267798D01*
X0232263Y0267884D01*
X0232300Y0267969D01*
X0232340Y0268053D01*
X0232384Y0268134D01*
X0232431Y0268214D01*
X0232481Y0268292D01*
X0232535Y0268367D01*
X0232592Y0268440D01*
X0232652Y0268510D01*
X0232715Y0268578D01*
X0232781Y0268643D01*
X0232849Y0268705D01*
X0232920Y0268765D01*
X0232994Y0268821D01*
X0233070Y0268874D01*
X0233148Y0268923D01*
X0233228Y0268970D01*
X0233310Y0269012D01*
X0233394Y0269052D01*
X0233479Y0269087D01*
X0233566Y0269119D01*
X0233654Y0269148D01*
X0233743Y0269172D01*
X0233833Y0269193D01*
X0233924Y0269209D01*
X0234016Y0269222D01*
X0234108Y0269231D01*
X0234201Y0269236D01*
X0234293Y0269237D01*
X0234386Y0269234D01*
X0234478Y0269227D01*
X0234570Y0269216D01*
X0234661Y0269201D01*
X0234752Y0269183D01*
X0234842Y0269160D01*
X0234930Y0269134D01*
X0235018Y0269104D01*
X0235104Y0269070D01*
X0235188Y0269033D01*
X0235271Y0268991D01*
X0235352Y0268947D01*
X0235432Y0268899D01*
X0235509Y0268848D01*
X0235583Y0268793D01*
X0235656Y0268735D01*
X0235726Y0268675D01*
X0235793Y0268611D01*
X0235857Y0268545D01*
X0235919Y0268475D01*
X0235977Y0268404D01*
X0236032Y0268330D01*
X0236084Y0268253D01*
X0236133Y0268174D01*
X0236179Y0268094D01*
X0236221Y0268011D01*
X0236259Y0267927D01*
X0236294Y0267841D01*
X0236325Y0267754D01*
X0236352Y0267666D01*
X0236375Y0267576D01*
X0236395Y0267486D01*
X0236411Y0267395D01*
X0236423Y0267303D01*
X0236431Y0267211D01*
X0236435Y0267118D01*
X0236435Y0267026D01*
X0236431Y0266933D01*
X0236423Y0266841D01*
X0236411Y0266749D01*
X0236395Y0266658D01*
X0236375Y0266568D01*
X0236352Y0266478D01*
X0236325Y0266390D01*
X0236294Y0266303D01*
X0236259Y0266217D01*
X0236221Y0266133D01*
X0236179Y0266050D01*
X0236133Y0265970D01*
X0236084Y0265891D01*
X0236032Y0265814D01*
X0235977Y0265740D01*
X0235919Y0265669D01*
X0235857Y0265599D01*
X0235793Y0265533D01*
X0235726Y0265469D01*
X0235656Y0265409D01*
X0235583Y0265351D01*
X0235509Y0265296D01*
X0235432Y0265245D01*
X0235353Y0265197D01*
X0235271Y0265153D01*
X0235188Y0265111D01*
X0235104Y0265074D01*
X0235018Y0265040D01*
X0234930Y0265010D01*
X0234842Y0264984D01*
X0234752Y0264961D01*
X0234661Y0264943D01*
X0234570Y0264928D01*
X0234478Y0264917D01*
X0234386Y0264910D01*
X0234293Y0264907D01*
X0234201Y0264908D01*
X0234108Y0264913D01*
X0234016Y0264922D01*
X0233924Y0264935D01*
X0233833Y0264951D01*
X0233743Y0264972D01*
X0233654Y0264996D01*
X0233566Y0265025D01*
X0233479Y0265057D01*
X0233394Y0265092D01*
X0233310Y0265132D01*
X0233228Y0265174D01*
X0233148Y0265221D01*
X0233070Y0265270D01*
X0232994Y0265323D01*
X0232920Y0265379D01*
X0232849Y0265439D01*
X0232781Y0265501D01*
X0232715Y0265566D01*
X0232652Y0265634D01*
X0232592Y0265704D01*
X0232535Y0265777D01*
X0232481Y0265852D01*
X0232431Y0265930D01*
X0232384Y0266010D01*
X0232340Y0266091D01*
X0232300Y0266175D01*
X0232263Y0266260D01*
X0232230Y0266346D01*
X0232201Y0266434D01*
X0232176Y0266523D01*
X0232154Y0266613D01*
X0232137Y0266704D01*
X0232123Y0266795D01*
X0232113Y0266887D01*
X0232107Y0266979D01*
X0232105Y0267072D01*
X0232105Y0257072D02*
X0232107Y0257165D01*
X0232113Y0257257D01*
X0232123Y0257349D01*
X0232137Y0257440D01*
X0232154Y0257531D01*
X0232176Y0257621D01*
X0232201Y0257710D01*
X0232230Y0257798D01*
X0232263Y0257884D01*
X0232300Y0257969D01*
X0232340Y0258053D01*
X0232384Y0258134D01*
X0232431Y0258214D01*
X0232481Y0258292D01*
X0232535Y0258367D01*
X0232592Y0258440D01*
X0232652Y0258510D01*
X0232715Y0258578D01*
X0232781Y0258643D01*
X0232849Y0258705D01*
X0232920Y0258765D01*
X0232994Y0258821D01*
X0233070Y0258874D01*
X0233148Y0258923D01*
X0233228Y0258970D01*
X0233310Y0259012D01*
X0233394Y0259052D01*
X0233479Y0259087D01*
X0233566Y0259119D01*
X0233654Y0259148D01*
X0233743Y0259172D01*
X0233833Y0259193D01*
X0233924Y0259209D01*
X0234016Y0259222D01*
X0234108Y0259231D01*
X0234201Y0259236D01*
X0234293Y0259237D01*
X0234386Y0259234D01*
X0234478Y0259227D01*
X0234570Y0259216D01*
X0234661Y0259201D01*
X0234752Y0259183D01*
X0234842Y0259160D01*
X0234930Y0259134D01*
X0235018Y0259104D01*
X0235104Y0259070D01*
X0235188Y0259033D01*
X0235271Y0258991D01*
X0235352Y0258947D01*
X0235432Y0258899D01*
X0235509Y0258848D01*
X0235583Y0258793D01*
X0235656Y0258735D01*
X0235726Y0258675D01*
X0235793Y0258611D01*
X0235857Y0258545D01*
X0235919Y0258475D01*
X0235977Y0258404D01*
X0236032Y0258330D01*
X0236084Y0258253D01*
X0236133Y0258174D01*
X0236179Y0258094D01*
X0236221Y0258011D01*
X0236259Y0257927D01*
X0236294Y0257841D01*
X0236325Y0257754D01*
X0236352Y0257666D01*
X0236375Y0257576D01*
X0236395Y0257486D01*
X0236411Y0257395D01*
X0236423Y0257303D01*
X0236431Y0257211D01*
X0236435Y0257118D01*
X0236435Y0257026D01*
X0236431Y0256933D01*
X0236423Y0256841D01*
X0236411Y0256749D01*
X0236395Y0256658D01*
X0236375Y0256568D01*
X0236352Y0256478D01*
X0236325Y0256390D01*
X0236294Y0256303D01*
X0236259Y0256217D01*
X0236221Y0256133D01*
X0236179Y0256050D01*
X0236133Y0255970D01*
X0236084Y0255891D01*
X0236032Y0255814D01*
X0235977Y0255740D01*
X0235919Y0255669D01*
X0235857Y0255599D01*
X0235793Y0255533D01*
X0235726Y0255469D01*
X0235656Y0255409D01*
X0235583Y0255351D01*
X0235509Y0255296D01*
X0235432Y0255245D01*
X0235353Y0255197D01*
X0235271Y0255153D01*
X0235188Y0255111D01*
X0235104Y0255074D01*
X0235018Y0255040D01*
X0234930Y0255010D01*
X0234842Y0254984D01*
X0234752Y0254961D01*
X0234661Y0254943D01*
X0234570Y0254928D01*
X0234478Y0254917D01*
X0234386Y0254910D01*
X0234293Y0254907D01*
X0234201Y0254908D01*
X0234108Y0254913D01*
X0234016Y0254922D01*
X0233924Y0254935D01*
X0233833Y0254951D01*
X0233743Y0254972D01*
X0233654Y0254996D01*
X0233566Y0255025D01*
X0233479Y0255057D01*
X0233394Y0255092D01*
X0233310Y0255132D01*
X0233228Y0255174D01*
X0233148Y0255221D01*
X0233070Y0255270D01*
X0232994Y0255323D01*
X0232920Y0255379D01*
X0232849Y0255439D01*
X0232781Y0255501D01*
X0232715Y0255566D01*
X0232652Y0255634D01*
X0232592Y0255704D01*
X0232535Y0255777D01*
X0232481Y0255852D01*
X0232431Y0255930D01*
X0232384Y0256010D01*
X0232340Y0256091D01*
X0232300Y0256175D01*
X0232263Y0256260D01*
X0232230Y0256346D01*
X0232201Y0256434D01*
X0232176Y0256523D01*
X0232154Y0256613D01*
X0232137Y0256704D01*
X0232123Y0256795D01*
X0232113Y0256887D01*
X0232107Y0256979D01*
X0232105Y0257072D01*
X0367538Y0315615D02*
X0367538Y0320339D01*
D11*
X0367538Y0247111D01*
X0384073Y0247111D01*
X0384073Y0320339D01*
X0367538Y0320339D01*
D12*
X0045260Y0083074D02*
X0037261Y0085407D01*
X0033595Y0087074D01*
X0027262Y0091073D01*
X0021929Y0095406D01*
X0017596Y0100072D01*
X0014263Y0105405D01*
X0012263Y0109071D01*
X0011264Y0112071D01*
X0010597Y0113738D01*
X0010597Y0116737D01*
X0011930Y0117737D01*
X0014263Y0117737D01*
X0014263Y0393710D01*
X0013930Y0394043D01*
X0013928Y0394093D01*
X0013923Y0394142D01*
X0013913Y0394191D01*
X0013900Y0394240D01*
X0013884Y0394287D01*
X0013864Y0394332D01*
X0013841Y0394377D01*
X0013814Y0394419D01*
X0013784Y0394459D01*
X0013752Y0394497D01*
X0013717Y0394532D01*
X0013679Y0394564D01*
X0013639Y0394594D01*
X0013597Y0394621D01*
X0013552Y0394644D01*
X0013507Y0394664D01*
X0013460Y0394680D01*
X0013411Y0394693D01*
X0013362Y0394703D01*
X0013313Y0394708D01*
X0013263Y0394710D01*
X0013263Y0394709D02*
X0011597Y0394709D01*
X0011597Y0394710D02*
X0011562Y0394712D01*
X0011528Y0394717D01*
X0011494Y0394726D01*
X0011462Y0394739D01*
X0011431Y0394755D01*
X0011401Y0394774D01*
X0011374Y0394796D01*
X0011350Y0394820D01*
X0011328Y0394847D01*
X0011309Y0394877D01*
X0011293Y0394908D01*
X0011280Y0394940D01*
X0011271Y0394974D01*
X0011266Y0395008D01*
X0011264Y0395043D01*
X0011264Y0397376D01*
X0011266Y0397411D01*
X0011271Y0397445D01*
X0011280Y0397479D01*
X0011293Y0397511D01*
X0011309Y0397543D01*
X0011328Y0397572D01*
X0011350Y0397599D01*
X0011374Y0397623D01*
X0011401Y0397645D01*
X0011431Y0397664D01*
X0011462Y0397680D01*
X0011494Y0397693D01*
X0011528Y0397702D01*
X0011562Y0397707D01*
X0011597Y0397709D01*
X0011597Y0398042D01*
X0011599Y0398077D01*
X0011604Y0398111D01*
X0011613Y0398145D01*
X0011626Y0398177D01*
X0011642Y0398209D01*
X0011661Y0398238D01*
X0011683Y0398265D01*
X0011707Y0398289D01*
X0011734Y0398311D01*
X0011764Y0398330D01*
X0011795Y0398346D01*
X0011827Y0398359D01*
X0011861Y0398368D01*
X0011895Y0398373D01*
X0011930Y0398375D01*
X0011930Y0398376D02*
X0013263Y0400376D01*
X0014263Y0401375D01*
X0016930Y0404042D01*
X0018596Y0405375D01*
X0019929Y0406375D01*
X0021263Y0407375D01*
X0022929Y0408375D01*
X0024596Y0409708D01*
X0026262Y0410708D01*
X0028262Y0412041D01*
X0029928Y0413041D01*
X0032261Y0414374D01*
X0034595Y0415707D01*
X0036594Y0416707D01*
X0038927Y0417707D01*
X0041594Y0419040D01*
X0047927Y0421040D01*
X0052593Y0422373D01*
X0058925Y0423707D01*
X0072591Y0423707D01*
X0075924Y0423040D01*
X0079257Y0422040D01*
X0083256Y0420707D01*
X0086923Y0419374D01*
X0090589Y0418040D01*
X0093589Y0417041D01*
X0097922Y0415374D01*
X0103254Y0413708D01*
X0107921Y0412041D01*
X0112587Y0410375D01*
X0120586Y0408375D01*
X0131585Y0408375D01*
X0136251Y0409375D01*
X0139251Y0410375D01*
X0142584Y0411374D01*
X0148916Y0414041D01*
X0151250Y0415374D01*
X0154249Y0417041D01*
X0157582Y0418707D01*
X0159915Y0420040D01*
X0161249Y0421040D01*
X0162582Y0422040D01*
X0348896Y0422040D01*
X0349563Y0424373D01*
X0349896Y0425706D01*
X0350563Y0428706D01*
X0351230Y0431706D01*
X0351563Y0433039D01*
X0351896Y0434372D01*
X0352229Y0435705D01*
X0408557Y0435705D01*
X0408890Y0434705D01*
X0408890Y0429039D01*
X0409557Y0428706D01*
X0413890Y0428706D01*
X0414557Y0429039D01*
X0414557Y0434705D01*
X0414890Y0435705D01*
X0423556Y0435705D01*
X0423889Y0434705D01*
X0423889Y0428039D01*
X0424556Y0427040D01*
X0428555Y0427040D01*
X0429222Y0427373D01*
X0429222Y0435039D01*
X0429888Y0435705D01*
X0438554Y0435705D01*
X0438887Y0435039D01*
X0438887Y0426373D01*
X0439554Y0425373D01*
X0443887Y0425373D01*
X0444554Y0426373D01*
X0444554Y0434705D01*
X0444887Y0435705D01*
X0503548Y0435705D01*
X0506547Y0434705D01*
X0510214Y0433706D01*
X0512880Y0432372D01*
X0515546Y0430706D01*
X0517880Y0428706D01*
X0519213Y0427040D01*
X0521213Y0424040D01*
X0522212Y0421373D01*
X0523212Y0418374D01*
X0523879Y0412708D01*
X0523879Y0355047D01*
X0523546Y0354380D01*
X0522879Y0353714D01*
X0521879Y0353047D01*
X0509880Y0353047D01*
X0509547Y0352380D01*
X0509547Y0196729D01*
X0510880Y0196063D01*
X0512880Y0195396D01*
X0515880Y0194063D01*
X0518546Y0192730D01*
X0520213Y0191730D01*
X0523212Y0189730D01*
X0523879Y0189063D01*
X0523879Y0171732D01*
X0524546Y0171398D01*
X0525545Y0170732D01*
X0526545Y0170065D01*
X0528212Y0168399D01*
X0530545Y0166066D01*
X0532545Y0163733D01*
X0534878Y0160733D01*
X0536544Y0158400D01*
X0538211Y0155733D01*
X0540544Y0151400D01*
X0542210Y0148401D01*
X0543877Y0145068D01*
X0545210Y0142068D01*
X0546877Y0138402D01*
X0547877Y0134735D01*
X0548876Y0130736D01*
X0549543Y0125403D01*
X0549876Y0122737D01*
X0549543Y0107738D01*
X0549543Y0106072D01*
X0548876Y0101739D01*
X0548210Y0098739D01*
X0547210Y0093740D01*
X0544877Y0088073D01*
X0542210Y0083074D01*
X0539877Y0078074D01*
X0536544Y0073075D01*
X0533211Y0068742D01*
X0529878Y0064742D01*
X0524879Y0060076D01*
X0519879Y0056077D01*
X0514213Y0052077D01*
X0508214Y0049077D01*
X0499548Y0045078D01*
X0493215Y0043411D01*
X0484883Y0041745D01*
X0465551Y0041745D01*
X0461552Y0042411D01*
X0457552Y0043411D01*
X0450886Y0045078D01*
X0447220Y0046744D01*
X0443887Y0048411D01*
X0437221Y0051744D01*
X0432888Y0054743D01*
X0430222Y0057410D01*
X0403891Y0057410D01*
X0402558Y0058410D01*
X0400891Y0060743D01*
X0400558Y0062409D01*
X0400558Y0065409D01*
X0324232Y0065409D01*
X0322566Y0066742D01*
X0321233Y0069409D01*
X0321233Y0076408D01*
X0158582Y0076408D01*
X0157249Y0077408D01*
X0155582Y0078741D01*
X0153583Y0080741D01*
X0151916Y0082074D01*
X0151250Y0082407D01*
X0148916Y0084074D01*
X0147250Y0085074D01*
X0144917Y0086074D01*
X0140917Y0087407D01*
X0137918Y0088407D01*
X0134251Y0089073D01*
X0110254Y0089073D01*
X0104921Y0087740D01*
X0097255Y0086074D01*
X0090589Y0084740D01*
X0079257Y0083074D01*
X0067258Y0081407D01*
X0063925Y0081074D01*
X0059259Y0081074D01*
X0052593Y0081741D01*
X0045260Y0083074D01*
X0487883Y0205728D02*
X0488882Y0204062D01*
X0490549Y0202395D01*
X0493549Y0200729D01*
X0495882Y0200062D01*
X0497215Y0199729D01*
X0498548Y0199729D01*
X0498548Y0352714D01*
X0489882Y0352714D01*
X0488882Y0352047D01*
X0488216Y0351047D01*
X0487883Y0349714D01*
X0487883Y0205728D01*
X0495006Y0386377D02*
X0495009Y0386595D01*
X0495017Y0386812D01*
X0495030Y0387030D01*
X0495049Y0387247D01*
X0495073Y0387463D01*
X0495102Y0387679D01*
X0495137Y0387894D01*
X0495177Y0388108D01*
X0495222Y0388322D01*
X0495272Y0388533D01*
X0495327Y0388744D01*
X0495388Y0388953D01*
X0495454Y0389161D01*
X0495525Y0389367D01*
X0495601Y0389571D01*
X0495682Y0389773D01*
X0495767Y0389974D01*
X0495858Y0390172D01*
X0495954Y0390367D01*
X0496054Y0390561D01*
X0496159Y0390751D01*
X0496269Y0390940D01*
X0496383Y0391125D01*
X0496502Y0391308D01*
X0496625Y0391487D01*
X0496753Y0391664D01*
X0496884Y0391837D01*
X0497021Y0392007D01*
X0497161Y0392174D01*
X0497305Y0392337D01*
X0497453Y0392497D01*
X0497605Y0392653D01*
X0497761Y0392805D01*
X0497921Y0392953D01*
X0498084Y0393097D01*
X0498251Y0393237D01*
X0498421Y0393374D01*
X0498594Y0393505D01*
X0498771Y0393633D01*
X0498950Y0393756D01*
X0499133Y0393875D01*
X0499318Y0393989D01*
X0499507Y0394099D01*
X0499697Y0394204D01*
X0499891Y0394304D01*
X0500086Y0394400D01*
X0500284Y0394491D01*
X0500485Y0394576D01*
X0500687Y0394657D01*
X0500891Y0394733D01*
X0501097Y0394804D01*
X0501305Y0394870D01*
X0501514Y0394931D01*
X0501725Y0394986D01*
X0501936Y0395036D01*
X0502150Y0395081D01*
X0502364Y0395121D01*
X0502579Y0395156D01*
X0502795Y0395185D01*
X0503011Y0395209D01*
X0503228Y0395228D01*
X0503446Y0395241D01*
X0503663Y0395249D01*
X0503881Y0395252D01*
X0504099Y0395249D01*
X0504316Y0395241D01*
X0504534Y0395228D01*
X0504751Y0395209D01*
X0504967Y0395185D01*
X0505183Y0395156D01*
X0505398Y0395121D01*
X0505612Y0395081D01*
X0505826Y0395036D01*
X0506037Y0394986D01*
X0506248Y0394931D01*
X0506457Y0394870D01*
X0506665Y0394804D01*
X0506871Y0394733D01*
X0507075Y0394657D01*
X0507277Y0394576D01*
X0507478Y0394491D01*
X0507676Y0394400D01*
X0507871Y0394304D01*
X0508065Y0394204D01*
X0508255Y0394099D01*
X0508444Y0393989D01*
X0508629Y0393875D01*
X0508812Y0393756D01*
X0508991Y0393633D01*
X0509168Y0393505D01*
X0509341Y0393374D01*
X0509511Y0393237D01*
X0509678Y0393097D01*
X0509841Y0392953D01*
X0510001Y0392805D01*
X0510157Y0392653D01*
X0510309Y0392497D01*
X0510457Y0392337D01*
X0510601Y0392174D01*
X0510741Y0392007D01*
X0510878Y0391837D01*
X0511009Y0391664D01*
X0511137Y0391487D01*
X0511260Y0391308D01*
X0511379Y0391125D01*
X0511493Y0390940D01*
X0511603Y0390751D01*
X0511708Y0390561D01*
X0511808Y0390367D01*
X0511904Y0390172D01*
X0511995Y0389974D01*
X0512080Y0389773D01*
X0512161Y0389571D01*
X0512237Y0389367D01*
X0512308Y0389161D01*
X0512374Y0388953D01*
X0512435Y0388744D01*
X0512490Y0388533D01*
X0512540Y0388322D01*
X0512585Y0388108D01*
X0512625Y0387894D01*
X0512660Y0387679D01*
X0512689Y0387463D01*
X0512713Y0387247D01*
X0512732Y0387030D01*
X0512745Y0386812D01*
X0512753Y0386595D01*
X0512756Y0386377D01*
X0512753Y0386159D01*
X0512745Y0385942D01*
X0512732Y0385724D01*
X0512713Y0385507D01*
X0512689Y0385291D01*
X0512660Y0385075D01*
X0512625Y0384860D01*
X0512585Y0384646D01*
X0512540Y0384432D01*
X0512490Y0384221D01*
X0512435Y0384010D01*
X0512374Y0383801D01*
X0512308Y0383593D01*
X0512237Y0383387D01*
X0512161Y0383183D01*
X0512080Y0382981D01*
X0511995Y0382780D01*
X0511904Y0382582D01*
X0511808Y0382387D01*
X0511708Y0382193D01*
X0511603Y0382003D01*
X0511493Y0381814D01*
X0511379Y0381629D01*
X0511260Y0381446D01*
X0511137Y0381267D01*
X0511009Y0381090D01*
X0510878Y0380917D01*
X0510741Y0380747D01*
X0510601Y0380580D01*
X0510457Y0380417D01*
X0510309Y0380257D01*
X0510157Y0380101D01*
X0510001Y0379949D01*
X0509841Y0379801D01*
X0509678Y0379657D01*
X0509511Y0379517D01*
X0509341Y0379380D01*
X0509168Y0379249D01*
X0508991Y0379121D01*
X0508812Y0378998D01*
X0508629Y0378879D01*
X0508444Y0378765D01*
X0508255Y0378655D01*
X0508065Y0378550D01*
X0507871Y0378450D01*
X0507676Y0378354D01*
X0507478Y0378263D01*
X0507277Y0378178D01*
X0507075Y0378097D01*
X0506871Y0378021D01*
X0506665Y0377950D01*
X0506457Y0377884D01*
X0506248Y0377823D01*
X0506037Y0377768D01*
X0505826Y0377718D01*
X0505612Y0377673D01*
X0505398Y0377633D01*
X0505183Y0377598D01*
X0504967Y0377569D01*
X0504751Y0377545D01*
X0504534Y0377526D01*
X0504316Y0377513D01*
X0504099Y0377505D01*
X0503881Y0377502D01*
X0503663Y0377505D01*
X0503446Y0377513D01*
X0503228Y0377526D01*
X0503011Y0377545D01*
X0502795Y0377569D01*
X0502579Y0377598D01*
X0502364Y0377633D01*
X0502150Y0377673D01*
X0501936Y0377718D01*
X0501725Y0377768D01*
X0501514Y0377823D01*
X0501305Y0377884D01*
X0501097Y0377950D01*
X0500891Y0378021D01*
X0500687Y0378097D01*
X0500485Y0378178D01*
X0500284Y0378263D01*
X0500086Y0378354D01*
X0499891Y0378450D01*
X0499697Y0378550D01*
X0499507Y0378655D01*
X0499318Y0378765D01*
X0499133Y0378879D01*
X0498950Y0378998D01*
X0498771Y0379121D01*
X0498594Y0379249D01*
X0498421Y0379380D01*
X0498251Y0379517D01*
X0498084Y0379657D01*
X0497921Y0379801D01*
X0497761Y0379949D01*
X0497605Y0380101D01*
X0497453Y0380257D01*
X0497305Y0380417D01*
X0497161Y0380580D01*
X0497021Y0380747D01*
X0496884Y0380917D01*
X0496753Y0381090D01*
X0496625Y0381267D01*
X0496502Y0381446D01*
X0496383Y0381629D01*
X0496269Y0381814D01*
X0496159Y0382003D01*
X0496054Y0382193D01*
X0495954Y0382387D01*
X0495858Y0382582D01*
X0495767Y0382780D01*
X0495682Y0382981D01*
X0495601Y0383183D01*
X0495525Y0383387D01*
X0495454Y0383593D01*
X0495388Y0383801D01*
X0495327Y0384010D01*
X0495272Y0384221D01*
X0495222Y0384432D01*
X0495177Y0384646D01*
X0495137Y0384860D01*
X0495102Y0385075D01*
X0495073Y0385291D01*
X0495049Y0385507D01*
X0495030Y0385724D01*
X0495017Y0385942D01*
X0495009Y0386159D01*
X0495006Y0386377D01*
D13*
X0212024Y0347505D03*
X0210055Y0347505D03*
X0208087Y0347505D03*
X0206118Y0347505D03*
X0204150Y0347505D03*
X0202181Y0347505D03*
X0200213Y0347505D03*
X0200213Y0329394D03*
X0202181Y0329394D03*
X0204150Y0329394D03*
X0206118Y0329394D03*
X0208087Y0329394D03*
X0210055Y0329394D03*
X0212024Y0329394D03*
D14*
X0206118Y0338450D03*
D15*
X0214386Y0346717D03*
D16*
X0215174Y0344355D03*
X0215174Y0342387D03*
X0215174Y0340418D03*
X0215174Y0338450D03*
X0215174Y0336481D03*
X0215174Y0334513D03*
X0215174Y0332544D03*
X0197063Y0332544D03*
X0197063Y0334513D03*
X0197063Y0336481D03*
X0197063Y0338450D03*
X0197063Y0340418D03*
X0197063Y0342387D03*
X0197063Y0344355D03*
D17*
X0204152Y0402276D03*
X0206711Y0402276D03*
X0209270Y0402276D03*
X0211829Y0402276D03*
X0214388Y0402276D03*
D18*
X0220884Y0414480D03*
X0197656Y0414480D03*
D19*
X0199428Y0405425D03*
X0219113Y0405425D03*
D20*
X0188599Y0356560D03*
X0181118Y0356560D03*
X0254349Y0317190D03*
X0261829Y0317190D03*
X0265373Y0280576D03*
X0257892Y0280576D03*
X0198440Y0175493D03*
X0190959Y0175493D03*
X0114192Y0234513D03*
X0106711Y0234513D03*
X0056711Y0272308D03*
X0049231Y0272308D03*
X0049231Y0279788D03*
X0056711Y0279788D03*
D21*
X0219900Y0362465D03*
X0230924Y0362465D03*
D22*
X0229940Y0355379D03*
X0220884Y0355379D03*
X0253562Y0344749D03*
X0262617Y0344749D03*
X0139388Y0353804D03*
X0130333Y0353804D03*
D23*
X0199625Y0314040D03*
X0207105Y0314040D03*
X0214585Y0313253D03*
X0222066Y0313253D03*
X0218325Y0304985D03*
X0203365Y0322308D03*
X0254349Y0351442D03*
X0261829Y0351442D03*
X0258089Y0359709D03*
X0108680Y0262465D03*
X0101199Y0262465D03*
X0104940Y0254198D03*
X0108680Y0248686D03*
X0101199Y0248686D03*
X0104940Y0240418D03*
D24*
X0115963Y0242583D03*
X0115963Y0249276D03*
X0124288Y0254911D03*
X0124288Y0261604D03*
X0076593Y0272505D03*
X0076593Y0279198D03*
X0069900Y0279198D03*
X0063601Y0279198D03*
X0063601Y0272505D03*
X0069900Y0272505D03*
X0133089Y0310103D03*
X0139782Y0310103D03*
X0138207Y0341206D03*
X0143847Y0341144D03*
X0143847Y0347837D03*
X0138207Y0347505D03*
X0131514Y0347505D03*
X0131514Y0341206D03*
X0168126Y0343961D03*
X0174819Y0343961D03*
X0181118Y0343961D03*
X0187811Y0343961D03*
X0197457Y0354788D03*
X0197457Y0361481D03*
X0230727Y0348686D03*
X0237420Y0348686D03*
X0237420Y0329394D03*
X0230727Y0329394D03*
X0221672Y0319158D03*
X0214979Y0319158D03*
X0206711Y0308135D03*
X0200018Y0308135D03*
X0228365Y0311284D03*
X0235058Y0311284D03*
X0235058Y0299080D03*
X0235058Y0292387D03*
X0228365Y0292387D03*
X0228365Y0299080D03*
X0272066Y0279394D03*
X0278758Y0279394D03*
X0288010Y0288646D03*
X0288010Y0295339D03*
X0313365Y0283607D03*
X0313365Y0276914D03*
X0308483Y0275261D03*
X0308483Y0268568D03*
X0290176Y0253804D03*
X0283483Y0253804D03*
X0197834Y0191216D03*
X0191141Y0191216D03*
X0176492Y0192085D03*
X0176492Y0198778D03*
X0384893Y0370032D03*
X0384893Y0376725D03*
X0422556Y0377058D03*
X0422556Y0370365D03*
X0441554Y0370032D03*
X0441554Y0376725D03*
X0425222Y0106752D03*
X0425222Y0100059D03*
X0471551Y0080088D03*
X0471551Y0073395D03*
X0499215Y0073395D03*
X0499215Y0080088D03*
D25*
X0517533Y0114071D03*
X0524226Y0114071D03*
X0517893Y0141401D03*
X0511200Y0141401D03*
X0487563Y0169399D03*
X0480870Y0169399D03*
X0469564Y0131069D03*
X0462872Y0131069D03*
X0432235Y0119737D03*
X0425542Y0119737D03*
X0318246Y0136735D03*
X0318246Y0142735D03*
X0311553Y0142735D03*
X0311553Y0136735D03*
X0237617Y0222505D03*
X0237617Y0229198D03*
X0255924Y0274276D03*
X0262617Y0274276D03*
X0287026Y0281757D03*
X0293719Y0281757D03*
X0294113Y0262072D03*
X0287420Y0262072D03*
X0299034Y0256363D03*
X0299034Y0249670D03*
X0318916Y0254198D03*
X0318916Y0260497D03*
X0325609Y0260497D03*
X0325609Y0254198D03*
X0325609Y0266796D03*
X0325609Y0271520D03*
X0318916Y0271520D03*
X0318916Y0266796D03*
X0318562Y0276757D03*
X0318562Y0283450D03*
X0319310Y0294355D03*
X0326003Y0294355D03*
X0326003Y0301442D03*
X0319310Y0301442D03*
X0295491Y0302426D03*
X0295491Y0309119D03*
X0261436Y0324276D03*
X0254743Y0324276D03*
X0247066Y0344946D03*
X0247066Y0351639D03*
X0235058Y0304985D03*
X0228365Y0304985D03*
X0190370Y0331166D03*
X0183678Y0331166D03*
X0183678Y0337859D03*
X0190370Y0337859D03*
X0188205Y0349867D03*
X0181512Y0349867D03*
X0174819Y0349867D03*
X0168126Y0349867D03*
X0138151Y0360502D03*
X0131458Y0360502D03*
X0115176Y0279198D03*
X0108877Y0279198D03*
X0108877Y0272505D03*
X0115176Y0272505D03*
X0129152Y0272308D03*
X0135845Y0272308D03*
X0102577Y0272505D03*
X0102577Y0279198D03*
X0082892Y0279198D03*
X0082892Y0272505D03*
X0093129Y0261087D03*
X0093129Y0254394D03*
X0092735Y0248095D03*
X0092735Y0241402D03*
X0092932Y0234513D03*
X0099625Y0234513D03*
X0172866Y0159976D03*
X0172866Y0153283D03*
X0191178Y0182217D03*
X0197871Y0182217D03*
X0424542Y0324383D03*
X0431235Y0324383D03*
D26*
X0305924Y0309020D03*
X0300806Y0309020D03*
X0303365Y0301737D03*
D27*
X0301790Y0276442D03*
X0294310Y0276442D03*
X0286436Y0276442D03*
X0286436Y0267387D03*
X0294310Y0267387D03*
X0301790Y0267387D03*
D28*
X0277774Y0295339D03*
X0270688Y0295339D03*
X0270688Y0302820D03*
X0277774Y0302820D03*
X0262026Y0299276D03*
X0262026Y0306757D03*
X0273110Y0226317D03*
X0273110Y0218836D03*
D29*
X0345806Y0253883D03*
X0345806Y0314355D03*
D30*
X0338010Y0306757D03*
X0338010Y0304788D03*
X0338010Y0302820D03*
X0338010Y0300851D03*
X0338010Y0298883D03*
X0338010Y0296914D03*
X0338010Y0294946D03*
X0338010Y0292977D03*
X0338010Y0291009D03*
X0338010Y0289040D03*
X0338010Y0287072D03*
X0338010Y0285103D03*
X0338010Y0283135D03*
X0338010Y0281166D03*
X0338010Y0279198D03*
X0338010Y0277229D03*
X0338010Y0275261D03*
X0338010Y0273292D03*
X0338010Y0271324D03*
X0338010Y0269355D03*
X0338010Y0267387D03*
X0338010Y0265418D03*
X0338010Y0263450D03*
X0338010Y0261481D03*
D31*
X0307302Y0291206D03*
X0294703Y0291206D03*
D32*
X0270097Y0312072D03*
X0270097Y0321127D03*
X0270097Y0330182D03*
D33*
X0294900Y0321127D03*
D34*
X0083680Y0256757D03*
X0083680Y0234316D03*
D35*
X0031908Y0263056D03*
X0027971Y0211284D03*
D36*
X0043129Y0229631D03*
X0044703Y0233961D03*
X0043129Y0238292D03*
X0042341Y0242623D03*
X0043129Y0246954D03*
X0042341Y0251284D03*
X0043129Y0255615D03*
X0043129Y0259946D03*
D37*
X0175882Y0332163D02*
X0178088Y0332163D01*
X0178088Y0329957D01*
X0175882Y0329957D01*
X0175882Y0332163D01*
X0175882Y0330901D02*
X0178088Y0330901D01*
X0178088Y0331845D02*
X0175882Y0331845D01*
X0175882Y0339068D02*
X0178088Y0339068D01*
X0178088Y0336862D01*
X0175882Y0336862D01*
X0175882Y0339068D01*
X0175882Y0337806D02*
X0178088Y0337806D01*
X0178088Y0338750D02*
X0175882Y0338750D01*
X0231724Y0337584D02*
X0231724Y0335378D01*
X0229518Y0335378D01*
X0229518Y0337584D01*
X0231724Y0337584D01*
X0231724Y0336322D02*
X0229518Y0336322D01*
X0229518Y0337266D02*
X0231724Y0337266D01*
X0231724Y0341284D02*
X0231724Y0343490D01*
X0231724Y0341284D02*
X0229518Y0341284D01*
X0229518Y0343490D01*
X0231724Y0343490D01*
X0231724Y0342228D02*
X0229518Y0342228D01*
X0229518Y0343172D02*
X0231724Y0343172D01*
X0238629Y0343490D02*
X0238629Y0341284D01*
X0236423Y0341284D01*
X0236423Y0343490D01*
X0238629Y0343490D01*
X0238629Y0342228D02*
X0236423Y0342228D01*
X0236423Y0343172D02*
X0238629Y0343172D01*
X0238629Y0337584D02*
X0238629Y0335378D01*
X0236423Y0335378D01*
X0236423Y0337584D01*
X0238629Y0337584D01*
X0238629Y0336322D02*
X0236423Y0336322D01*
X0236423Y0337266D02*
X0238629Y0337266D01*
D38*
X0117223Y0361206D03*
X0112223Y0361206D03*
X0107223Y0361206D03*
X0102223Y0361206D03*
X0097223Y0361206D03*
X0092223Y0361206D03*
X0087223Y0361206D03*
X0082223Y0361206D03*
X0077223Y0361206D03*
X0072223Y0361206D03*
X0067223Y0361206D03*
X0062223Y0361206D03*
X0057223Y0361206D03*
X0052223Y0361206D03*
X0052223Y0287583D03*
X0057223Y0287583D03*
X0062223Y0287583D03*
X0067223Y0287583D03*
X0072223Y0287583D03*
X0077223Y0287583D03*
X0082223Y0287583D03*
X0087223Y0287583D03*
X0092223Y0287583D03*
X0097223Y0287583D03*
X0102223Y0287583D03*
X0107223Y0287583D03*
X0112223Y0287583D03*
X0117223Y0287583D03*
D39*
X0124310Y0301875D03*
X0124310Y0306875D03*
X0124310Y0311875D03*
X0124310Y0316875D03*
X0124310Y0321875D03*
X0124310Y0326875D03*
X0124310Y0331875D03*
X0124310Y0336875D03*
X0124310Y0341875D03*
X0124310Y0346875D03*
D40*
X0082499Y0323883D03*
D41*
X0247066Y0274276D03*
X0247066Y0263253D03*
D42*
X0289585Y0234513D03*
X0289585Y0226639D03*
X0289585Y0218765D03*
D43*
X0314192Y0209513D03*
X0314192Y0243765D03*
D44*
X0220664Y0284493D03*
X0220664Y0299493D03*
X0198664Y0299493D03*
X0188774Y0299493D03*
X0188774Y0284493D03*
X0198664Y0284493D03*
X0166774Y0284493D03*
X0166774Y0299493D03*
D45*
X0184270Y0274670D03*
X0194270Y0274670D03*
X0204270Y0274670D03*
X0214270Y0274670D03*
X0224270Y0274670D03*
X0234270Y0274670D03*
X0234270Y0249473D03*
X0224270Y0249473D03*
X0214270Y0249473D03*
X0204270Y0249473D03*
X0194270Y0249473D03*
X0184270Y0249473D03*
D46*
X0255707Y0243824D03*
X0260707Y0243824D03*
X0265707Y0243824D03*
X0270707Y0243824D03*
X0270707Y0267721D03*
X0265707Y0267721D03*
X0260707Y0267721D03*
X0255707Y0267721D03*
D47*
X0263207Y0255772D03*
D48*
G36*
X0191288Y0167917D02*
X0191854Y0167351D01*
X0190016Y0165513D01*
X0189450Y0166079D01*
X0191288Y0167917D01*
G37*
G36*
X0192349Y0166857D02*
X0192915Y0166291D01*
X0191077Y0164453D01*
X0190511Y0165019D01*
X0192349Y0166857D01*
G37*
G36*
X0193480Y0165725D02*
X0194046Y0165159D01*
X0192208Y0163321D01*
X0191642Y0163887D01*
X0193480Y0165725D01*
G37*
G36*
X0194611Y0164594D02*
X0195177Y0164028D01*
X0193339Y0162190D01*
X0192773Y0162756D01*
X0194611Y0164594D01*
G37*
G36*
X0195672Y0163533D02*
X0196238Y0162967D01*
X0194400Y0161129D01*
X0193834Y0161695D01*
X0195672Y0163533D01*
G37*
G36*
X0193834Y0159290D02*
X0194400Y0159856D01*
X0196238Y0158018D01*
X0195672Y0157452D01*
X0193834Y0159290D01*
G37*
G36*
X0192773Y0158230D02*
X0193339Y0158796D01*
X0195177Y0156958D01*
X0194611Y0156392D01*
X0192773Y0158230D01*
G37*
G36*
X0191642Y0157098D02*
X0192208Y0157664D01*
X0194046Y0155826D01*
X0193480Y0155260D01*
X0191642Y0157098D01*
G37*
G36*
X0190511Y0155967D02*
X0191077Y0156533D01*
X0192915Y0154695D01*
X0192349Y0154129D01*
X0190511Y0155967D01*
G37*
G36*
X0189450Y0154906D02*
X0190016Y0155472D01*
X0191854Y0153634D01*
X0191288Y0153068D01*
X0189450Y0154906D01*
G37*
G36*
X0187611Y0155472D02*
X0188177Y0154906D01*
X0186339Y0153068D01*
X0185773Y0153634D01*
X0187611Y0155472D01*
G37*
G36*
X0186550Y0156533D02*
X0187116Y0155967D01*
X0185278Y0154129D01*
X0184712Y0154695D01*
X0186550Y0156533D01*
G37*
G36*
X0185419Y0157664D02*
X0185985Y0157098D01*
X0184147Y0155260D01*
X0183581Y0155826D01*
X0185419Y0157664D01*
G37*
G36*
X0184288Y0158796D02*
X0184854Y0158230D01*
X0183016Y0156392D01*
X0182450Y0156958D01*
X0184288Y0158796D01*
G37*
G36*
X0183227Y0159856D02*
X0183793Y0159290D01*
X0181955Y0157452D01*
X0181389Y0158018D01*
X0183227Y0159856D01*
G37*
G36*
X0181389Y0162967D02*
X0181955Y0163533D01*
X0183793Y0161695D01*
X0183227Y0161129D01*
X0181389Y0162967D01*
G37*
G36*
X0182450Y0164028D02*
X0183016Y0164594D01*
X0184854Y0162756D01*
X0184288Y0162190D01*
X0182450Y0164028D01*
G37*
G36*
X0183581Y0165159D02*
X0184147Y0165725D01*
X0185985Y0163887D01*
X0185419Y0163321D01*
X0183581Y0165159D01*
G37*
G36*
X0184712Y0166291D02*
X0185278Y0166857D01*
X0187116Y0165019D01*
X0186550Y0164453D01*
X0184712Y0166291D01*
G37*
G36*
X0185773Y0167351D02*
X0186339Y0167917D01*
X0188177Y0166079D01*
X0187611Y0165513D01*
X0185773Y0167351D01*
G37*
D49*
X0251703Y0288843D03*
X0262900Y0288843D03*
D50*
X0418555Y0278519D03*
X0421655Y0278519D03*
X0424855Y0278519D03*
X0427955Y0278519D03*
X0431155Y0278519D03*
X0434255Y0278519D03*
X0437455Y0278519D03*
X0440555Y0278519D03*
X0440555Y0310919D03*
X0437455Y0310919D03*
X0434255Y0310919D03*
X0431155Y0310919D03*
X0427955Y0310919D03*
X0424855Y0310919D03*
X0421655Y0310919D03*
X0418555Y0310919D03*
D51*
X0413355Y0305719D03*
X0413355Y0302619D03*
X0413355Y0299419D03*
X0413355Y0296319D03*
X0413355Y0293119D03*
X0413355Y0290019D03*
X0413355Y0286819D03*
X0413355Y0283719D03*
X0445755Y0283719D03*
X0445755Y0286819D03*
X0445755Y0290019D03*
X0445755Y0293119D03*
X0445755Y0296319D03*
X0445755Y0299419D03*
X0445755Y0302619D03*
X0445755Y0305719D03*
D52*
X0452886Y0376928D03*
X0452886Y0395826D03*
X0411890Y0395826D03*
X0411890Y0376928D03*
X0374227Y0376928D03*
X0374227Y0395826D03*
X0461552Y0159183D03*
X0461552Y0140285D03*
X0488216Y0140285D03*
X0488216Y0159183D03*
X0488216Y0091856D03*
X0488216Y0072959D03*
X0461885Y0072959D03*
X0461885Y0091856D03*
D53*
X0451669Y0103072D03*
X0432772Y0103072D03*
X0432772Y0129069D03*
X0451669Y0129069D03*
X0499098Y0129069D03*
X0517996Y0129069D03*
X0517996Y0103072D03*
X0499098Y0103072D03*
D54*
X0353724Y0176554D03*
X0353724Y0186397D03*
X0353724Y0196239D03*
X0332070Y0196239D03*
X0332070Y0186397D03*
X0332070Y0176554D03*
X0315728Y0176554D03*
X0315728Y0186397D03*
X0315728Y0196239D03*
X0294074Y0196239D03*
X0294074Y0186397D03*
X0294074Y0176554D03*
M02*
