G75*
%MOIN*%
%OFA0B0*%
%FSLAX25Y25*%
%IPPOS*%
%LPD*%
%AMOC8*
5,1,8,0,0,1.08239X$1,22.5*
%
%ADD10C,0.00000*%
%ADD11C,0.00394*%
%ADD12C,0.07087*%
%ADD13R,0.04000X0.00333*%
%ADD14R,0.08000X0.00333*%
%ADD15R,0.00670X0.00334*%
%ADD16R,0.10670X0.00334*%
%ADD17R,0.01340X0.00333*%
%ADD18R,0.13000X0.00333*%
%ADD19R,0.02340X0.00333*%
%ADD20R,0.15000X0.00333*%
%ADD21R,0.32000X0.00333*%
%ADD22R,0.03340X0.00334*%
%ADD23R,0.17000X0.00334*%
%ADD24R,0.32330X0.00334*%
%ADD25R,0.19000X0.00333*%
%ADD26R,0.32330X0.00333*%
%ADD27R,0.05340X0.00333*%
%ADD28R,0.20670X0.00333*%
%ADD29R,0.08000X0.00334*%
%ADD30R,0.23000X0.00334*%
%ADD31R,0.21340X0.00333*%
%ADD32R,0.06000X0.00333*%
%ADD33R,0.19670X0.00333*%
%ADD34R,0.04670X0.00333*%
%ADD35R,0.17330X0.00334*%
%ADD36R,0.03670X0.00334*%
%ADD37R,0.15660X0.00333*%
%ADD38R,0.02670X0.00333*%
%ADD39R,0.13660X0.00333*%
%ADD40R,0.02000X0.00333*%
%ADD41R,0.11330X0.00334*%
%ADD42R,0.01340X0.00334*%
%ADD43R,0.09000X0.00333*%
%ADD44R,0.00670X0.00333*%
%ADD45R,0.05670X0.00333*%
%ADD46R,0.02330X0.00333*%
%ADD47R,0.07000X0.00334*%
%ADD48R,0.00340X0.00333*%
%ADD49R,0.09330X0.00333*%
%ADD50R,0.12340X0.00333*%
%ADD51R,0.02000X0.00334*%
%ADD52R,0.14340X0.00334*%
%ADD53R,0.16330X0.00333*%
%ADD54R,0.03670X0.00333*%
%ADD55R,0.18000X0.00333*%
%ADD56R,0.05000X0.00334*%
%ADD57R,0.20000X0.00334*%
%ADD58R,0.06340X0.00333*%
%ADD59R,0.21670X0.00333*%
%ADD60R,0.06670X0.00333*%
%ADD61R,0.18330X0.00333*%
%ADD62R,0.16670X0.00333*%
%ADD63R,0.03000X0.00333*%
%ADD64R,0.02340X0.00334*%
%ADD65R,0.12000X0.00333*%
%ADD66R,0.01670X0.00333*%
%ADD67R,0.09670X0.00333*%
%ADD68R,0.01000X0.00333*%
%ADD69R,0.06660X0.00334*%
%ADD70R,0.02660X0.00333*%
%ADD71R,0.01330X0.00333*%
%ADD72R,0.07330X0.00333*%
%ADD73R,0.10000X0.00334*%
%ADD74R,0.14340X0.00333*%
%ADD75R,0.03000X0.00334*%
%ADD76R,0.16330X0.00334*%
%ADD77R,0.05000X0.00333*%
%ADD78R,0.20340X0.00333*%
%ADD79R,0.06670X0.00334*%
%ADD80R,0.22000X0.00334*%
%ADD81R,0.22000X0.00333*%
%ADD82R,0.07000X0.00333*%
%ADD83R,0.20000X0.00333*%
%ADD84R,0.18330X0.00334*%
%ADD85R,0.04000X0.00334*%
%ADD86R,0.16340X0.00333*%
%ADD87R,0.12000X0.00334*%
%ADD88R,0.06660X0.00333*%
%ADD89R,0.01000X0.00334*%
%ADD90R,0.07330X0.00334*%
%ADD91R,0.10000X0.00333*%
%ADD92R,0.14670X0.00334*%
%ADD93R,0.20340X0.00334*%
%ADD94R,0.16000X0.00333*%
%ADD95R,0.14000X0.00334*%
%ADD96R,0.02330X0.00334*%
%ADD97R,0.14000X0.00333*%
%ADD98R,0.18000X0.00334*%
%ADD99R,0.21670X0.00334*%
%ADD100R,0.18660X0.00333*%
%ADD101R,0.16670X0.00334*%
%ADD102R,0.12670X0.00333*%
%ADD103R,0.09670X0.00334*%
%ADD104R,0.07340X0.00333*%
%ADD105R,0.05330X0.00333*%
%ADD106R,0.00340X0.00334*%
%ADD107R,0.08670X0.00334*%
%ADD108R,0.11000X0.00333*%
%ADD109R,0.13330X0.00333*%
%ADD110R,0.15330X0.00334*%
%ADD111R,0.03340X0.00333*%
%ADD112R,0.17340X0.00333*%
%ADD113R,0.04340X0.00333*%
%ADD114R,0.19330X0.00333*%
%ADD115R,0.05670X0.00334*%
%ADD116R,0.21000X0.00334*%
%ADD117R,0.23340X0.00333*%
%ADD118R,0.19340X0.00334*%
%ADD119R,0.04340X0.00334*%
%ADD120R,0.17330X0.00333*%
%ADD121R,0.15330X0.00333*%
%ADD122R,0.13330X0.00334*%
%ADD123R,0.01670X0.00334*%
%ADD124R,0.08330X0.00333*%
%ADD125R,0.04660X0.00334*%
%ADD126R,0.08340X0.00333*%
%ADD127R,0.00330X0.00333*%
%ADD128R,0.11000X0.00334*%
%ADD129R,0.15340X0.00333*%
%ADD130R,0.03330X0.00334*%
%ADD131R,0.04330X0.00333*%
%ADD132R,0.21000X0.00333*%
%ADD133R,0.05660X0.00333*%
%ADD134R,0.19340X0.00333*%
%ADD135R,0.02670X0.00334*%
%ADD136R,0.01660X0.00333*%
%ADD137R,0.02660X0.00334*%
%ADD138R,0.10660X0.00334*%
%ADD139R,0.08660X0.00333*%
%ADD140R,0.09660X0.00333*%
%ADD141R,0.14330X0.00334*%
%ADD142R,0.16660X0.00333*%
%ADD143R,0.18670X0.00333*%
%ADD144R,0.20330X0.00334*%
%ADD145R,0.05330X0.00334*%
%ADD146R,0.06330X0.00333*%
%ADD147R,0.03660X0.00333*%
%ADD148R,0.00660X0.00333*%
%ADD149R,0.09340X0.00333*%
%ADD150R,0.06330X0.00334*%
%ADD151R,0.01330X0.00334*%
%ADD152R,0.14330X0.00333*%
%ADD153R,0.21660X0.00333*%
%ADD154R,0.03330X0.00333*%
%ADD155R,0.20330X0.00333*%
%ADD156R,0.16340X0.00334*%
%ADD157R,0.12330X0.00333*%
%ADD158R,0.00660X0.00334*%
%ADD159R,0.09660X0.00334*%
%ADD160R,0.21660X0.00334*%
%ADD161R,0.03660X0.00334*%
%ADD162R,0.09340X0.00334*%
%ADD163R,0.09000X0.00334*%
%ADD164R,0.00330X0.00334*%
%ADD165R,0.13670X0.00333*%
%ADD166R,0.15670X0.00334*%
%ADD167R,0.17670X0.00333*%
%ADD168R,0.19660X0.00333*%
%ADD169R,0.21330X0.00334*%
%ADD170R,0.06000X0.00334*%
%ADD171R,0.23000X0.00333*%
%ADD172R,0.18670X0.00334*%
%ADD173R,0.17000X0.00333*%
%ADD174R,0.01660X0.00334*%
%ADD175R,0.12660X0.00334*%
%ADD176R,0.10660X0.00333*%
%ADD177C,0.00600*%
%ADD178C,0.01000*%
%ADD179R,0.01575X0.04134*%
%ADD180R,0.01969X0.01969*%
%ADD181R,0.11811X0.11811*%
%ADD182R,0.04134X0.01575*%
%ADD183R,0.04528X0.08268*%
%ADD184R,0.01772X0.09055*%
%ADD185R,0.09350X0.07480*%
%ADD186R,0.05807X0.08268*%
%ADD187R,0.05118X0.05906*%
%ADD188R,0.03937X0.07087*%
%ADD189R,0.02480X0.03268*%
%ADD190R,0.03150X0.03543*%
%ADD191R,0.03937X0.04331*%
%ADD192R,0.04331X0.03937*%
%ADD193R,0.02756X0.02756*%
%ADD194R,0.03268X0.02480*%
%ADD195R,0.05906X0.05118*%
%ADD196R,0.11811X0.10630*%
%ADD197R,0.04724X0.01181*%
%ADD198R,0.04724X0.07874*%
%ADD199R,0.07874X0.05906*%
%ADD200R,0.07874X0.14961*%
%ADD201R,0.05512X0.07087*%
%ADD202R,0.07480X0.05512*%
%ADD203R,0.05906X0.03150*%
%ADD204C,0.01181*%
%ADD205C,0.00500*%
%ADD206R,0.03543X0.05512*%
%ADD207R,0.05512X0.03543*%
%ADD208R,0.23622X0.23622*%
%ADD209R,0.07087X0.03937*%
%ADD210R,0.17717X0.03937*%
%ADD211R,0.14173X0.06693*%
%ADD212C,0.03000*%
%ADD213R,0.06000X0.03000*%
%ADD214R,0.03543X0.07087*%
%ADD215C,0.04331*%
%ADD216R,0.02992X0.05000*%
%ADD217R,0.14567X0.10630*%
%ADD218R,0.05000X0.02500*%
%ADD219R,0.01000X0.02800*%
%ADD220R,0.06299X0.07098*%
%ADD221R,0.02000X0.05800*%
%ADD222R,0.05800X0.02000*%
%ADD223R,0.10236X0.04724*%
%ADD224R,0.10000X0.10000*%
%ADD225R,0.04724X0.10236*%
%ADD226C,0.05400*%
%ADD227C,0.07400*%
%ADD228R,0.09843X0.04724*%
D10*
X0182105Y0257072D02*
X0182107Y0257165D01*
X0182113Y0257257D01*
X0182123Y0257349D01*
X0182137Y0257440D01*
X0182154Y0257531D01*
X0182176Y0257621D01*
X0182201Y0257710D01*
X0182230Y0257798D01*
X0182263Y0257884D01*
X0182300Y0257969D01*
X0182340Y0258053D01*
X0182384Y0258134D01*
X0182431Y0258214D01*
X0182481Y0258292D01*
X0182535Y0258367D01*
X0182592Y0258440D01*
X0182652Y0258510D01*
X0182715Y0258578D01*
X0182781Y0258643D01*
X0182849Y0258705D01*
X0182920Y0258765D01*
X0182994Y0258821D01*
X0183070Y0258874D01*
X0183148Y0258923D01*
X0183228Y0258970D01*
X0183310Y0259012D01*
X0183394Y0259052D01*
X0183479Y0259087D01*
X0183566Y0259119D01*
X0183654Y0259148D01*
X0183743Y0259172D01*
X0183833Y0259193D01*
X0183924Y0259209D01*
X0184016Y0259222D01*
X0184108Y0259231D01*
X0184201Y0259236D01*
X0184293Y0259237D01*
X0184386Y0259234D01*
X0184478Y0259227D01*
X0184570Y0259216D01*
X0184661Y0259201D01*
X0184752Y0259183D01*
X0184842Y0259160D01*
X0184930Y0259134D01*
X0185018Y0259104D01*
X0185104Y0259070D01*
X0185188Y0259033D01*
X0185271Y0258991D01*
X0185352Y0258947D01*
X0185432Y0258899D01*
X0185509Y0258848D01*
X0185583Y0258793D01*
X0185656Y0258735D01*
X0185726Y0258675D01*
X0185793Y0258611D01*
X0185857Y0258545D01*
X0185919Y0258475D01*
X0185977Y0258404D01*
X0186032Y0258330D01*
X0186084Y0258253D01*
X0186133Y0258174D01*
X0186179Y0258094D01*
X0186221Y0258011D01*
X0186259Y0257927D01*
X0186294Y0257841D01*
X0186325Y0257754D01*
X0186352Y0257666D01*
X0186375Y0257576D01*
X0186395Y0257486D01*
X0186411Y0257395D01*
X0186423Y0257303D01*
X0186431Y0257211D01*
X0186435Y0257118D01*
X0186435Y0257026D01*
X0186431Y0256933D01*
X0186423Y0256841D01*
X0186411Y0256749D01*
X0186395Y0256658D01*
X0186375Y0256568D01*
X0186352Y0256478D01*
X0186325Y0256390D01*
X0186294Y0256303D01*
X0186259Y0256217D01*
X0186221Y0256133D01*
X0186179Y0256050D01*
X0186133Y0255970D01*
X0186084Y0255891D01*
X0186032Y0255814D01*
X0185977Y0255740D01*
X0185919Y0255669D01*
X0185857Y0255599D01*
X0185793Y0255533D01*
X0185726Y0255469D01*
X0185656Y0255409D01*
X0185583Y0255351D01*
X0185509Y0255296D01*
X0185432Y0255245D01*
X0185353Y0255197D01*
X0185271Y0255153D01*
X0185188Y0255111D01*
X0185104Y0255074D01*
X0185018Y0255040D01*
X0184930Y0255010D01*
X0184842Y0254984D01*
X0184752Y0254961D01*
X0184661Y0254943D01*
X0184570Y0254928D01*
X0184478Y0254917D01*
X0184386Y0254910D01*
X0184293Y0254907D01*
X0184201Y0254908D01*
X0184108Y0254913D01*
X0184016Y0254922D01*
X0183924Y0254935D01*
X0183833Y0254951D01*
X0183743Y0254972D01*
X0183654Y0254996D01*
X0183566Y0255025D01*
X0183479Y0255057D01*
X0183394Y0255092D01*
X0183310Y0255132D01*
X0183228Y0255174D01*
X0183148Y0255221D01*
X0183070Y0255270D01*
X0182994Y0255323D01*
X0182920Y0255379D01*
X0182849Y0255439D01*
X0182781Y0255501D01*
X0182715Y0255566D01*
X0182652Y0255634D01*
X0182592Y0255704D01*
X0182535Y0255777D01*
X0182481Y0255852D01*
X0182431Y0255930D01*
X0182384Y0256010D01*
X0182340Y0256091D01*
X0182300Y0256175D01*
X0182263Y0256260D01*
X0182230Y0256346D01*
X0182201Y0256434D01*
X0182176Y0256523D01*
X0182154Y0256613D01*
X0182137Y0256704D01*
X0182123Y0256795D01*
X0182113Y0256887D01*
X0182107Y0256979D01*
X0182105Y0257072D01*
X0185727Y0262072D02*
X0185729Y0262190D01*
X0185735Y0262309D01*
X0185745Y0262427D01*
X0185759Y0262544D01*
X0185776Y0262661D01*
X0185798Y0262778D01*
X0185824Y0262893D01*
X0185853Y0263008D01*
X0185886Y0263122D01*
X0185923Y0263234D01*
X0185964Y0263345D01*
X0186008Y0263455D01*
X0186056Y0263563D01*
X0186108Y0263670D01*
X0186163Y0263775D01*
X0186222Y0263878D01*
X0186284Y0263978D01*
X0186349Y0264077D01*
X0186418Y0264174D01*
X0186489Y0264268D01*
X0186564Y0264359D01*
X0186642Y0264449D01*
X0186723Y0264535D01*
X0186807Y0264619D01*
X0186893Y0264700D01*
X0186983Y0264778D01*
X0187074Y0264853D01*
X0187168Y0264924D01*
X0187265Y0264993D01*
X0187364Y0265058D01*
X0187464Y0265120D01*
X0187567Y0265179D01*
X0187672Y0265234D01*
X0187779Y0265286D01*
X0187887Y0265334D01*
X0187997Y0265378D01*
X0188108Y0265419D01*
X0188220Y0265456D01*
X0188334Y0265489D01*
X0188449Y0265518D01*
X0188564Y0265544D01*
X0188681Y0265566D01*
X0188798Y0265583D01*
X0188915Y0265597D01*
X0189033Y0265607D01*
X0189152Y0265613D01*
X0189270Y0265615D01*
X0189388Y0265613D01*
X0189507Y0265607D01*
X0189625Y0265597D01*
X0189742Y0265583D01*
X0189859Y0265566D01*
X0189976Y0265544D01*
X0190091Y0265518D01*
X0190206Y0265489D01*
X0190320Y0265456D01*
X0190432Y0265419D01*
X0190543Y0265378D01*
X0190653Y0265334D01*
X0190761Y0265286D01*
X0190868Y0265234D01*
X0190973Y0265179D01*
X0191076Y0265120D01*
X0191176Y0265058D01*
X0191275Y0264993D01*
X0191372Y0264924D01*
X0191466Y0264853D01*
X0191557Y0264778D01*
X0191647Y0264700D01*
X0191733Y0264619D01*
X0191817Y0264535D01*
X0191898Y0264449D01*
X0191976Y0264359D01*
X0192051Y0264268D01*
X0192122Y0264174D01*
X0192191Y0264077D01*
X0192256Y0263978D01*
X0192318Y0263878D01*
X0192377Y0263775D01*
X0192432Y0263670D01*
X0192484Y0263563D01*
X0192532Y0263455D01*
X0192576Y0263345D01*
X0192617Y0263234D01*
X0192654Y0263122D01*
X0192687Y0263008D01*
X0192716Y0262893D01*
X0192742Y0262778D01*
X0192764Y0262661D01*
X0192781Y0262544D01*
X0192795Y0262427D01*
X0192805Y0262309D01*
X0192811Y0262190D01*
X0192813Y0262072D01*
X0192811Y0261954D01*
X0192805Y0261835D01*
X0192795Y0261717D01*
X0192781Y0261600D01*
X0192764Y0261483D01*
X0192742Y0261366D01*
X0192716Y0261251D01*
X0192687Y0261136D01*
X0192654Y0261022D01*
X0192617Y0260910D01*
X0192576Y0260799D01*
X0192532Y0260689D01*
X0192484Y0260581D01*
X0192432Y0260474D01*
X0192377Y0260369D01*
X0192318Y0260266D01*
X0192256Y0260166D01*
X0192191Y0260067D01*
X0192122Y0259970D01*
X0192051Y0259876D01*
X0191976Y0259785D01*
X0191898Y0259695D01*
X0191817Y0259609D01*
X0191733Y0259525D01*
X0191647Y0259444D01*
X0191557Y0259366D01*
X0191466Y0259291D01*
X0191372Y0259220D01*
X0191275Y0259151D01*
X0191176Y0259086D01*
X0191076Y0259024D01*
X0190973Y0258965D01*
X0190868Y0258910D01*
X0190761Y0258858D01*
X0190653Y0258810D01*
X0190543Y0258766D01*
X0190432Y0258725D01*
X0190320Y0258688D01*
X0190206Y0258655D01*
X0190091Y0258626D01*
X0189976Y0258600D01*
X0189859Y0258578D01*
X0189742Y0258561D01*
X0189625Y0258547D01*
X0189507Y0258537D01*
X0189388Y0258531D01*
X0189270Y0258529D01*
X0189152Y0258531D01*
X0189033Y0258537D01*
X0188915Y0258547D01*
X0188798Y0258561D01*
X0188681Y0258578D01*
X0188564Y0258600D01*
X0188449Y0258626D01*
X0188334Y0258655D01*
X0188220Y0258688D01*
X0188108Y0258725D01*
X0187997Y0258766D01*
X0187887Y0258810D01*
X0187779Y0258858D01*
X0187672Y0258910D01*
X0187567Y0258965D01*
X0187464Y0259024D01*
X0187364Y0259086D01*
X0187265Y0259151D01*
X0187168Y0259220D01*
X0187074Y0259291D01*
X0186983Y0259366D01*
X0186893Y0259444D01*
X0186807Y0259525D01*
X0186723Y0259609D01*
X0186642Y0259695D01*
X0186564Y0259785D01*
X0186489Y0259876D01*
X0186418Y0259970D01*
X0186349Y0260067D01*
X0186284Y0260166D01*
X0186222Y0260266D01*
X0186163Y0260369D01*
X0186108Y0260474D01*
X0186056Y0260581D01*
X0186008Y0260689D01*
X0185964Y0260799D01*
X0185923Y0260910D01*
X0185886Y0261022D01*
X0185853Y0261136D01*
X0185824Y0261251D01*
X0185798Y0261366D01*
X0185776Y0261483D01*
X0185759Y0261600D01*
X0185745Y0261717D01*
X0185735Y0261835D01*
X0185729Y0261954D01*
X0185727Y0262072D01*
X0182105Y0267072D02*
X0182107Y0267165D01*
X0182113Y0267257D01*
X0182123Y0267349D01*
X0182137Y0267440D01*
X0182154Y0267531D01*
X0182176Y0267621D01*
X0182201Y0267710D01*
X0182230Y0267798D01*
X0182263Y0267884D01*
X0182300Y0267969D01*
X0182340Y0268053D01*
X0182384Y0268134D01*
X0182431Y0268214D01*
X0182481Y0268292D01*
X0182535Y0268367D01*
X0182592Y0268440D01*
X0182652Y0268510D01*
X0182715Y0268578D01*
X0182781Y0268643D01*
X0182849Y0268705D01*
X0182920Y0268765D01*
X0182994Y0268821D01*
X0183070Y0268874D01*
X0183148Y0268923D01*
X0183228Y0268970D01*
X0183310Y0269012D01*
X0183394Y0269052D01*
X0183479Y0269087D01*
X0183566Y0269119D01*
X0183654Y0269148D01*
X0183743Y0269172D01*
X0183833Y0269193D01*
X0183924Y0269209D01*
X0184016Y0269222D01*
X0184108Y0269231D01*
X0184201Y0269236D01*
X0184293Y0269237D01*
X0184386Y0269234D01*
X0184478Y0269227D01*
X0184570Y0269216D01*
X0184661Y0269201D01*
X0184752Y0269183D01*
X0184842Y0269160D01*
X0184930Y0269134D01*
X0185018Y0269104D01*
X0185104Y0269070D01*
X0185188Y0269033D01*
X0185271Y0268991D01*
X0185352Y0268947D01*
X0185432Y0268899D01*
X0185509Y0268848D01*
X0185583Y0268793D01*
X0185656Y0268735D01*
X0185726Y0268675D01*
X0185793Y0268611D01*
X0185857Y0268545D01*
X0185919Y0268475D01*
X0185977Y0268404D01*
X0186032Y0268330D01*
X0186084Y0268253D01*
X0186133Y0268174D01*
X0186179Y0268094D01*
X0186221Y0268011D01*
X0186259Y0267927D01*
X0186294Y0267841D01*
X0186325Y0267754D01*
X0186352Y0267666D01*
X0186375Y0267576D01*
X0186395Y0267486D01*
X0186411Y0267395D01*
X0186423Y0267303D01*
X0186431Y0267211D01*
X0186435Y0267118D01*
X0186435Y0267026D01*
X0186431Y0266933D01*
X0186423Y0266841D01*
X0186411Y0266749D01*
X0186395Y0266658D01*
X0186375Y0266568D01*
X0186352Y0266478D01*
X0186325Y0266390D01*
X0186294Y0266303D01*
X0186259Y0266217D01*
X0186221Y0266133D01*
X0186179Y0266050D01*
X0186133Y0265970D01*
X0186084Y0265891D01*
X0186032Y0265814D01*
X0185977Y0265740D01*
X0185919Y0265669D01*
X0185857Y0265599D01*
X0185793Y0265533D01*
X0185726Y0265469D01*
X0185656Y0265409D01*
X0185583Y0265351D01*
X0185509Y0265296D01*
X0185432Y0265245D01*
X0185353Y0265197D01*
X0185271Y0265153D01*
X0185188Y0265111D01*
X0185104Y0265074D01*
X0185018Y0265040D01*
X0184930Y0265010D01*
X0184842Y0264984D01*
X0184752Y0264961D01*
X0184661Y0264943D01*
X0184570Y0264928D01*
X0184478Y0264917D01*
X0184386Y0264910D01*
X0184293Y0264907D01*
X0184201Y0264908D01*
X0184108Y0264913D01*
X0184016Y0264922D01*
X0183924Y0264935D01*
X0183833Y0264951D01*
X0183743Y0264972D01*
X0183654Y0264996D01*
X0183566Y0265025D01*
X0183479Y0265057D01*
X0183394Y0265092D01*
X0183310Y0265132D01*
X0183228Y0265174D01*
X0183148Y0265221D01*
X0183070Y0265270D01*
X0182994Y0265323D01*
X0182920Y0265379D01*
X0182849Y0265439D01*
X0182781Y0265501D01*
X0182715Y0265566D01*
X0182652Y0265634D01*
X0182592Y0265704D01*
X0182535Y0265777D01*
X0182481Y0265852D01*
X0182431Y0265930D01*
X0182384Y0266010D01*
X0182340Y0266091D01*
X0182300Y0266175D01*
X0182263Y0266260D01*
X0182230Y0266346D01*
X0182201Y0266434D01*
X0182176Y0266523D01*
X0182154Y0266613D01*
X0182137Y0266704D01*
X0182123Y0266795D01*
X0182113Y0266887D01*
X0182107Y0266979D01*
X0182105Y0267072D01*
X0192105Y0267072D02*
X0192107Y0267165D01*
X0192113Y0267257D01*
X0192123Y0267349D01*
X0192137Y0267440D01*
X0192154Y0267531D01*
X0192176Y0267621D01*
X0192201Y0267710D01*
X0192230Y0267798D01*
X0192263Y0267884D01*
X0192300Y0267969D01*
X0192340Y0268053D01*
X0192384Y0268134D01*
X0192431Y0268214D01*
X0192481Y0268292D01*
X0192535Y0268367D01*
X0192592Y0268440D01*
X0192652Y0268510D01*
X0192715Y0268578D01*
X0192781Y0268643D01*
X0192849Y0268705D01*
X0192920Y0268765D01*
X0192994Y0268821D01*
X0193070Y0268874D01*
X0193148Y0268923D01*
X0193228Y0268970D01*
X0193310Y0269012D01*
X0193394Y0269052D01*
X0193479Y0269087D01*
X0193566Y0269119D01*
X0193654Y0269148D01*
X0193743Y0269172D01*
X0193833Y0269193D01*
X0193924Y0269209D01*
X0194016Y0269222D01*
X0194108Y0269231D01*
X0194201Y0269236D01*
X0194293Y0269237D01*
X0194386Y0269234D01*
X0194478Y0269227D01*
X0194570Y0269216D01*
X0194661Y0269201D01*
X0194752Y0269183D01*
X0194842Y0269160D01*
X0194930Y0269134D01*
X0195018Y0269104D01*
X0195104Y0269070D01*
X0195188Y0269033D01*
X0195271Y0268991D01*
X0195352Y0268947D01*
X0195432Y0268899D01*
X0195509Y0268848D01*
X0195583Y0268793D01*
X0195656Y0268735D01*
X0195726Y0268675D01*
X0195793Y0268611D01*
X0195857Y0268545D01*
X0195919Y0268475D01*
X0195977Y0268404D01*
X0196032Y0268330D01*
X0196084Y0268253D01*
X0196133Y0268174D01*
X0196179Y0268094D01*
X0196221Y0268011D01*
X0196259Y0267927D01*
X0196294Y0267841D01*
X0196325Y0267754D01*
X0196352Y0267666D01*
X0196375Y0267576D01*
X0196395Y0267486D01*
X0196411Y0267395D01*
X0196423Y0267303D01*
X0196431Y0267211D01*
X0196435Y0267118D01*
X0196435Y0267026D01*
X0196431Y0266933D01*
X0196423Y0266841D01*
X0196411Y0266749D01*
X0196395Y0266658D01*
X0196375Y0266568D01*
X0196352Y0266478D01*
X0196325Y0266390D01*
X0196294Y0266303D01*
X0196259Y0266217D01*
X0196221Y0266133D01*
X0196179Y0266050D01*
X0196133Y0265970D01*
X0196084Y0265891D01*
X0196032Y0265814D01*
X0195977Y0265740D01*
X0195919Y0265669D01*
X0195857Y0265599D01*
X0195793Y0265533D01*
X0195726Y0265469D01*
X0195656Y0265409D01*
X0195583Y0265351D01*
X0195509Y0265296D01*
X0195432Y0265245D01*
X0195353Y0265197D01*
X0195271Y0265153D01*
X0195188Y0265111D01*
X0195104Y0265074D01*
X0195018Y0265040D01*
X0194930Y0265010D01*
X0194842Y0264984D01*
X0194752Y0264961D01*
X0194661Y0264943D01*
X0194570Y0264928D01*
X0194478Y0264917D01*
X0194386Y0264910D01*
X0194293Y0264907D01*
X0194201Y0264908D01*
X0194108Y0264913D01*
X0194016Y0264922D01*
X0193924Y0264935D01*
X0193833Y0264951D01*
X0193743Y0264972D01*
X0193654Y0264996D01*
X0193566Y0265025D01*
X0193479Y0265057D01*
X0193394Y0265092D01*
X0193310Y0265132D01*
X0193228Y0265174D01*
X0193148Y0265221D01*
X0193070Y0265270D01*
X0192994Y0265323D01*
X0192920Y0265379D01*
X0192849Y0265439D01*
X0192781Y0265501D01*
X0192715Y0265566D01*
X0192652Y0265634D01*
X0192592Y0265704D01*
X0192535Y0265777D01*
X0192481Y0265852D01*
X0192431Y0265930D01*
X0192384Y0266010D01*
X0192340Y0266091D01*
X0192300Y0266175D01*
X0192263Y0266260D01*
X0192230Y0266346D01*
X0192201Y0266434D01*
X0192176Y0266523D01*
X0192154Y0266613D01*
X0192137Y0266704D01*
X0192123Y0266795D01*
X0192113Y0266887D01*
X0192107Y0266979D01*
X0192105Y0267072D01*
X0192105Y0257072D02*
X0192107Y0257165D01*
X0192113Y0257257D01*
X0192123Y0257349D01*
X0192137Y0257440D01*
X0192154Y0257531D01*
X0192176Y0257621D01*
X0192201Y0257710D01*
X0192230Y0257798D01*
X0192263Y0257884D01*
X0192300Y0257969D01*
X0192340Y0258053D01*
X0192384Y0258134D01*
X0192431Y0258214D01*
X0192481Y0258292D01*
X0192535Y0258367D01*
X0192592Y0258440D01*
X0192652Y0258510D01*
X0192715Y0258578D01*
X0192781Y0258643D01*
X0192849Y0258705D01*
X0192920Y0258765D01*
X0192994Y0258821D01*
X0193070Y0258874D01*
X0193148Y0258923D01*
X0193228Y0258970D01*
X0193310Y0259012D01*
X0193394Y0259052D01*
X0193479Y0259087D01*
X0193566Y0259119D01*
X0193654Y0259148D01*
X0193743Y0259172D01*
X0193833Y0259193D01*
X0193924Y0259209D01*
X0194016Y0259222D01*
X0194108Y0259231D01*
X0194201Y0259236D01*
X0194293Y0259237D01*
X0194386Y0259234D01*
X0194478Y0259227D01*
X0194570Y0259216D01*
X0194661Y0259201D01*
X0194752Y0259183D01*
X0194842Y0259160D01*
X0194930Y0259134D01*
X0195018Y0259104D01*
X0195104Y0259070D01*
X0195188Y0259033D01*
X0195271Y0258991D01*
X0195352Y0258947D01*
X0195432Y0258899D01*
X0195509Y0258848D01*
X0195583Y0258793D01*
X0195656Y0258735D01*
X0195726Y0258675D01*
X0195793Y0258611D01*
X0195857Y0258545D01*
X0195919Y0258475D01*
X0195977Y0258404D01*
X0196032Y0258330D01*
X0196084Y0258253D01*
X0196133Y0258174D01*
X0196179Y0258094D01*
X0196221Y0258011D01*
X0196259Y0257927D01*
X0196294Y0257841D01*
X0196325Y0257754D01*
X0196352Y0257666D01*
X0196375Y0257576D01*
X0196395Y0257486D01*
X0196411Y0257395D01*
X0196423Y0257303D01*
X0196431Y0257211D01*
X0196435Y0257118D01*
X0196435Y0257026D01*
X0196431Y0256933D01*
X0196423Y0256841D01*
X0196411Y0256749D01*
X0196395Y0256658D01*
X0196375Y0256568D01*
X0196352Y0256478D01*
X0196325Y0256390D01*
X0196294Y0256303D01*
X0196259Y0256217D01*
X0196221Y0256133D01*
X0196179Y0256050D01*
X0196133Y0255970D01*
X0196084Y0255891D01*
X0196032Y0255814D01*
X0195977Y0255740D01*
X0195919Y0255669D01*
X0195857Y0255599D01*
X0195793Y0255533D01*
X0195726Y0255469D01*
X0195656Y0255409D01*
X0195583Y0255351D01*
X0195509Y0255296D01*
X0195432Y0255245D01*
X0195353Y0255197D01*
X0195271Y0255153D01*
X0195188Y0255111D01*
X0195104Y0255074D01*
X0195018Y0255040D01*
X0194930Y0255010D01*
X0194842Y0254984D01*
X0194752Y0254961D01*
X0194661Y0254943D01*
X0194570Y0254928D01*
X0194478Y0254917D01*
X0194386Y0254910D01*
X0194293Y0254907D01*
X0194201Y0254908D01*
X0194108Y0254913D01*
X0194016Y0254922D01*
X0193924Y0254935D01*
X0193833Y0254951D01*
X0193743Y0254972D01*
X0193654Y0254996D01*
X0193566Y0255025D01*
X0193479Y0255057D01*
X0193394Y0255092D01*
X0193310Y0255132D01*
X0193228Y0255174D01*
X0193148Y0255221D01*
X0193070Y0255270D01*
X0192994Y0255323D01*
X0192920Y0255379D01*
X0192849Y0255439D01*
X0192781Y0255501D01*
X0192715Y0255566D01*
X0192652Y0255634D01*
X0192592Y0255704D01*
X0192535Y0255777D01*
X0192481Y0255852D01*
X0192431Y0255930D01*
X0192384Y0256010D01*
X0192340Y0256091D01*
X0192300Y0256175D01*
X0192263Y0256260D01*
X0192230Y0256346D01*
X0192201Y0256434D01*
X0192176Y0256523D01*
X0192154Y0256613D01*
X0192137Y0256704D01*
X0192123Y0256795D01*
X0192113Y0256887D01*
X0192107Y0256979D01*
X0192105Y0257072D01*
X0202105Y0257072D02*
X0202107Y0257165D01*
X0202113Y0257257D01*
X0202123Y0257349D01*
X0202137Y0257440D01*
X0202154Y0257531D01*
X0202176Y0257621D01*
X0202201Y0257710D01*
X0202230Y0257798D01*
X0202263Y0257884D01*
X0202300Y0257969D01*
X0202340Y0258053D01*
X0202384Y0258134D01*
X0202431Y0258214D01*
X0202481Y0258292D01*
X0202535Y0258367D01*
X0202592Y0258440D01*
X0202652Y0258510D01*
X0202715Y0258578D01*
X0202781Y0258643D01*
X0202849Y0258705D01*
X0202920Y0258765D01*
X0202994Y0258821D01*
X0203070Y0258874D01*
X0203148Y0258923D01*
X0203228Y0258970D01*
X0203310Y0259012D01*
X0203394Y0259052D01*
X0203479Y0259087D01*
X0203566Y0259119D01*
X0203654Y0259148D01*
X0203743Y0259172D01*
X0203833Y0259193D01*
X0203924Y0259209D01*
X0204016Y0259222D01*
X0204108Y0259231D01*
X0204201Y0259236D01*
X0204293Y0259237D01*
X0204386Y0259234D01*
X0204478Y0259227D01*
X0204570Y0259216D01*
X0204661Y0259201D01*
X0204752Y0259183D01*
X0204842Y0259160D01*
X0204930Y0259134D01*
X0205018Y0259104D01*
X0205104Y0259070D01*
X0205188Y0259033D01*
X0205271Y0258991D01*
X0205352Y0258947D01*
X0205432Y0258899D01*
X0205509Y0258848D01*
X0205583Y0258793D01*
X0205656Y0258735D01*
X0205726Y0258675D01*
X0205793Y0258611D01*
X0205857Y0258545D01*
X0205919Y0258475D01*
X0205977Y0258404D01*
X0206032Y0258330D01*
X0206084Y0258253D01*
X0206133Y0258174D01*
X0206179Y0258094D01*
X0206221Y0258011D01*
X0206259Y0257927D01*
X0206294Y0257841D01*
X0206325Y0257754D01*
X0206352Y0257666D01*
X0206375Y0257576D01*
X0206395Y0257486D01*
X0206411Y0257395D01*
X0206423Y0257303D01*
X0206431Y0257211D01*
X0206435Y0257118D01*
X0206435Y0257026D01*
X0206431Y0256933D01*
X0206423Y0256841D01*
X0206411Y0256749D01*
X0206395Y0256658D01*
X0206375Y0256568D01*
X0206352Y0256478D01*
X0206325Y0256390D01*
X0206294Y0256303D01*
X0206259Y0256217D01*
X0206221Y0256133D01*
X0206179Y0256050D01*
X0206133Y0255970D01*
X0206084Y0255891D01*
X0206032Y0255814D01*
X0205977Y0255740D01*
X0205919Y0255669D01*
X0205857Y0255599D01*
X0205793Y0255533D01*
X0205726Y0255469D01*
X0205656Y0255409D01*
X0205583Y0255351D01*
X0205509Y0255296D01*
X0205432Y0255245D01*
X0205353Y0255197D01*
X0205271Y0255153D01*
X0205188Y0255111D01*
X0205104Y0255074D01*
X0205018Y0255040D01*
X0204930Y0255010D01*
X0204842Y0254984D01*
X0204752Y0254961D01*
X0204661Y0254943D01*
X0204570Y0254928D01*
X0204478Y0254917D01*
X0204386Y0254910D01*
X0204293Y0254907D01*
X0204201Y0254908D01*
X0204108Y0254913D01*
X0204016Y0254922D01*
X0203924Y0254935D01*
X0203833Y0254951D01*
X0203743Y0254972D01*
X0203654Y0254996D01*
X0203566Y0255025D01*
X0203479Y0255057D01*
X0203394Y0255092D01*
X0203310Y0255132D01*
X0203228Y0255174D01*
X0203148Y0255221D01*
X0203070Y0255270D01*
X0202994Y0255323D01*
X0202920Y0255379D01*
X0202849Y0255439D01*
X0202781Y0255501D01*
X0202715Y0255566D01*
X0202652Y0255634D01*
X0202592Y0255704D01*
X0202535Y0255777D01*
X0202481Y0255852D01*
X0202431Y0255930D01*
X0202384Y0256010D01*
X0202340Y0256091D01*
X0202300Y0256175D01*
X0202263Y0256260D01*
X0202230Y0256346D01*
X0202201Y0256434D01*
X0202176Y0256523D01*
X0202154Y0256613D01*
X0202137Y0256704D01*
X0202123Y0256795D01*
X0202113Y0256887D01*
X0202107Y0256979D01*
X0202105Y0257072D01*
X0202105Y0267072D02*
X0202107Y0267165D01*
X0202113Y0267257D01*
X0202123Y0267349D01*
X0202137Y0267440D01*
X0202154Y0267531D01*
X0202176Y0267621D01*
X0202201Y0267710D01*
X0202230Y0267798D01*
X0202263Y0267884D01*
X0202300Y0267969D01*
X0202340Y0268053D01*
X0202384Y0268134D01*
X0202431Y0268214D01*
X0202481Y0268292D01*
X0202535Y0268367D01*
X0202592Y0268440D01*
X0202652Y0268510D01*
X0202715Y0268578D01*
X0202781Y0268643D01*
X0202849Y0268705D01*
X0202920Y0268765D01*
X0202994Y0268821D01*
X0203070Y0268874D01*
X0203148Y0268923D01*
X0203228Y0268970D01*
X0203310Y0269012D01*
X0203394Y0269052D01*
X0203479Y0269087D01*
X0203566Y0269119D01*
X0203654Y0269148D01*
X0203743Y0269172D01*
X0203833Y0269193D01*
X0203924Y0269209D01*
X0204016Y0269222D01*
X0204108Y0269231D01*
X0204201Y0269236D01*
X0204293Y0269237D01*
X0204386Y0269234D01*
X0204478Y0269227D01*
X0204570Y0269216D01*
X0204661Y0269201D01*
X0204752Y0269183D01*
X0204842Y0269160D01*
X0204930Y0269134D01*
X0205018Y0269104D01*
X0205104Y0269070D01*
X0205188Y0269033D01*
X0205271Y0268991D01*
X0205352Y0268947D01*
X0205432Y0268899D01*
X0205509Y0268848D01*
X0205583Y0268793D01*
X0205656Y0268735D01*
X0205726Y0268675D01*
X0205793Y0268611D01*
X0205857Y0268545D01*
X0205919Y0268475D01*
X0205977Y0268404D01*
X0206032Y0268330D01*
X0206084Y0268253D01*
X0206133Y0268174D01*
X0206179Y0268094D01*
X0206221Y0268011D01*
X0206259Y0267927D01*
X0206294Y0267841D01*
X0206325Y0267754D01*
X0206352Y0267666D01*
X0206375Y0267576D01*
X0206395Y0267486D01*
X0206411Y0267395D01*
X0206423Y0267303D01*
X0206431Y0267211D01*
X0206435Y0267118D01*
X0206435Y0267026D01*
X0206431Y0266933D01*
X0206423Y0266841D01*
X0206411Y0266749D01*
X0206395Y0266658D01*
X0206375Y0266568D01*
X0206352Y0266478D01*
X0206325Y0266390D01*
X0206294Y0266303D01*
X0206259Y0266217D01*
X0206221Y0266133D01*
X0206179Y0266050D01*
X0206133Y0265970D01*
X0206084Y0265891D01*
X0206032Y0265814D01*
X0205977Y0265740D01*
X0205919Y0265669D01*
X0205857Y0265599D01*
X0205793Y0265533D01*
X0205726Y0265469D01*
X0205656Y0265409D01*
X0205583Y0265351D01*
X0205509Y0265296D01*
X0205432Y0265245D01*
X0205353Y0265197D01*
X0205271Y0265153D01*
X0205188Y0265111D01*
X0205104Y0265074D01*
X0205018Y0265040D01*
X0204930Y0265010D01*
X0204842Y0264984D01*
X0204752Y0264961D01*
X0204661Y0264943D01*
X0204570Y0264928D01*
X0204478Y0264917D01*
X0204386Y0264910D01*
X0204293Y0264907D01*
X0204201Y0264908D01*
X0204108Y0264913D01*
X0204016Y0264922D01*
X0203924Y0264935D01*
X0203833Y0264951D01*
X0203743Y0264972D01*
X0203654Y0264996D01*
X0203566Y0265025D01*
X0203479Y0265057D01*
X0203394Y0265092D01*
X0203310Y0265132D01*
X0203228Y0265174D01*
X0203148Y0265221D01*
X0203070Y0265270D01*
X0202994Y0265323D01*
X0202920Y0265379D01*
X0202849Y0265439D01*
X0202781Y0265501D01*
X0202715Y0265566D01*
X0202652Y0265634D01*
X0202592Y0265704D01*
X0202535Y0265777D01*
X0202481Y0265852D01*
X0202431Y0265930D01*
X0202384Y0266010D01*
X0202340Y0266091D01*
X0202300Y0266175D01*
X0202263Y0266260D01*
X0202230Y0266346D01*
X0202201Y0266434D01*
X0202176Y0266523D01*
X0202154Y0266613D01*
X0202137Y0266704D01*
X0202123Y0266795D01*
X0202113Y0266887D01*
X0202107Y0266979D01*
X0202105Y0267072D01*
X0212105Y0267072D02*
X0212107Y0267165D01*
X0212113Y0267257D01*
X0212123Y0267349D01*
X0212137Y0267440D01*
X0212154Y0267531D01*
X0212176Y0267621D01*
X0212201Y0267710D01*
X0212230Y0267798D01*
X0212263Y0267884D01*
X0212300Y0267969D01*
X0212340Y0268053D01*
X0212384Y0268134D01*
X0212431Y0268214D01*
X0212481Y0268292D01*
X0212535Y0268367D01*
X0212592Y0268440D01*
X0212652Y0268510D01*
X0212715Y0268578D01*
X0212781Y0268643D01*
X0212849Y0268705D01*
X0212920Y0268765D01*
X0212994Y0268821D01*
X0213070Y0268874D01*
X0213148Y0268923D01*
X0213228Y0268970D01*
X0213310Y0269012D01*
X0213394Y0269052D01*
X0213479Y0269087D01*
X0213566Y0269119D01*
X0213654Y0269148D01*
X0213743Y0269172D01*
X0213833Y0269193D01*
X0213924Y0269209D01*
X0214016Y0269222D01*
X0214108Y0269231D01*
X0214201Y0269236D01*
X0214293Y0269237D01*
X0214386Y0269234D01*
X0214478Y0269227D01*
X0214570Y0269216D01*
X0214661Y0269201D01*
X0214752Y0269183D01*
X0214842Y0269160D01*
X0214930Y0269134D01*
X0215018Y0269104D01*
X0215104Y0269070D01*
X0215188Y0269033D01*
X0215271Y0268991D01*
X0215352Y0268947D01*
X0215432Y0268899D01*
X0215509Y0268848D01*
X0215583Y0268793D01*
X0215656Y0268735D01*
X0215726Y0268675D01*
X0215793Y0268611D01*
X0215857Y0268545D01*
X0215919Y0268475D01*
X0215977Y0268404D01*
X0216032Y0268330D01*
X0216084Y0268253D01*
X0216133Y0268174D01*
X0216179Y0268094D01*
X0216221Y0268011D01*
X0216259Y0267927D01*
X0216294Y0267841D01*
X0216325Y0267754D01*
X0216352Y0267666D01*
X0216375Y0267576D01*
X0216395Y0267486D01*
X0216411Y0267395D01*
X0216423Y0267303D01*
X0216431Y0267211D01*
X0216435Y0267118D01*
X0216435Y0267026D01*
X0216431Y0266933D01*
X0216423Y0266841D01*
X0216411Y0266749D01*
X0216395Y0266658D01*
X0216375Y0266568D01*
X0216352Y0266478D01*
X0216325Y0266390D01*
X0216294Y0266303D01*
X0216259Y0266217D01*
X0216221Y0266133D01*
X0216179Y0266050D01*
X0216133Y0265970D01*
X0216084Y0265891D01*
X0216032Y0265814D01*
X0215977Y0265740D01*
X0215919Y0265669D01*
X0215857Y0265599D01*
X0215793Y0265533D01*
X0215726Y0265469D01*
X0215656Y0265409D01*
X0215583Y0265351D01*
X0215509Y0265296D01*
X0215432Y0265245D01*
X0215353Y0265197D01*
X0215271Y0265153D01*
X0215188Y0265111D01*
X0215104Y0265074D01*
X0215018Y0265040D01*
X0214930Y0265010D01*
X0214842Y0264984D01*
X0214752Y0264961D01*
X0214661Y0264943D01*
X0214570Y0264928D01*
X0214478Y0264917D01*
X0214386Y0264910D01*
X0214293Y0264907D01*
X0214201Y0264908D01*
X0214108Y0264913D01*
X0214016Y0264922D01*
X0213924Y0264935D01*
X0213833Y0264951D01*
X0213743Y0264972D01*
X0213654Y0264996D01*
X0213566Y0265025D01*
X0213479Y0265057D01*
X0213394Y0265092D01*
X0213310Y0265132D01*
X0213228Y0265174D01*
X0213148Y0265221D01*
X0213070Y0265270D01*
X0212994Y0265323D01*
X0212920Y0265379D01*
X0212849Y0265439D01*
X0212781Y0265501D01*
X0212715Y0265566D01*
X0212652Y0265634D01*
X0212592Y0265704D01*
X0212535Y0265777D01*
X0212481Y0265852D01*
X0212431Y0265930D01*
X0212384Y0266010D01*
X0212340Y0266091D01*
X0212300Y0266175D01*
X0212263Y0266260D01*
X0212230Y0266346D01*
X0212201Y0266434D01*
X0212176Y0266523D01*
X0212154Y0266613D01*
X0212137Y0266704D01*
X0212123Y0266795D01*
X0212113Y0266887D01*
X0212107Y0266979D01*
X0212105Y0267072D01*
X0212105Y0257072D02*
X0212107Y0257165D01*
X0212113Y0257257D01*
X0212123Y0257349D01*
X0212137Y0257440D01*
X0212154Y0257531D01*
X0212176Y0257621D01*
X0212201Y0257710D01*
X0212230Y0257798D01*
X0212263Y0257884D01*
X0212300Y0257969D01*
X0212340Y0258053D01*
X0212384Y0258134D01*
X0212431Y0258214D01*
X0212481Y0258292D01*
X0212535Y0258367D01*
X0212592Y0258440D01*
X0212652Y0258510D01*
X0212715Y0258578D01*
X0212781Y0258643D01*
X0212849Y0258705D01*
X0212920Y0258765D01*
X0212994Y0258821D01*
X0213070Y0258874D01*
X0213148Y0258923D01*
X0213228Y0258970D01*
X0213310Y0259012D01*
X0213394Y0259052D01*
X0213479Y0259087D01*
X0213566Y0259119D01*
X0213654Y0259148D01*
X0213743Y0259172D01*
X0213833Y0259193D01*
X0213924Y0259209D01*
X0214016Y0259222D01*
X0214108Y0259231D01*
X0214201Y0259236D01*
X0214293Y0259237D01*
X0214386Y0259234D01*
X0214478Y0259227D01*
X0214570Y0259216D01*
X0214661Y0259201D01*
X0214752Y0259183D01*
X0214842Y0259160D01*
X0214930Y0259134D01*
X0215018Y0259104D01*
X0215104Y0259070D01*
X0215188Y0259033D01*
X0215271Y0258991D01*
X0215352Y0258947D01*
X0215432Y0258899D01*
X0215509Y0258848D01*
X0215583Y0258793D01*
X0215656Y0258735D01*
X0215726Y0258675D01*
X0215793Y0258611D01*
X0215857Y0258545D01*
X0215919Y0258475D01*
X0215977Y0258404D01*
X0216032Y0258330D01*
X0216084Y0258253D01*
X0216133Y0258174D01*
X0216179Y0258094D01*
X0216221Y0258011D01*
X0216259Y0257927D01*
X0216294Y0257841D01*
X0216325Y0257754D01*
X0216352Y0257666D01*
X0216375Y0257576D01*
X0216395Y0257486D01*
X0216411Y0257395D01*
X0216423Y0257303D01*
X0216431Y0257211D01*
X0216435Y0257118D01*
X0216435Y0257026D01*
X0216431Y0256933D01*
X0216423Y0256841D01*
X0216411Y0256749D01*
X0216395Y0256658D01*
X0216375Y0256568D01*
X0216352Y0256478D01*
X0216325Y0256390D01*
X0216294Y0256303D01*
X0216259Y0256217D01*
X0216221Y0256133D01*
X0216179Y0256050D01*
X0216133Y0255970D01*
X0216084Y0255891D01*
X0216032Y0255814D01*
X0215977Y0255740D01*
X0215919Y0255669D01*
X0215857Y0255599D01*
X0215793Y0255533D01*
X0215726Y0255469D01*
X0215656Y0255409D01*
X0215583Y0255351D01*
X0215509Y0255296D01*
X0215432Y0255245D01*
X0215353Y0255197D01*
X0215271Y0255153D01*
X0215188Y0255111D01*
X0215104Y0255074D01*
X0215018Y0255040D01*
X0214930Y0255010D01*
X0214842Y0254984D01*
X0214752Y0254961D01*
X0214661Y0254943D01*
X0214570Y0254928D01*
X0214478Y0254917D01*
X0214386Y0254910D01*
X0214293Y0254907D01*
X0214201Y0254908D01*
X0214108Y0254913D01*
X0214016Y0254922D01*
X0213924Y0254935D01*
X0213833Y0254951D01*
X0213743Y0254972D01*
X0213654Y0254996D01*
X0213566Y0255025D01*
X0213479Y0255057D01*
X0213394Y0255092D01*
X0213310Y0255132D01*
X0213228Y0255174D01*
X0213148Y0255221D01*
X0213070Y0255270D01*
X0212994Y0255323D01*
X0212920Y0255379D01*
X0212849Y0255439D01*
X0212781Y0255501D01*
X0212715Y0255566D01*
X0212652Y0255634D01*
X0212592Y0255704D01*
X0212535Y0255777D01*
X0212481Y0255852D01*
X0212431Y0255930D01*
X0212384Y0256010D01*
X0212340Y0256091D01*
X0212300Y0256175D01*
X0212263Y0256260D01*
X0212230Y0256346D01*
X0212201Y0256434D01*
X0212176Y0256523D01*
X0212154Y0256613D01*
X0212137Y0256704D01*
X0212123Y0256795D01*
X0212113Y0256887D01*
X0212107Y0256979D01*
X0212105Y0257072D01*
X0222105Y0257072D02*
X0222107Y0257165D01*
X0222113Y0257257D01*
X0222123Y0257349D01*
X0222137Y0257440D01*
X0222154Y0257531D01*
X0222176Y0257621D01*
X0222201Y0257710D01*
X0222230Y0257798D01*
X0222263Y0257884D01*
X0222300Y0257969D01*
X0222340Y0258053D01*
X0222384Y0258134D01*
X0222431Y0258214D01*
X0222481Y0258292D01*
X0222535Y0258367D01*
X0222592Y0258440D01*
X0222652Y0258510D01*
X0222715Y0258578D01*
X0222781Y0258643D01*
X0222849Y0258705D01*
X0222920Y0258765D01*
X0222994Y0258821D01*
X0223070Y0258874D01*
X0223148Y0258923D01*
X0223228Y0258970D01*
X0223310Y0259012D01*
X0223394Y0259052D01*
X0223479Y0259087D01*
X0223566Y0259119D01*
X0223654Y0259148D01*
X0223743Y0259172D01*
X0223833Y0259193D01*
X0223924Y0259209D01*
X0224016Y0259222D01*
X0224108Y0259231D01*
X0224201Y0259236D01*
X0224293Y0259237D01*
X0224386Y0259234D01*
X0224478Y0259227D01*
X0224570Y0259216D01*
X0224661Y0259201D01*
X0224752Y0259183D01*
X0224842Y0259160D01*
X0224930Y0259134D01*
X0225018Y0259104D01*
X0225104Y0259070D01*
X0225188Y0259033D01*
X0225271Y0258991D01*
X0225352Y0258947D01*
X0225432Y0258899D01*
X0225509Y0258848D01*
X0225583Y0258793D01*
X0225656Y0258735D01*
X0225726Y0258675D01*
X0225793Y0258611D01*
X0225857Y0258545D01*
X0225919Y0258475D01*
X0225977Y0258404D01*
X0226032Y0258330D01*
X0226084Y0258253D01*
X0226133Y0258174D01*
X0226179Y0258094D01*
X0226221Y0258011D01*
X0226259Y0257927D01*
X0226294Y0257841D01*
X0226325Y0257754D01*
X0226352Y0257666D01*
X0226375Y0257576D01*
X0226395Y0257486D01*
X0226411Y0257395D01*
X0226423Y0257303D01*
X0226431Y0257211D01*
X0226435Y0257118D01*
X0226435Y0257026D01*
X0226431Y0256933D01*
X0226423Y0256841D01*
X0226411Y0256749D01*
X0226395Y0256658D01*
X0226375Y0256568D01*
X0226352Y0256478D01*
X0226325Y0256390D01*
X0226294Y0256303D01*
X0226259Y0256217D01*
X0226221Y0256133D01*
X0226179Y0256050D01*
X0226133Y0255970D01*
X0226084Y0255891D01*
X0226032Y0255814D01*
X0225977Y0255740D01*
X0225919Y0255669D01*
X0225857Y0255599D01*
X0225793Y0255533D01*
X0225726Y0255469D01*
X0225656Y0255409D01*
X0225583Y0255351D01*
X0225509Y0255296D01*
X0225432Y0255245D01*
X0225353Y0255197D01*
X0225271Y0255153D01*
X0225188Y0255111D01*
X0225104Y0255074D01*
X0225018Y0255040D01*
X0224930Y0255010D01*
X0224842Y0254984D01*
X0224752Y0254961D01*
X0224661Y0254943D01*
X0224570Y0254928D01*
X0224478Y0254917D01*
X0224386Y0254910D01*
X0224293Y0254907D01*
X0224201Y0254908D01*
X0224108Y0254913D01*
X0224016Y0254922D01*
X0223924Y0254935D01*
X0223833Y0254951D01*
X0223743Y0254972D01*
X0223654Y0254996D01*
X0223566Y0255025D01*
X0223479Y0255057D01*
X0223394Y0255092D01*
X0223310Y0255132D01*
X0223228Y0255174D01*
X0223148Y0255221D01*
X0223070Y0255270D01*
X0222994Y0255323D01*
X0222920Y0255379D01*
X0222849Y0255439D01*
X0222781Y0255501D01*
X0222715Y0255566D01*
X0222652Y0255634D01*
X0222592Y0255704D01*
X0222535Y0255777D01*
X0222481Y0255852D01*
X0222431Y0255930D01*
X0222384Y0256010D01*
X0222340Y0256091D01*
X0222300Y0256175D01*
X0222263Y0256260D01*
X0222230Y0256346D01*
X0222201Y0256434D01*
X0222176Y0256523D01*
X0222154Y0256613D01*
X0222137Y0256704D01*
X0222123Y0256795D01*
X0222113Y0256887D01*
X0222107Y0256979D01*
X0222105Y0257072D01*
X0225727Y0262072D02*
X0225729Y0262190D01*
X0225735Y0262309D01*
X0225745Y0262427D01*
X0225759Y0262544D01*
X0225776Y0262661D01*
X0225798Y0262778D01*
X0225824Y0262893D01*
X0225853Y0263008D01*
X0225886Y0263122D01*
X0225923Y0263234D01*
X0225964Y0263345D01*
X0226008Y0263455D01*
X0226056Y0263563D01*
X0226108Y0263670D01*
X0226163Y0263775D01*
X0226222Y0263878D01*
X0226284Y0263978D01*
X0226349Y0264077D01*
X0226418Y0264174D01*
X0226489Y0264268D01*
X0226564Y0264359D01*
X0226642Y0264449D01*
X0226723Y0264535D01*
X0226807Y0264619D01*
X0226893Y0264700D01*
X0226983Y0264778D01*
X0227074Y0264853D01*
X0227168Y0264924D01*
X0227265Y0264993D01*
X0227364Y0265058D01*
X0227464Y0265120D01*
X0227567Y0265179D01*
X0227672Y0265234D01*
X0227779Y0265286D01*
X0227887Y0265334D01*
X0227997Y0265378D01*
X0228108Y0265419D01*
X0228220Y0265456D01*
X0228334Y0265489D01*
X0228449Y0265518D01*
X0228564Y0265544D01*
X0228681Y0265566D01*
X0228798Y0265583D01*
X0228915Y0265597D01*
X0229033Y0265607D01*
X0229152Y0265613D01*
X0229270Y0265615D01*
X0229388Y0265613D01*
X0229507Y0265607D01*
X0229625Y0265597D01*
X0229742Y0265583D01*
X0229859Y0265566D01*
X0229976Y0265544D01*
X0230091Y0265518D01*
X0230206Y0265489D01*
X0230320Y0265456D01*
X0230432Y0265419D01*
X0230543Y0265378D01*
X0230653Y0265334D01*
X0230761Y0265286D01*
X0230868Y0265234D01*
X0230973Y0265179D01*
X0231076Y0265120D01*
X0231176Y0265058D01*
X0231275Y0264993D01*
X0231372Y0264924D01*
X0231466Y0264853D01*
X0231557Y0264778D01*
X0231647Y0264700D01*
X0231733Y0264619D01*
X0231817Y0264535D01*
X0231898Y0264449D01*
X0231976Y0264359D01*
X0232051Y0264268D01*
X0232122Y0264174D01*
X0232191Y0264077D01*
X0232256Y0263978D01*
X0232318Y0263878D01*
X0232377Y0263775D01*
X0232432Y0263670D01*
X0232484Y0263563D01*
X0232532Y0263455D01*
X0232576Y0263345D01*
X0232617Y0263234D01*
X0232654Y0263122D01*
X0232687Y0263008D01*
X0232716Y0262893D01*
X0232742Y0262778D01*
X0232764Y0262661D01*
X0232781Y0262544D01*
X0232795Y0262427D01*
X0232805Y0262309D01*
X0232811Y0262190D01*
X0232813Y0262072D01*
X0232811Y0261954D01*
X0232805Y0261835D01*
X0232795Y0261717D01*
X0232781Y0261600D01*
X0232764Y0261483D01*
X0232742Y0261366D01*
X0232716Y0261251D01*
X0232687Y0261136D01*
X0232654Y0261022D01*
X0232617Y0260910D01*
X0232576Y0260799D01*
X0232532Y0260689D01*
X0232484Y0260581D01*
X0232432Y0260474D01*
X0232377Y0260369D01*
X0232318Y0260266D01*
X0232256Y0260166D01*
X0232191Y0260067D01*
X0232122Y0259970D01*
X0232051Y0259876D01*
X0231976Y0259785D01*
X0231898Y0259695D01*
X0231817Y0259609D01*
X0231733Y0259525D01*
X0231647Y0259444D01*
X0231557Y0259366D01*
X0231466Y0259291D01*
X0231372Y0259220D01*
X0231275Y0259151D01*
X0231176Y0259086D01*
X0231076Y0259024D01*
X0230973Y0258965D01*
X0230868Y0258910D01*
X0230761Y0258858D01*
X0230653Y0258810D01*
X0230543Y0258766D01*
X0230432Y0258725D01*
X0230320Y0258688D01*
X0230206Y0258655D01*
X0230091Y0258626D01*
X0229976Y0258600D01*
X0229859Y0258578D01*
X0229742Y0258561D01*
X0229625Y0258547D01*
X0229507Y0258537D01*
X0229388Y0258531D01*
X0229270Y0258529D01*
X0229152Y0258531D01*
X0229033Y0258537D01*
X0228915Y0258547D01*
X0228798Y0258561D01*
X0228681Y0258578D01*
X0228564Y0258600D01*
X0228449Y0258626D01*
X0228334Y0258655D01*
X0228220Y0258688D01*
X0228108Y0258725D01*
X0227997Y0258766D01*
X0227887Y0258810D01*
X0227779Y0258858D01*
X0227672Y0258910D01*
X0227567Y0258965D01*
X0227464Y0259024D01*
X0227364Y0259086D01*
X0227265Y0259151D01*
X0227168Y0259220D01*
X0227074Y0259291D01*
X0226983Y0259366D01*
X0226893Y0259444D01*
X0226807Y0259525D01*
X0226723Y0259609D01*
X0226642Y0259695D01*
X0226564Y0259785D01*
X0226489Y0259876D01*
X0226418Y0259970D01*
X0226349Y0260067D01*
X0226284Y0260166D01*
X0226222Y0260266D01*
X0226163Y0260369D01*
X0226108Y0260474D01*
X0226056Y0260581D01*
X0226008Y0260689D01*
X0225964Y0260799D01*
X0225923Y0260910D01*
X0225886Y0261022D01*
X0225853Y0261136D01*
X0225824Y0261251D01*
X0225798Y0261366D01*
X0225776Y0261483D01*
X0225759Y0261600D01*
X0225745Y0261717D01*
X0225735Y0261835D01*
X0225729Y0261954D01*
X0225727Y0262072D01*
X0222105Y0267072D02*
X0222107Y0267165D01*
X0222113Y0267257D01*
X0222123Y0267349D01*
X0222137Y0267440D01*
X0222154Y0267531D01*
X0222176Y0267621D01*
X0222201Y0267710D01*
X0222230Y0267798D01*
X0222263Y0267884D01*
X0222300Y0267969D01*
X0222340Y0268053D01*
X0222384Y0268134D01*
X0222431Y0268214D01*
X0222481Y0268292D01*
X0222535Y0268367D01*
X0222592Y0268440D01*
X0222652Y0268510D01*
X0222715Y0268578D01*
X0222781Y0268643D01*
X0222849Y0268705D01*
X0222920Y0268765D01*
X0222994Y0268821D01*
X0223070Y0268874D01*
X0223148Y0268923D01*
X0223228Y0268970D01*
X0223310Y0269012D01*
X0223394Y0269052D01*
X0223479Y0269087D01*
X0223566Y0269119D01*
X0223654Y0269148D01*
X0223743Y0269172D01*
X0223833Y0269193D01*
X0223924Y0269209D01*
X0224016Y0269222D01*
X0224108Y0269231D01*
X0224201Y0269236D01*
X0224293Y0269237D01*
X0224386Y0269234D01*
X0224478Y0269227D01*
X0224570Y0269216D01*
X0224661Y0269201D01*
X0224752Y0269183D01*
X0224842Y0269160D01*
X0224930Y0269134D01*
X0225018Y0269104D01*
X0225104Y0269070D01*
X0225188Y0269033D01*
X0225271Y0268991D01*
X0225352Y0268947D01*
X0225432Y0268899D01*
X0225509Y0268848D01*
X0225583Y0268793D01*
X0225656Y0268735D01*
X0225726Y0268675D01*
X0225793Y0268611D01*
X0225857Y0268545D01*
X0225919Y0268475D01*
X0225977Y0268404D01*
X0226032Y0268330D01*
X0226084Y0268253D01*
X0226133Y0268174D01*
X0226179Y0268094D01*
X0226221Y0268011D01*
X0226259Y0267927D01*
X0226294Y0267841D01*
X0226325Y0267754D01*
X0226352Y0267666D01*
X0226375Y0267576D01*
X0226395Y0267486D01*
X0226411Y0267395D01*
X0226423Y0267303D01*
X0226431Y0267211D01*
X0226435Y0267118D01*
X0226435Y0267026D01*
X0226431Y0266933D01*
X0226423Y0266841D01*
X0226411Y0266749D01*
X0226395Y0266658D01*
X0226375Y0266568D01*
X0226352Y0266478D01*
X0226325Y0266390D01*
X0226294Y0266303D01*
X0226259Y0266217D01*
X0226221Y0266133D01*
X0226179Y0266050D01*
X0226133Y0265970D01*
X0226084Y0265891D01*
X0226032Y0265814D01*
X0225977Y0265740D01*
X0225919Y0265669D01*
X0225857Y0265599D01*
X0225793Y0265533D01*
X0225726Y0265469D01*
X0225656Y0265409D01*
X0225583Y0265351D01*
X0225509Y0265296D01*
X0225432Y0265245D01*
X0225353Y0265197D01*
X0225271Y0265153D01*
X0225188Y0265111D01*
X0225104Y0265074D01*
X0225018Y0265040D01*
X0224930Y0265010D01*
X0224842Y0264984D01*
X0224752Y0264961D01*
X0224661Y0264943D01*
X0224570Y0264928D01*
X0224478Y0264917D01*
X0224386Y0264910D01*
X0224293Y0264907D01*
X0224201Y0264908D01*
X0224108Y0264913D01*
X0224016Y0264922D01*
X0223924Y0264935D01*
X0223833Y0264951D01*
X0223743Y0264972D01*
X0223654Y0264996D01*
X0223566Y0265025D01*
X0223479Y0265057D01*
X0223394Y0265092D01*
X0223310Y0265132D01*
X0223228Y0265174D01*
X0223148Y0265221D01*
X0223070Y0265270D01*
X0222994Y0265323D01*
X0222920Y0265379D01*
X0222849Y0265439D01*
X0222781Y0265501D01*
X0222715Y0265566D01*
X0222652Y0265634D01*
X0222592Y0265704D01*
X0222535Y0265777D01*
X0222481Y0265852D01*
X0222431Y0265930D01*
X0222384Y0266010D01*
X0222340Y0266091D01*
X0222300Y0266175D01*
X0222263Y0266260D01*
X0222230Y0266346D01*
X0222201Y0266434D01*
X0222176Y0266523D01*
X0222154Y0266613D01*
X0222137Y0266704D01*
X0222123Y0266795D01*
X0222113Y0266887D01*
X0222107Y0266979D01*
X0222105Y0267072D01*
X0232105Y0267072D02*
X0232107Y0267165D01*
X0232113Y0267257D01*
X0232123Y0267349D01*
X0232137Y0267440D01*
X0232154Y0267531D01*
X0232176Y0267621D01*
X0232201Y0267710D01*
X0232230Y0267798D01*
X0232263Y0267884D01*
X0232300Y0267969D01*
X0232340Y0268053D01*
X0232384Y0268134D01*
X0232431Y0268214D01*
X0232481Y0268292D01*
X0232535Y0268367D01*
X0232592Y0268440D01*
X0232652Y0268510D01*
X0232715Y0268578D01*
X0232781Y0268643D01*
X0232849Y0268705D01*
X0232920Y0268765D01*
X0232994Y0268821D01*
X0233070Y0268874D01*
X0233148Y0268923D01*
X0233228Y0268970D01*
X0233310Y0269012D01*
X0233394Y0269052D01*
X0233479Y0269087D01*
X0233566Y0269119D01*
X0233654Y0269148D01*
X0233743Y0269172D01*
X0233833Y0269193D01*
X0233924Y0269209D01*
X0234016Y0269222D01*
X0234108Y0269231D01*
X0234201Y0269236D01*
X0234293Y0269237D01*
X0234386Y0269234D01*
X0234478Y0269227D01*
X0234570Y0269216D01*
X0234661Y0269201D01*
X0234752Y0269183D01*
X0234842Y0269160D01*
X0234930Y0269134D01*
X0235018Y0269104D01*
X0235104Y0269070D01*
X0235188Y0269033D01*
X0235271Y0268991D01*
X0235352Y0268947D01*
X0235432Y0268899D01*
X0235509Y0268848D01*
X0235583Y0268793D01*
X0235656Y0268735D01*
X0235726Y0268675D01*
X0235793Y0268611D01*
X0235857Y0268545D01*
X0235919Y0268475D01*
X0235977Y0268404D01*
X0236032Y0268330D01*
X0236084Y0268253D01*
X0236133Y0268174D01*
X0236179Y0268094D01*
X0236221Y0268011D01*
X0236259Y0267927D01*
X0236294Y0267841D01*
X0236325Y0267754D01*
X0236352Y0267666D01*
X0236375Y0267576D01*
X0236395Y0267486D01*
X0236411Y0267395D01*
X0236423Y0267303D01*
X0236431Y0267211D01*
X0236435Y0267118D01*
X0236435Y0267026D01*
X0236431Y0266933D01*
X0236423Y0266841D01*
X0236411Y0266749D01*
X0236395Y0266658D01*
X0236375Y0266568D01*
X0236352Y0266478D01*
X0236325Y0266390D01*
X0236294Y0266303D01*
X0236259Y0266217D01*
X0236221Y0266133D01*
X0236179Y0266050D01*
X0236133Y0265970D01*
X0236084Y0265891D01*
X0236032Y0265814D01*
X0235977Y0265740D01*
X0235919Y0265669D01*
X0235857Y0265599D01*
X0235793Y0265533D01*
X0235726Y0265469D01*
X0235656Y0265409D01*
X0235583Y0265351D01*
X0235509Y0265296D01*
X0235432Y0265245D01*
X0235353Y0265197D01*
X0235271Y0265153D01*
X0235188Y0265111D01*
X0235104Y0265074D01*
X0235018Y0265040D01*
X0234930Y0265010D01*
X0234842Y0264984D01*
X0234752Y0264961D01*
X0234661Y0264943D01*
X0234570Y0264928D01*
X0234478Y0264917D01*
X0234386Y0264910D01*
X0234293Y0264907D01*
X0234201Y0264908D01*
X0234108Y0264913D01*
X0234016Y0264922D01*
X0233924Y0264935D01*
X0233833Y0264951D01*
X0233743Y0264972D01*
X0233654Y0264996D01*
X0233566Y0265025D01*
X0233479Y0265057D01*
X0233394Y0265092D01*
X0233310Y0265132D01*
X0233228Y0265174D01*
X0233148Y0265221D01*
X0233070Y0265270D01*
X0232994Y0265323D01*
X0232920Y0265379D01*
X0232849Y0265439D01*
X0232781Y0265501D01*
X0232715Y0265566D01*
X0232652Y0265634D01*
X0232592Y0265704D01*
X0232535Y0265777D01*
X0232481Y0265852D01*
X0232431Y0265930D01*
X0232384Y0266010D01*
X0232340Y0266091D01*
X0232300Y0266175D01*
X0232263Y0266260D01*
X0232230Y0266346D01*
X0232201Y0266434D01*
X0232176Y0266523D01*
X0232154Y0266613D01*
X0232137Y0266704D01*
X0232123Y0266795D01*
X0232113Y0266887D01*
X0232107Y0266979D01*
X0232105Y0267072D01*
X0232105Y0257072D02*
X0232107Y0257165D01*
X0232113Y0257257D01*
X0232123Y0257349D01*
X0232137Y0257440D01*
X0232154Y0257531D01*
X0232176Y0257621D01*
X0232201Y0257710D01*
X0232230Y0257798D01*
X0232263Y0257884D01*
X0232300Y0257969D01*
X0232340Y0258053D01*
X0232384Y0258134D01*
X0232431Y0258214D01*
X0232481Y0258292D01*
X0232535Y0258367D01*
X0232592Y0258440D01*
X0232652Y0258510D01*
X0232715Y0258578D01*
X0232781Y0258643D01*
X0232849Y0258705D01*
X0232920Y0258765D01*
X0232994Y0258821D01*
X0233070Y0258874D01*
X0233148Y0258923D01*
X0233228Y0258970D01*
X0233310Y0259012D01*
X0233394Y0259052D01*
X0233479Y0259087D01*
X0233566Y0259119D01*
X0233654Y0259148D01*
X0233743Y0259172D01*
X0233833Y0259193D01*
X0233924Y0259209D01*
X0234016Y0259222D01*
X0234108Y0259231D01*
X0234201Y0259236D01*
X0234293Y0259237D01*
X0234386Y0259234D01*
X0234478Y0259227D01*
X0234570Y0259216D01*
X0234661Y0259201D01*
X0234752Y0259183D01*
X0234842Y0259160D01*
X0234930Y0259134D01*
X0235018Y0259104D01*
X0235104Y0259070D01*
X0235188Y0259033D01*
X0235271Y0258991D01*
X0235352Y0258947D01*
X0235432Y0258899D01*
X0235509Y0258848D01*
X0235583Y0258793D01*
X0235656Y0258735D01*
X0235726Y0258675D01*
X0235793Y0258611D01*
X0235857Y0258545D01*
X0235919Y0258475D01*
X0235977Y0258404D01*
X0236032Y0258330D01*
X0236084Y0258253D01*
X0236133Y0258174D01*
X0236179Y0258094D01*
X0236221Y0258011D01*
X0236259Y0257927D01*
X0236294Y0257841D01*
X0236325Y0257754D01*
X0236352Y0257666D01*
X0236375Y0257576D01*
X0236395Y0257486D01*
X0236411Y0257395D01*
X0236423Y0257303D01*
X0236431Y0257211D01*
X0236435Y0257118D01*
X0236435Y0257026D01*
X0236431Y0256933D01*
X0236423Y0256841D01*
X0236411Y0256749D01*
X0236395Y0256658D01*
X0236375Y0256568D01*
X0236352Y0256478D01*
X0236325Y0256390D01*
X0236294Y0256303D01*
X0236259Y0256217D01*
X0236221Y0256133D01*
X0236179Y0256050D01*
X0236133Y0255970D01*
X0236084Y0255891D01*
X0236032Y0255814D01*
X0235977Y0255740D01*
X0235919Y0255669D01*
X0235857Y0255599D01*
X0235793Y0255533D01*
X0235726Y0255469D01*
X0235656Y0255409D01*
X0235583Y0255351D01*
X0235509Y0255296D01*
X0235432Y0255245D01*
X0235353Y0255197D01*
X0235271Y0255153D01*
X0235188Y0255111D01*
X0235104Y0255074D01*
X0235018Y0255040D01*
X0234930Y0255010D01*
X0234842Y0254984D01*
X0234752Y0254961D01*
X0234661Y0254943D01*
X0234570Y0254928D01*
X0234478Y0254917D01*
X0234386Y0254910D01*
X0234293Y0254907D01*
X0234201Y0254908D01*
X0234108Y0254913D01*
X0234016Y0254922D01*
X0233924Y0254935D01*
X0233833Y0254951D01*
X0233743Y0254972D01*
X0233654Y0254996D01*
X0233566Y0255025D01*
X0233479Y0255057D01*
X0233394Y0255092D01*
X0233310Y0255132D01*
X0233228Y0255174D01*
X0233148Y0255221D01*
X0233070Y0255270D01*
X0232994Y0255323D01*
X0232920Y0255379D01*
X0232849Y0255439D01*
X0232781Y0255501D01*
X0232715Y0255566D01*
X0232652Y0255634D01*
X0232592Y0255704D01*
X0232535Y0255777D01*
X0232481Y0255852D01*
X0232431Y0255930D01*
X0232384Y0256010D01*
X0232340Y0256091D01*
X0232300Y0256175D01*
X0232263Y0256260D01*
X0232230Y0256346D01*
X0232201Y0256434D01*
X0232176Y0256523D01*
X0232154Y0256613D01*
X0232137Y0256704D01*
X0232123Y0256795D01*
X0232113Y0256887D01*
X0232107Y0256979D01*
X0232105Y0257072D01*
X0367538Y0315615D02*
X0367538Y0320339D01*
D11*
X0367538Y0247111D01*
X0384073Y0247111D01*
X0384073Y0320339D01*
X0367538Y0320339D01*
D12*
X0229270Y0262072D03*
X0189270Y0262072D03*
D13*
X0090099Y0156744D03*
X0061769Y0163744D03*
X0050769Y0134744D03*
X0050769Y0129411D03*
X0050769Y0118411D03*
X0043769Y0109411D03*
X0022429Y0111411D03*
X0022429Y0127744D03*
D14*
X0024429Y0139411D03*
X0043769Y0109744D03*
X0063769Y0179411D03*
X0083099Y0181744D03*
D15*
X0091764Y0166078D03*
X0020764Y0121078D03*
X0020764Y0110078D03*
D16*
X0043764Y0110078D03*
D17*
X0052099Y0130411D03*
X0021099Y0126744D03*
X0021099Y0121411D03*
X0021099Y0115744D03*
X0021099Y0110411D03*
D18*
X0043599Y0110411D03*
X0068929Y0150411D03*
D19*
X0051599Y0135411D03*
X0051599Y0124744D03*
X0021599Y0110744D03*
D20*
X0043269Y0110744D03*
D21*
X0075769Y0110744D03*
X0075769Y0113744D03*
D22*
X0028099Y0151078D03*
X0029099Y0163078D03*
X0023099Y0165078D03*
X0040099Y0163078D03*
X0022099Y0111078D03*
D23*
X0043269Y0111078D03*
X0069269Y0151078D03*
X0082599Y0153078D03*
D24*
X0075934Y0140078D03*
X0075934Y0139078D03*
X0075934Y0138078D03*
X0075934Y0135078D03*
X0075934Y0134078D03*
X0075934Y0133078D03*
X0075934Y0129078D03*
X0075934Y0128078D03*
X0075934Y0127078D03*
X0075934Y0124078D03*
X0075934Y0123078D03*
X0075934Y0122078D03*
X0075934Y0119078D03*
X0075934Y0118078D03*
X0075934Y0117078D03*
X0075934Y0113078D03*
X0075934Y0112078D03*
X0075934Y0111078D03*
D25*
X0042929Y0111411D03*
D26*
X0075934Y0111411D03*
X0075934Y0111744D03*
X0075934Y0112411D03*
X0075934Y0112744D03*
X0075934Y0113411D03*
X0075934Y0116411D03*
X0075934Y0116744D03*
X0075934Y0117411D03*
X0075934Y0117744D03*
X0075934Y0118411D03*
X0075934Y0118744D03*
X0075934Y0121744D03*
X0075934Y0122411D03*
X0075934Y0122744D03*
X0075934Y0123411D03*
X0075934Y0123744D03*
X0075934Y0124411D03*
X0075934Y0127411D03*
X0075934Y0127744D03*
X0075934Y0128411D03*
X0075934Y0128744D03*
X0075934Y0129411D03*
X0075934Y0129744D03*
X0075934Y0132744D03*
X0075934Y0133411D03*
X0075934Y0133744D03*
X0075934Y0134411D03*
X0075934Y0134744D03*
X0075934Y0135411D03*
X0075934Y0138411D03*
X0075934Y0138744D03*
X0075934Y0139411D03*
X0075934Y0139744D03*
X0075934Y0140411D03*
X0075934Y0140744D03*
D27*
X0050099Y0134411D03*
X0023099Y0111744D03*
D28*
X0042434Y0111744D03*
X0030764Y0139744D03*
X0081764Y0179744D03*
D29*
X0063769Y0152078D03*
X0024429Y0112078D03*
D30*
X0041269Y0112078D03*
X0080599Y0152078D03*
D31*
X0031099Y0112411D03*
D32*
X0049769Y0112411D03*
X0049769Y0139744D03*
D33*
X0030264Y0112744D03*
D34*
X0050434Y0112744D03*
X0022764Y0133411D03*
X0089764Y0178744D03*
D35*
X0029764Y0113078D03*
D36*
X0050934Y0113078D03*
X0022264Y0133078D03*
D37*
X0029599Y0113411D03*
D38*
X0021764Y0116411D03*
X0021764Y0132744D03*
X0039764Y0152744D03*
X0040764Y0156744D03*
X0040764Y0157411D03*
X0040764Y0157744D03*
X0040764Y0158411D03*
X0040764Y0158744D03*
X0040764Y0159411D03*
X0040764Y0159744D03*
X0040434Y0161744D03*
X0035434Y0159744D03*
X0035434Y0159411D03*
X0035434Y0157411D03*
X0035434Y0156744D03*
X0035434Y0156411D03*
X0034764Y0153744D03*
X0029434Y0154744D03*
X0029764Y0156744D03*
X0029764Y0157411D03*
X0029764Y0157744D03*
X0029764Y0158411D03*
X0029764Y0158744D03*
X0029764Y0159411D03*
X0029764Y0159744D03*
X0029434Y0161744D03*
X0032764Y0171411D03*
X0032764Y0174744D03*
X0032764Y0175411D03*
X0038434Y0176744D03*
X0043764Y0176744D03*
X0043434Y0174744D03*
X0043434Y0174411D03*
X0043434Y0173744D03*
X0043434Y0173411D03*
X0043434Y0172744D03*
X0043434Y0172411D03*
X0043434Y0171744D03*
X0048764Y0172744D03*
X0048764Y0173411D03*
X0048764Y0173744D03*
X0049434Y0177411D03*
X0051434Y0160744D03*
X0051764Y0158744D03*
X0051764Y0158411D03*
X0051764Y0157744D03*
X0051434Y0155744D03*
X0045764Y0154744D03*
X0051434Y0140744D03*
X0068434Y0154744D03*
X0090764Y0150744D03*
X0051434Y0113411D03*
X0021434Y0172744D03*
X0021434Y0173411D03*
X0021434Y0173744D03*
X0021764Y0175744D03*
D39*
X0029599Y0113744D03*
D40*
X0021429Y0121744D03*
X0021429Y0132411D03*
X0051769Y0113744D03*
X0091099Y0161411D03*
X0083429Y0176744D03*
X0091099Y0177744D03*
X0060769Y0175411D03*
X0060769Y0169744D03*
X0060769Y0164411D03*
D41*
X0029434Y0114078D03*
D42*
X0052099Y0114078D03*
X0052099Y0125078D03*
D43*
X0029269Y0114411D03*
D44*
X0020764Y0126411D03*
X0052434Y0125411D03*
X0052434Y0130744D03*
X0052434Y0114411D03*
X0091764Y0155411D03*
X0091764Y0160744D03*
X0091764Y0171744D03*
D45*
X0089264Y0151744D03*
X0029264Y0114744D03*
D46*
X0043934Y0114744D03*
X0043934Y0125744D03*
X0029264Y0131411D03*
X0060934Y0153411D03*
X0083264Y0165744D03*
X0090934Y0166744D03*
X0090934Y0172411D03*
X0060934Y0180744D03*
D47*
X0043929Y0115078D03*
D48*
X0020599Y0115411D03*
X0020599Y0131744D03*
X0052599Y0141744D03*
D49*
X0043764Y0131744D03*
X0043764Y0115411D03*
D50*
X0043599Y0115744D03*
X0043599Y0121411D03*
X0043599Y0126744D03*
D51*
X0051769Y0130078D03*
X0060769Y0159078D03*
X0068429Y0160078D03*
X0021429Y0127078D03*
X0021429Y0116078D03*
D52*
X0029599Y0119078D03*
X0043599Y0116078D03*
D53*
X0043264Y0116411D03*
X0043264Y0127411D03*
X0043264Y0132744D03*
X0069264Y0172744D03*
D54*
X0090264Y0167411D03*
X0090264Y0178411D03*
X0022264Y0122411D03*
X0022264Y0116744D03*
D55*
X0043099Y0116744D03*
X0043099Y0122411D03*
X0082429Y0158411D03*
X0069429Y0167411D03*
X0082429Y0174744D03*
D56*
X0050269Y0129078D03*
X0050269Y0118078D03*
X0022929Y0117078D03*
X0022929Y0128078D03*
D57*
X0030429Y0129078D03*
X0030429Y0118078D03*
X0042769Y0117078D03*
X0082099Y0158078D03*
D58*
X0068599Y0160411D03*
X0023599Y0133744D03*
X0023599Y0128411D03*
X0023599Y0117411D03*
D59*
X0031264Y0117744D03*
X0041934Y0117411D03*
X0041934Y0128411D03*
X0041934Y0133744D03*
X0031264Y0128744D03*
X0081264Y0157744D03*
D60*
X0088764Y0157411D03*
X0088764Y0162744D03*
X0088764Y0173744D03*
X0068434Y0171411D03*
X0068434Y0165744D03*
X0049434Y0128744D03*
X0043764Y0131411D03*
X0049434Y0117744D03*
D61*
X0042934Y0127744D03*
X0029934Y0129411D03*
X0029934Y0118411D03*
X0082264Y0163744D03*
D62*
X0029764Y0118744D03*
D63*
X0021929Y0127411D03*
X0021929Y0149744D03*
X0022269Y0150411D03*
X0022599Y0150744D03*
X0022929Y0151411D03*
X0022929Y0151744D03*
X0023269Y0152411D03*
X0023269Y0152744D03*
X0023599Y0153411D03*
X0023599Y0153744D03*
X0023929Y0154411D03*
X0023929Y0154744D03*
X0023929Y0155411D03*
X0024269Y0156411D03*
X0024269Y0156744D03*
X0024269Y0157411D03*
X0024269Y0157744D03*
X0024269Y0158411D03*
X0024269Y0158744D03*
X0024269Y0159411D03*
X0024269Y0159744D03*
X0024269Y0160411D03*
X0023929Y0161411D03*
X0023929Y0161744D03*
X0023929Y0162411D03*
X0023599Y0162744D03*
X0023599Y0163411D03*
X0023599Y0163744D03*
X0023269Y0164411D03*
X0023269Y0164744D03*
X0022929Y0165411D03*
X0022929Y0165744D03*
X0022599Y0166744D03*
X0022269Y0167744D03*
X0022269Y0168411D03*
X0021929Y0169411D03*
X0021929Y0169744D03*
X0021929Y0170411D03*
X0021599Y0170744D03*
X0021599Y0171411D03*
X0021599Y0171744D03*
X0021599Y0172411D03*
X0021599Y0174411D03*
X0021599Y0174744D03*
X0021599Y0175411D03*
X0021929Y0176411D03*
X0021929Y0176744D03*
X0022269Y0177744D03*
X0022269Y0178411D03*
X0022599Y0178744D03*
X0022929Y0179411D03*
X0022929Y0179744D03*
X0023269Y0180411D03*
X0023269Y0180744D03*
X0023599Y0181411D03*
X0023929Y0181744D03*
X0028269Y0179744D03*
X0028269Y0179411D03*
X0027929Y0178744D03*
X0027929Y0178411D03*
X0027599Y0177744D03*
X0027599Y0177411D03*
X0027269Y0176744D03*
X0027269Y0176411D03*
X0027269Y0175744D03*
X0026929Y0174744D03*
X0026929Y0174411D03*
X0026929Y0173744D03*
X0026929Y0173411D03*
X0026929Y0172744D03*
X0026929Y0172411D03*
X0026929Y0171744D03*
X0026929Y0171411D03*
X0027269Y0170744D03*
X0027269Y0170411D03*
X0027269Y0169744D03*
X0027599Y0168744D03*
X0027599Y0168411D03*
X0027929Y0167744D03*
X0027929Y0167411D03*
X0028269Y0166411D03*
X0028599Y0164744D03*
X0028929Y0163744D03*
X0028929Y0163411D03*
X0029269Y0162744D03*
X0029269Y0162411D03*
X0029599Y0161411D03*
X0029599Y0160744D03*
X0029599Y0160411D03*
X0029599Y0156411D03*
X0029599Y0155744D03*
X0029599Y0155411D03*
X0029269Y0154411D03*
X0028929Y0153411D03*
X0028929Y0152744D03*
X0028599Y0152411D03*
X0028269Y0151744D03*
X0028269Y0151411D03*
X0027929Y0150744D03*
X0027929Y0150411D03*
X0027599Y0149744D03*
X0033269Y0149744D03*
X0033599Y0150411D03*
X0033599Y0150744D03*
X0033929Y0151411D03*
X0033929Y0151744D03*
X0034269Y0152411D03*
X0034599Y0152744D03*
X0034599Y0153411D03*
X0034929Y0154411D03*
X0034929Y0154744D03*
X0035269Y0155411D03*
X0035269Y0155744D03*
X0035599Y0157744D03*
X0035599Y0158411D03*
X0035599Y0158744D03*
X0035269Y0160411D03*
X0035269Y0160744D03*
X0035269Y0161411D03*
X0034929Y0161744D03*
X0034929Y0162411D03*
X0034929Y0162744D03*
X0034599Y0163411D03*
X0034599Y0163744D03*
X0034269Y0164744D03*
X0034269Y0165411D03*
X0033929Y0165744D03*
X0033929Y0166411D03*
X0033599Y0167411D03*
X0033599Y0167744D03*
X0033269Y0168411D03*
X0033269Y0168744D03*
X0032929Y0169744D03*
X0032929Y0170411D03*
X0032929Y0170744D03*
X0032599Y0171744D03*
X0032599Y0172411D03*
X0032599Y0172744D03*
X0032599Y0173411D03*
X0032599Y0173744D03*
X0032599Y0174411D03*
X0032929Y0175744D03*
X0032929Y0176411D03*
X0032929Y0176744D03*
X0033269Y0177411D03*
X0033269Y0177744D03*
X0033599Y0178411D03*
X0033599Y0178744D03*
X0033929Y0179411D03*
X0033929Y0179744D03*
X0034269Y0180411D03*
X0034599Y0180744D03*
X0034929Y0181744D03*
X0039269Y0179744D03*
X0039269Y0179411D03*
X0038929Y0178744D03*
X0038929Y0178411D03*
X0038599Y0177744D03*
X0038599Y0177411D03*
X0038269Y0176411D03*
X0038269Y0175744D03*
X0037929Y0174744D03*
X0037929Y0174411D03*
X0037929Y0173744D03*
X0037929Y0173411D03*
X0037929Y0172744D03*
X0037929Y0172411D03*
X0037929Y0171411D03*
X0038269Y0170744D03*
X0038269Y0170411D03*
X0038269Y0169744D03*
X0038599Y0169411D03*
X0038599Y0168744D03*
X0038599Y0168411D03*
X0038929Y0167744D03*
X0038929Y0167411D03*
X0039269Y0166411D03*
X0039599Y0165411D03*
X0039599Y0164744D03*
X0039929Y0163744D03*
X0039929Y0163411D03*
X0040269Y0162744D03*
X0040269Y0162411D03*
X0040599Y0161411D03*
X0040599Y0160744D03*
X0040599Y0160411D03*
X0040599Y0156411D03*
X0040599Y0155744D03*
X0040599Y0155411D03*
X0040269Y0154744D03*
X0040269Y0154411D03*
X0039929Y0153411D03*
X0039599Y0152411D03*
X0039269Y0151744D03*
X0039269Y0151411D03*
X0038929Y0150744D03*
X0038929Y0150411D03*
X0038599Y0149744D03*
X0043929Y0149744D03*
X0044269Y0150411D03*
X0044269Y0150744D03*
X0044599Y0151411D03*
X0044929Y0151744D03*
X0044929Y0152411D03*
X0045269Y0152744D03*
X0045269Y0153411D03*
X0045599Y0153744D03*
X0045599Y0154411D03*
X0045929Y0155411D03*
X0045929Y0155744D03*
X0046269Y0157411D03*
X0046269Y0157744D03*
X0046269Y0158411D03*
X0046269Y0158744D03*
X0046269Y0159411D03*
X0046269Y0159744D03*
X0045929Y0160744D03*
X0045929Y0161411D03*
X0045929Y0161744D03*
X0045599Y0162411D03*
X0045599Y0162744D03*
X0045269Y0163744D03*
X0045269Y0164411D03*
X0044929Y0165411D03*
X0044599Y0166411D03*
X0044599Y0166744D03*
X0044269Y0167411D03*
X0044269Y0167744D03*
X0043929Y0168744D03*
X0043929Y0169411D03*
X0043599Y0169744D03*
X0043599Y0170411D03*
X0043599Y0170744D03*
X0043599Y0171411D03*
X0043599Y0175411D03*
X0043599Y0175744D03*
X0043599Y0176411D03*
X0043929Y0177411D03*
X0044269Y0178411D03*
X0044269Y0178744D03*
X0044599Y0179411D03*
X0044929Y0179744D03*
X0044929Y0180411D03*
X0045269Y0180744D03*
X0045599Y0181411D03*
X0045599Y0181744D03*
X0050269Y0179744D03*
X0050269Y0179411D03*
X0049929Y0178744D03*
X0049599Y0178411D03*
X0049599Y0177744D03*
X0049269Y0176744D03*
X0049269Y0176411D03*
X0048929Y0175411D03*
X0048929Y0174744D03*
X0048929Y0174411D03*
X0048929Y0172411D03*
X0048929Y0171744D03*
X0048929Y0171411D03*
X0048929Y0170744D03*
X0049269Y0170411D03*
X0049269Y0169744D03*
X0049269Y0169411D03*
X0049599Y0168411D03*
X0049929Y0166744D03*
X0050269Y0165744D03*
X0050269Y0165411D03*
X0050599Y0164744D03*
X0050599Y0164411D03*
X0050929Y0163744D03*
X0050929Y0163411D03*
X0050929Y0162744D03*
X0051269Y0162411D03*
X0051269Y0161744D03*
X0051269Y0161411D03*
X0051599Y0160411D03*
X0051599Y0159744D03*
X0051599Y0159411D03*
X0051599Y0157411D03*
X0051599Y0156744D03*
X0051599Y0156411D03*
X0051269Y0155411D03*
X0051269Y0154744D03*
X0051269Y0154411D03*
X0050929Y0153744D03*
X0050929Y0153411D03*
X0050599Y0152744D03*
X0050599Y0152411D03*
X0050269Y0151744D03*
X0050269Y0151411D03*
X0049929Y0150744D03*
X0049599Y0150411D03*
X0049269Y0149744D03*
X0051269Y0129744D03*
X0051269Y0124411D03*
X0051269Y0118744D03*
X0090599Y0156411D03*
X0090599Y0161744D03*
X0090599Y0172744D03*
X0061269Y0169411D03*
X0050599Y0180411D03*
X0050599Y0180744D03*
X0050929Y0181411D03*
X0051269Y0181744D03*
X0040269Y0181744D03*
X0039929Y0180744D03*
X0039599Y0180411D03*
X0029269Y0181411D03*
X0029269Y0181744D03*
X0028929Y0180744D03*
X0028599Y0180411D03*
D64*
X0021599Y0138078D03*
X0051599Y0119078D03*
D65*
X0029429Y0119411D03*
X0029429Y0130411D03*
X0068769Y0166411D03*
X0083099Y0159411D03*
X0083099Y0175744D03*
D66*
X0083264Y0160411D03*
X0091264Y0155744D03*
X0091264Y0150411D03*
X0051934Y0135744D03*
X0051934Y0119411D03*
X0021264Y0137744D03*
D67*
X0029264Y0130744D03*
X0029264Y0125411D03*
X0029264Y0119744D03*
D68*
X0020929Y0137411D03*
X0052269Y0141411D03*
X0052269Y0119744D03*
D69*
X0029099Y0120078D03*
X0029099Y0131078D03*
X0063099Y0163078D03*
D70*
X0061099Y0158744D03*
X0046099Y0160411D03*
X0046099Y0156744D03*
X0046099Y0156411D03*
X0040099Y0153744D03*
X0029099Y0153744D03*
X0024099Y0155744D03*
X0024099Y0160744D03*
X0038099Y0171744D03*
X0038099Y0175411D03*
X0044099Y0177744D03*
X0049099Y0175744D03*
X0027099Y0175411D03*
X0022099Y0177411D03*
X0029099Y0136744D03*
X0029099Y0120411D03*
D71*
X0043764Y0120411D03*
X0060434Y0159411D03*
X0060434Y0164744D03*
X0060434Y0175744D03*
X0091434Y0177411D03*
X0091434Y0166411D03*
D72*
X0043764Y0120744D03*
D73*
X0043769Y0121078D03*
X0083099Y0165078D03*
D74*
X0043599Y0121744D03*
X0029599Y0124744D03*
X0029599Y0135411D03*
D75*
X0027599Y0150078D03*
X0028599Y0152078D03*
X0028929Y0153078D03*
X0029269Y0154078D03*
X0029599Y0156078D03*
X0029599Y0160078D03*
X0029599Y0161078D03*
X0029269Y0162078D03*
X0028929Y0164078D03*
X0028599Y0165078D03*
X0028269Y0166078D03*
X0027929Y0167078D03*
X0027599Y0169078D03*
X0027269Y0170078D03*
X0026929Y0172078D03*
X0026929Y0173078D03*
X0026929Y0174078D03*
X0027269Y0176078D03*
X0027599Y0177078D03*
X0028269Y0179078D03*
X0028599Y0180078D03*
X0028929Y0181078D03*
X0023599Y0181078D03*
X0022929Y0180078D03*
X0022599Y0179078D03*
X0022269Y0178078D03*
X0021929Y0177078D03*
X0021599Y0175078D03*
X0021599Y0172078D03*
X0021599Y0171078D03*
X0021929Y0170078D03*
X0021929Y0169078D03*
X0022269Y0168078D03*
X0022599Y0167078D03*
X0022929Y0166078D03*
X0023269Y0164078D03*
X0023599Y0163078D03*
X0023929Y0162078D03*
X0023929Y0161078D03*
X0024269Y0160078D03*
X0024269Y0159078D03*
X0024269Y0158078D03*
X0024269Y0157078D03*
X0024269Y0156078D03*
X0023929Y0155078D03*
X0022929Y0152078D03*
X0022599Y0151078D03*
X0022269Y0150078D03*
X0033269Y0150078D03*
X0033929Y0151078D03*
X0034269Y0152078D03*
X0034599Y0153078D03*
X0034929Y0154078D03*
X0035269Y0156078D03*
X0035599Y0158078D03*
X0035599Y0159078D03*
X0035269Y0161078D03*
X0034929Y0162078D03*
X0034599Y0164078D03*
X0034269Y0165078D03*
X0033929Y0166078D03*
X0033599Y0167078D03*
X0033269Y0169078D03*
X0032929Y0170078D03*
X0032929Y0171078D03*
X0032599Y0172078D03*
X0032599Y0173078D03*
X0032599Y0174078D03*
X0032929Y0176078D03*
X0033929Y0179078D03*
X0034269Y0180078D03*
X0034599Y0181078D03*
X0039269Y0179078D03*
X0039599Y0180078D03*
X0039929Y0181078D03*
X0038599Y0177078D03*
X0038269Y0176078D03*
X0037929Y0174078D03*
X0037929Y0173078D03*
X0037929Y0172078D03*
X0038269Y0171078D03*
X0038269Y0170078D03*
X0038599Y0169078D03*
X0038929Y0167078D03*
X0039269Y0166078D03*
X0039599Y0165078D03*
X0039929Y0164078D03*
X0040269Y0162078D03*
X0040599Y0161078D03*
X0040599Y0160078D03*
X0040599Y0156078D03*
X0040269Y0154078D03*
X0039929Y0153078D03*
X0039599Y0152078D03*
X0039269Y0151078D03*
X0038599Y0150078D03*
X0043929Y0150078D03*
X0044599Y0151078D03*
X0044929Y0152078D03*
X0045269Y0153078D03*
X0045599Y0154078D03*
X0045929Y0155078D03*
X0046269Y0157078D03*
X0046269Y0158078D03*
X0046269Y0159078D03*
X0045929Y0161078D03*
X0045599Y0162078D03*
X0045599Y0163078D03*
X0045269Y0164078D03*
X0044929Y0165078D03*
X0044599Y0166078D03*
X0044269Y0168078D03*
X0043929Y0169078D03*
X0043599Y0170078D03*
X0043599Y0171078D03*
X0043599Y0175078D03*
X0043599Y0176078D03*
X0043929Y0177078D03*
X0044269Y0178078D03*
X0044599Y0179078D03*
X0044929Y0180078D03*
X0045269Y0181078D03*
X0049929Y0179078D03*
X0049599Y0178078D03*
X0049269Y0177078D03*
X0048929Y0175078D03*
X0048929Y0172078D03*
X0048929Y0171078D03*
X0049269Y0170078D03*
X0049269Y0169078D03*
X0049599Y0168078D03*
X0049929Y0167078D03*
X0050269Y0166078D03*
X0050929Y0163078D03*
X0051269Y0162078D03*
X0051269Y0161078D03*
X0051599Y0160078D03*
X0051599Y0159078D03*
X0051599Y0157078D03*
X0051599Y0156078D03*
X0051269Y0155078D03*
X0050269Y0152078D03*
X0049929Y0151078D03*
X0049599Y0150078D03*
X0051269Y0135078D03*
X0021929Y0122078D03*
X0061269Y0164078D03*
X0050269Y0180078D03*
X0050929Y0181078D03*
X0090599Y0167078D03*
D76*
X0069264Y0167078D03*
X0043264Y0122078D03*
D77*
X0050269Y0123744D03*
X0022929Y0122744D03*
X0062269Y0163411D03*
X0062269Y0168744D03*
X0062269Y0174411D03*
X0083269Y0154744D03*
X0089599Y0162411D03*
X0089599Y0167744D03*
X0089599Y0173411D03*
D78*
X0030599Y0134411D03*
X0042599Y0122744D03*
D79*
X0049434Y0134078D03*
X0023764Y0123078D03*
X0088764Y0168078D03*
D80*
X0041769Y0123078D03*
D81*
X0031429Y0123411D03*
X0070769Y0157411D03*
X0081099Y0168411D03*
X0070769Y0173744D03*
D82*
X0083269Y0176411D03*
X0083269Y0170744D03*
X0049269Y0123411D03*
D83*
X0042769Y0133411D03*
X0030429Y0123744D03*
X0069769Y0162411D03*
X0069769Y0167744D03*
X0069769Y0173411D03*
X0082099Y0174411D03*
X0082099Y0168744D03*
D84*
X0069264Y0173078D03*
X0069264Y0162078D03*
X0029934Y0124078D03*
D85*
X0050769Y0124078D03*
X0090099Y0162078D03*
X0090099Y0173078D03*
X0083099Y0182078D03*
X0061769Y0180078D03*
D86*
X0082599Y0169411D03*
X0029599Y0124411D03*
D87*
X0029429Y0125078D03*
X0043769Y0132078D03*
X0068769Y0161078D03*
X0068769Y0172078D03*
X0083099Y0170078D03*
D88*
X0063099Y0168411D03*
X0029099Y0125744D03*
D89*
X0029269Y0126078D03*
X0020929Y0132078D03*
X0052269Y0136078D03*
X0060269Y0154078D03*
X0060269Y0170078D03*
X0091599Y0150078D03*
D90*
X0068434Y0155078D03*
X0043764Y0126078D03*
D91*
X0043769Y0126411D03*
X0083099Y0170411D03*
D92*
X0043434Y0127078D03*
D93*
X0042599Y0128078D03*
D94*
X0029769Y0129744D03*
X0069099Y0161744D03*
X0082769Y0158744D03*
D95*
X0082769Y0159078D03*
X0029429Y0130078D03*
D96*
X0043934Y0131078D03*
X0090934Y0156078D03*
D97*
X0082769Y0169744D03*
X0043429Y0132411D03*
D98*
X0043099Y0133078D03*
X0082429Y0169078D03*
D99*
X0081264Y0174078D03*
X0081264Y0163078D03*
X0031264Y0134078D03*
D100*
X0030099Y0134744D03*
D101*
X0029764Y0135078D03*
D102*
X0029434Y0135744D03*
X0068764Y0155744D03*
D103*
X0029264Y0136078D03*
D104*
X0029099Y0136411D03*
X0083099Y0165411D03*
D105*
X0068434Y0176744D03*
X0043764Y0136744D03*
D106*
X0020599Y0137078D03*
D107*
X0043764Y0137078D03*
D108*
X0043599Y0137411D03*
X0029269Y0141411D03*
X0068599Y0177411D03*
D109*
X0082764Y0153744D03*
X0043434Y0137744D03*
D110*
X0043434Y0138078D03*
D111*
X0051099Y0140411D03*
X0045099Y0164744D03*
X0044099Y0168411D03*
X0039099Y0166744D03*
X0033099Y0169411D03*
X0028099Y0166744D03*
X0022099Y0168744D03*
X0040099Y0181411D03*
X0050099Y0166411D03*
X0022099Y0138411D03*
D112*
X0043099Y0138411D03*
D113*
X0022599Y0138744D03*
X0068599Y0149411D03*
D114*
X0069434Y0151411D03*
X0042764Y0138744D03*
D115*
X0023264Y0139078D03*
D116*
X0042269Y0139078D03*
D117*
X0041099Y0139411D03*
D118*
X0030099Y0140078D03*
D119*
X0050599Y0140078D03*
D120*
X0029764Y0140411D03*
D121*
X0029764Y0140744D03*
X0082764Y0153411D03*
X0082764Y0180744D03*
D122*
X0029434Y0141078D03*
D123*
X0051934Y0141078D03*
D124*
X0029264Y0141744D03*
D125*
X0029099Y0142078D03*
X0062099Y0158078D03*
D126*
X0068599Y0149744D03*
D127*
X0059934Y0154411D03*
X0091934Y0149744D03*
D128*
X0068599Y0150078D03*
D129*
X0069099Y0150744D03*
D130*
X0061434Y0153078D03*
X0050764Y0164078D03*
X0050434Y0165078D03*
X0044434Y0167078D03*
X0038764Y0168078D03*
X0033434Y0168078D03*
X0034764Y0163078D03*
X0027764Y0168078D03*
X0090434Y0151078D03*
D131*
X0089934Y0151411D03*
X0061934Y0152744D03*
D132*
X0070269Y0151744D03*
X0081599Y0152411D03*
D133*
X0062599Y0152411D03*
X0062599Y0179744D03*
D134*
X0082099Y0152744D03*
D135*
X0068434Y0171078D03*
X0051764Y0158078D03*
X0050764Y0153078D03*
X0040434Y0155078D03*
X0040764Y0157078D03*
X0040764Y0158078D03*
X0040764Y0159078D03*
X0035434Y0160078D03*
X0035434Y0157078D03*
X0029764Y0157078D03*
X0029764Y0158078D03*
X0029764Y0159078D03*
X0029434Y0155078D03*
X0023764Y0154078D03*
X0023434Y0153078D03*
X0043434Y0172078D03*
X0043434Y0173078D03*
X0043434Y0174078D03*
X0048764Y0174078D03*
X0048764Y0173078D03*
X0038764Y0178078D03*
X0033434Y0178078D03*
X0032764Y0175078D03*
X0027764Y0178078D03*
X0021764Y0176078D03*
X0021434Y0174078D03*
X0021434Y0173078D03*
X0090764Y0178078D03*
D136*
X0060599Y0153744D03*
D137*
X0051099Y0154078D03*
X0046099Y0156078D03*
X0046099Y0160078D03*
X0035099Y0155078D03*
X0027099Y0171078D03*
X0027099Y0175078D03*
X0033099Y0177078D03*
X0038099Y0175078D03*
X0049099Y0176078D03*
X0061099Y0175078D03*
D138*
X0083099Y0154078D03*
D139*
X0083099Y0154411D03*
D140*
X0068599Y0155411D03*
X0068599Y0160744D03*
X0068599Y0171744D03*
D141*
X0068934Y0156078D03*
D142*
X0069099Y0156411D03*
D143*
X0069434Y0156744D03*
D144*
X0069934Y0157078D03*
D145*
X0089434Y0157078D03*
D146*
X0062934Y0157744D03*
D147*
X0061599Y0158411D03*
X0061599Y0174744D03*
D148*
X0060099Y0170411D03*
X0060099Y0159744D03*
X0060099Y0181411D03*
D149*
X0083099Y0159744D03*
D150*
X0083264Y0160078D03*
X0062934Y0174078D03*
D151*
X0091434Y0172078D03*
X0091434Y0161078D03*
D152*
X0082934Y0164411D03*
X0082934Y0175411D03*
X0068934Y0172411D03*
X0068934Y0166744D03*
X0068934Y0161411D03*
D153*
X0070599Y0162744D03*
D154*
X0061434Y0180411D03*
X0049434Y0168744D03*
X0049764Y0167744D03*
X0049764Y0167411D03*
X0044764Y0165744D03*
X0045434Y0163411D03*
X0039764Y0164411D03*
X0039434Y0165744D03*
X0034434Y0164411D03*
X0033764Y0166744D03*
X0028434Y0165744D03*
X0028434Y0165411D03*
X0028764Y0164411D03*
X0027434Y0169411D03*
X0022434Y0167411D03*
X0022764Y0166411D03*
X0034764Y0181411D03*
D155*
X0081934Y0163411D03*
D156*
X0082599Y0164078D03*
X0082599Y0175078D03*
D157*
X0082934Y0164744D03*
D158*
X0060099Y0165078D03*
X0060099Y0176078D03*
D159*
X0068599Y0166078D03*
D160*
X0070599Y0168078D03*
D161*
X0061599Y0169078D03*
D162*
X0083099Y0176078D03*
D163*
X0068599Y0177078D03*
D164*
X0091934Y0177078D03*
D165*
X0068934Y0177744D03*
D166*
X0068934Y0178078D03*
D167*
X0069264Y0178411D03*
D168*
X0069599Y0178744D03*
D169*
X0070434Y0179078D03*
D170*
X0089099Y0179078D03*
D171*
X0080599Y0179411D03*
D172*
X0082434Y0180078D03*
D173*
X0082599Y0180411D03*
D174*
X0060599Y0181078D03*
D175*
X0083099Y0181078D03*
D176*
X0083099Y0181411D03*
D177*
X0360195Y0410742D02*
X0360195Y0415013D01*
X0361263Y0416080D01*
X0363398Y0416080D01*
X0364466Y0415013D01*
X0364466Y0412877D01*
X0363398Y0411810D01*
X0363398Y0413945D01*
X0361263Y0413945D01*
X0361263Y0411810D01*
X0363398Y0411810D01*
X0364466Y0410742D02*
X0363398Y0409675D01*
X0361263Y0409675D01*
X0360195Y0410742D01*
X0366641Y0410742D02*
X0367708Y0409675D01*
X0369844Y0409675D01*
X0370911Y0410742D01*
X0373086Y0409675D02*
X0373086Y0413945D01*
X0373086Y0411810D02*
X0375221Y0413945D01*
X0376289Y0413945D01*
X0378458Y0412877D02*
X0378458Y0410742D01*
X0379525Y0409675D01*
X0381660Y0409675D01*
X0382728Y0410742D01*
X0382728Y0412877D01*
X0381660Y0413945D01*
X0379525Y0413945D01*
X0378458Y0412877D01*
X0384903Y0413945D02*
X0385971Y0413945D01*
X0387038Y0412877D01*
X0388106Y0413945D01*
X0389173Y0412877D01*
X0389173Y0409675D01*
X0387038Y0409675D02*
X0387038Y0412877D01*
X0384903Y0413945D02*
X0384903Y0409675D01*
X0391349Y0410742D02*
X0392416Y0409675D01*
X0395619Y0409675D01*
X0395619Y0413945D01*
X0397794Y0416080D02*
X0398862Y0416080D01*
X0398862Y0409675D01*
X0399929Y0409675D02*
X0397794Y0409675D01*
X0402091Y0410742D02*
X0403159Y0409675D01*
X0405294Y0409675D01*
X0406361Y0410742D01*
X0406361Y0412877D01*
X0405294Y0413945D01*
X0403159Y0413945D01*
X0402091Y0412877D01*
X0402091Y0410742D01*
X0408537Y0409675D02*
X0408537Y0413945D01*
X0411739Y0413945D01*
X0412807Y0412877D01*
X0412807Y0409675D01*
X0414982Y0409675D02*
X0418185Y0409675D01*
X0419252Y0410742D01*
X0419252Y0411810D01*
X0418185Y0412877D01*
X0414982Y0412877D01*
X0414982Y0409675D02*
X0414982Y0416080D01*
X0418185Y0416080D01*
X0419252Y0415013D01*
X0419252Y0413945D01*
X0418185Y0412877D01*
X0445187Y0413612D02*
X0448390Y0413612D01*
X0449457Y0413612D01*
X0449457Y0411476D02*
X0445187Y0411476D01*
X0446254Y0409341D02*
X0446254Y0415747D01*
X0448390Y0415747D02*
X0448390Y0409341D01*
X0451632Y0409341D02*
X0454835Y0409341D01*
X0455903Y0410409D01*
X0455903Y0411476D01*
X0454835Y0412544D01*
X0451632Y0412544D01*
X0451632Y0409341D02*
X0451632Y0415747D01*
X0454835Y0415747D01*
X0455903Y0414679D01*
X0455903Y0413612D01*
X0454835Y0412544D01*
X0458078Y0410409D02*
X0459145Y0411476D01*
X0462348Y0411476D01*
X0462348Y0412544D02*
X0462348Y0409341D01*
X0459145Y0409341D01*
X0458078Y0410409D01*
X0459145Y0413612D02*
X0461281Y0413612D01*
X0462348Y0412544D01*
X0464523Y0412544D02*
X0465591Y0413612D01*
X0468794Y0413612D01*
X0468794Y0415747D02*
X0468794Y0409341D01*
X0465591Y0409341D01*
X0464523Y0410409D01*
X0464523Y0412544D01*
X0470969Y0412544D02*
X0470969Y0410409D01*
X0472036Y0409341D01*
X0475239Y0409341D01*
X0475239Y0408274D02*
X0475239Y0413612D01*
X0472036Y0413612D01*
X0470969Y0412544D01*
X0473104Y0407206D02*
X0474172Y0407206D01*
X0475239Y0408274D01*
X0477414Y0410409D02*
X0477414Y0412544D01*
X0478482Y0413612D01*
X0480617Y0413612D01*
X0481685Y0412544D01*
X0481685Y0411476D01*
X0477414Y0411476D01*
X0477414Y0410409D02*
X0478482Y0409341D01*
X0480617Y0409341D01*
X0483860Y0409341D02*
X0483860Y0415747D01*
X0483860Y0409341D02*
X0488130Y0409341D01*
X0490305Y0409341D02*
X0492440Y0409341D01*
X0491373Y0409341D02*
X0491373Y0413612D01*
X0490305Y0413612D01*
X0491373Y0415747D02*
X0491373Y0416814D01*
X0495670Y0414679D02*
X0495670Y0409341D01*
X0494602Y0412544D02*
X0496737Y0412544D01*
X0498899Y0412544D02*
X0499967Y0413612D01*
X0502102Y0413612D01*
X0503170Y0412544D01*
X0503170Y0411476D01*
X0498899Y0411476D01*
X0498899Y0410409D02*
X0498899Y0412544D01*
X0498899Y0410409D02*
X0499967Y0409341D01*
X0502102Y0409341D01*
X0496737Y0415747D02*
X0495670Y0414679D01*
X0391349Y0413945D02*
X0391349Y0410742D01*
X0370911Y0415013D02*
X0369844Y0416080D01*
X0367708Y0416080D01*
X0366641Y0415013D01*
X0366641Y0410742D01*
D178*
X0045260Y0083074D02*
X0037261Y0085407D01*
X0033595Y0087074D01*
X0027262Y0091073D01*
X0021929Y0095406D01*
X0017596Y0100072D01*
X0014263Y0105405D01*
X0012263Y0109071D01*
X0011264Y0112071D01*
X0010597Y0113738D01*
X0010597Y0116737D01*
X0011930Y0117737D01*
X0014263Y0117737D01*
X0014263Y0393710D01*
X0013930Y0394043D01*
X0013928Y0394093D01*
X0013923Y0394142D01*
X0013913Y0394191D01*
X0013900Y0394240D01*
X0013884Y0394287D01*
X0013864Y0394332D01*
X0013841Y0394377D01*
X0013814Y0394419D01*
X0013784Y0394459D01*
X0013752Y0394497D01*
X0013717Y0394532D01*
X0013679Y0394564D01*
X0013639Y0394594D01*
X0013597Y0394621D01*
X0013552Y0394644D01*
X0013507Y0394664D01*
X0013460Y0394680D01*
X0013411Y0394693D01*
X0013362Y0394703D01*
X0013313Y0394708D01*
X0013263Y0394710D01*
X0013263Y0394709D02*
X0011597Y0394709D01*
X0011597Y0394710D02*
X0011562Y0394712D01*
X0011528Y0394717D01*
X0011494Y0394726D01*
X0011462Y0394739D01*
X0011431Y0394755D01*
X0011401Y0394774D01*
X0011374Y0394796D01*
X0011350Y0394820D01*
X0011328Y0394847D01*
X0011309Y0394877D01*
X0011293Y0394908D01*
X0011280Y0394940D01*
X0011271Y0394974D01*
X0011266Y0395008D01*
X0011264Y0395043D01*
X0011264Y0397376D01*
X0011266Y0397411D01*
X0011271Y0397445D01*
X0011280Y0397479D01*
X0011293Y0397511D01*
X0011309Y0397543D01*
X0011328Y0397572D01*
X0011350Y0397599D01*
X0011374Y0397623D01*
X0011401Y0397645D01*
X0011431Y0397664D01*
X0011462Y0397680D01*
X0011494Y0397693D01*
X0011528Y0397702D01*
X0011562Y0397707D01*
X0011597Y0397709D01*
X0011597Y0398042D01*
X0011599Y0398077D01*
X0011604Y0398111D01*
X0011613Y0398145D01*
X0011626Y0398177D01*
X0011642Y0398209D01*
X0011661Y0398238D01*
X0011683Y0398265D01*
X0011707Y0398289D01*
X0011734Y0398311D01*
X0011764Y0398330D01*
X0011795Y0398346D01*
X0011827Y0398359D01*
X0011861Y0398368D01*
X0011895Y0398373D01*
X0011930Y0398375D01*
X0011930Y0398376D02*
X0013263Y0400376D01*
X0014263Y0401375D01*
X0016930Y0404042D01*
X0018596Y0405375D01*
X0019929Y0406375D01*
X0021263Y0407375D01*
X0022929Y0408375D01*
X0024596Y0409708D01*
X0026262Y0410708D01*
X0028262Y0412041D01*
X0029928Y0413041D01*
X0032261Y0414374D01*
X0034595Y0415707D01*
X0036594Y0416707D01*
X0038927Y0417707D01*
X0041594Y0419040D01*
X0047927Y0421040D01*
X0052593Y0422373D01*
X0058925Y0423707D01*
X0072591Y0423707D01*
X0075924Y0423040D01*
X0079257Y0422040D01*
X0083256Y0420707D01*
X0086923Y0419374D01*
X0090589Y0418040D01*
X0093589Y0417041D01*
X0097922Y0415374D01*
X0103254Y0413708D01*
X0107921Y0412041D01*
X0112587Y0410375D01*
X0120586Y0408375D01*
X0131585Y0408375D01*
X0136251Y0409375D01*
X0139251Y0410375D01*
X0142584Y0411374D01*
X0148916Y0414041D01*
X0151250Y0415374D01*
X0154249Y0417041D01*
X0157582Y0418707D01*
X0159915Y0420040D01*
X0161249Y0421040D01*
X0162582Y0422040D01*
X0348896Y0422040D01*
X0349563Y0424373D01*
X0349896Y0425706D01*
X0350563Y0428706D01*
X0351230Y0431706D01*
X0351563Y0433039D01*
X0351896Y0434372D01*
X0352229Y0435705D01*
X0408557Y0435705D01*
X0408890Y0434705D01*
X0408890Y0429039D01*
X0409557Y0428706D01*
X0413890Y0428706D01*
X0414557Y0429039D01*
X0414557Y0434705D01*
X0414890Y0435705D01*
X0423556Y0435705D01*
X0423889Y0434705D01*
X0423889Y0428039D01*
X0424556Y0427040D01*
X0428555Y0427040D01*
X0429222Y0427373D01*
X0429222Y0435039D01*
X0429888Y0435705D01*
X0438554Y0435705D01*
X0438887Y0435039D01*
X0438887Y0426373D01*
X0439554Y0425373D01*
X0443887Y0425373D01*
X0444554Y0426373D01*
X0444554Y0434705D01*
X0444887Y0435705D01*
X0503548Y0435705D01*
X0506547Y0434705D01*
X0510214Y0433706D01*
X0512880Y0432372D01*
X0515546Y0430706D01*
X0517880Y0428706D01*
X0519213Y0427040D01*
X0521213Y0424040D01*
X0522212Y0421373D01*
X0523212Y0418374D01*
X0523879Y0412708D01*
X0523879Y0355047D01*
X0523546Y0354380D01*
X0522879Y0353714D01*
X0521879Y0353047D01*
X0509880Y0353047D01*
X0509547Y0352380D01*
X0509547Y0196729D01*
X0510880Y0196063D01*
X0512880Y0195396D01*
X0515880Y0194063D01*
X0518546Y0192730D01*
X0520213Y0191730D01*
X0523212Y0189730D01*
X0523879Y0189063D01*
X0523879Y0171732D01*
X0524546Y0171398D01*
X0525545Y0170732D01*
X0526545Y0170065D01*
X0528212Y0168399D01*
X0530545Y0166066D01*
X0532545Y0163733D01*
X0534878Y0160733D01*
X0536544Y0158400D01*
X0538211Y0155733D01*
X0540544Y0151400D01*
X0542210Y0148401D01*
X0543877Y0145068D01*
X0545210Y0142068D01*
X0546877Y0138402D01*
X0547877Y0134735D01*
X0548876Y0130736D01*
X0549543Y0125403D01*
X0549876Y0122737D01*
X0549543Y0107738D01*
X0549543Y0106072D01*
X0548876Y0101739D01*
X0548210Y0098739D01*
X0547210Y0093740D01*
X0544877Y0088073D01*
X0542210Y0083074D01*
X0539877Y0078074D01*
X0536544Y0073075D01*
X0533211Y0068742D01*
X0529878Y0064742D01*
X0524879Y0060076D01*
X0519879Y0056077D01*
X0514213Y0052077D01*
X0508214Y0049077D01*
X0499548Y0045078D01*
X0493215Y0043411D01*
X0484883Y0041745D01*
X0465551Y0041745D01*
X0461552Y0042411D01*
X0457552Y0043411D01*
X0450886Y0045078D01*
X0447220Y0046744D01*
X0443887Y0048411D01*
X0437221Y0051744D01*
X0432888Y0054743D01*
X0430222Y0057410D01*
X0403891Y0057410D01*
X0402558Y0058410D01*
X0400891Y0060743D01*
X0400558Y0062409D01*
X0400558Y0065409D01*
X0324232Y0065409D01*
X0322566Y0066742D01*
X0321233Y0069409D01*
X0321233Y0076408D01*
X0158582Y0076408D01*
X0157249Y0077408D01*
X0155582Y0078741D01*
X0153583Y0080741D01*
X0151916Y0082074D01*
X0151250Y0082407D01*
X0148916Y0084074D01*
X0147250Y0085074D01*
X0144917Y0086074D01*
X0140917Y0087407D01*
X0137918Y0088407D01*
X0134251Y0089073D01*
X0110254Y0089073D01*
X0104921Y0087740D01*
X0097255Y0086074D01*
X0090589Y0084740D01*
X0079257Y0083074D01*
X0067258Y0081407D01*
X0063925Y0081074D01*
X0059259Y0081074D01*
X0052593Y0081741D01*
X0045260Y0083074D01*
X0487883Y0205728D02*
X0488882Y0204062D01*
X0490549Y0202395D01*
X0493549Y0200729D01*
X0495882Y0200062D01*
X0497215Y0199729D01*
X0498548Y0199729D01*
X0498548Y0352714D01*
X0489882Y0352714D01*
X0488882Y0352047D01*
X0488216Y0351047D01*
X0487883Y0349714D01*
X0487883Y0205728D01*
X0494147Y0386377D02*
X0494150Y0386616D01*
X0494159Y0386855D01*
X0494173Y0387093D01*
X0494194Y0387331D01*
X0494220Y0387569D01*
X0494252Y0387805D01*
X0494290Y0388041D01*
X0494334Y0388276D01*
X0494384Y0388510D01*
X0494439Y0388742D01*
X0494500Y0388973D01*
X0494566Y0389203D01*
X0494638Y0389430D01*
X0494716Y0389656D01*
X0494799Y0389880D01*
X0494888Y0390102D01*
X0494982Y0390322D01*
X0495082Y0390539D01*
X0495186Y0390754D01*
X0495296Y0390966D01*
X0495412Y0391175D01*
X0495532Y0391381D01*
X0495657Y0391585D01*
X0495787Y0391785D01*
X0495923Y0391982D01*
X0496063Y0392176D01*
X0496207Y0392366D01*
X0496357Y0392552D01*
X0496510Y0392735D01*
X0496669Y0392914D01*
X0496831Y0393089D01*
X0496998Y0393260D01*
X0497169Y0393427D01*
X0497344Y0393589D01*
X0497523Y0393748D01*
X0497706Y0393901D01*
X0497892Y0394051D01*
X0498082Y0394195D01*
X0498276Y0394335D01*
X0498473Y0394471D01*
X0498673Y0394601D01*
X0498877Y0394726D01*
X0499083Y0394846D01*
X0499292Y0394962D01*
X0499504Y0395072D01*
X0499719Y0395176D01*
X0499936Y0395276D01*
X0500156Y0395370D01*
X0500378Y0395459D01*
X0500602Y0395542D01*
X0500828Y0395620D01*
X0501055Y0395692D01*
X0501285Y0395758D01*
X0501516Y0395819D01*
X0501748Y0395874D01*
X0501982Y0395924D01*
X0502217Y0395968D01*
X0502453Y0396006D01*
X0502689Y0396038D01*
X0502927Y0396064D01*
X0503165Y0396085D01*
X0503403Y0396099D01*
X0503642Y0396108D01*
X0503881Y0396111D01*
X0504120Y0396108D01*
X0504359Y0396099D01*
X0504597Y0396085D01*
X0504835Y0396064D01*
X0505073Y0396038D01*
X0505309Y0396006D01*
X0505545Y0395968D01*
X0505780Y0395924D01*
X0506014Y0395874D01*
X0506246Y0395819D01*
X0506477Y0395758D01*
X0506707Y0395692D01*
X0506934Y0395620D01*
X0507160Y0395542D01*
X0507384Y0395459D01*
X0507606Y0395370D01*
X0507826Y0395276D01*
X0508043Y0395176D01*
X0508258Y0395072D01*
X0508470Y0394962D01*
X0508679Y0394846D01*
X0508885Y0394726D01*
X0509089Y0394601D01*
X0509289Y0394471D01*
X0509486Y0394335D01*
X0509680Y0394195D01*
X0509870Y0394051D01*
X0510056Y0393901D01*
X0510239Y0393748D01*
X0510418Y0393589D01*
X0510593Y0393427D01*
X0510764Y0393260D01*
X0510931Y0393089D01*
X0511093Y0392914D01*
X0511252Y0392735D01*
X0511405Y0392552D01*
X0511555Y0392366D01*
X0511699Y0392176D01*
X0511839Y0391982D01*
X0511975Y0391785D01*
X0512105Y0391585D01*
X0512230Y0391381D01*
X0512350Y0391175D01*
X0512466Y0390966D01*
X0512576Y0390754D01*
X0512680Y0390539D01*
X0512780Y0390322D01*
X0512874Y0390102D01*
X0512963Y0389880D01*
X0513046Y0389656D01*
X0513124Y0389430D01*
X0513196Y0389203D01*
X0513262Y0388973D01*
X0513323Y0388742D01*
X0513378Y0388510D01*
X0513428Y0388276D01*
X0513472Y0388041D01*
X0513510Y0387805D01*
X0513542Y0387569D01*
X0513568Y0387331D01*
X0513589Y0387093D01*
X0513603Y0386855D01*
X0513612Y0386616D01*
X0513615Y0386377D01*
X0513612Y0386138D01*
X0513603Y0385899D01*
X0513589Y0385661D01*
X0513568Y0385423D01*
X0513542Y0385185D01*
X0513510Y0384949D01*
X0513472Y0384713D01*
X0513428Y0384478D01*
X0513378Y0384244D01*
X0513323Y0384012D01*
X0513262Y0383781D01*
X0513196Y0383551D01*
X0513124Y0383324D01*
X0513046Y0383098D01*
X0512963Y0382874D01*
X0512874Y0382652D01*
X0512780Y0382432D01*
X0512680Y0382215D01*
X0512576Y0382000D01*
X0512466Y0381788D01*
X0512350Y0381579D01*
X0512230Y0381373D01*
X0512105Y0381169D01*
X0511975Y0380969D01*
X0511839Y0380772D01*
X0511699Y0380578D01*
X0511555Y0380388D01*
X0511405Y0380202D01*
X0511252Y0380019D01*
X0511093Y0379840D01*
X0510931Y0379665D01*
X0510764Y0379494D01*
X0510593Y0379327D01*
X0510418Y0379165D01*
X0510239Y0379006D01*
X0510056Y0378853D01*
X0509870Y0378703D01*
X0509680Y0378559D01*
X0509486Y0378419D01*
X0509289Y0378283D01*
X0509089Y0378153D01*
X0508885Y0378028D01*
X0508679Y0377908D01*
X0508470Y0377792D01*
X0508258Y0377682D01*
X0508043Y0377578D01*
X0507826Y0377478D01*
X0507606Y0377384D01*
X0507384Y0377295D01*
X0507160Y0377212D01*
X0506934Y0377134D01*
X0506707Y0377062D01*
X0506477Y0376996D01*
X0506246Y0376935D01*
X0506014Y0376880D01*
X0505780Y0376830D01*
X0505545Y0376786D01*
X0505309Y0376748D01*
X0505073Y0376716D01*
X0504835Y0376690D01*
X0504597Y0376669D01*
X0504359Y0376655D01*
X0504120Y0376646D01*
X0503881Y0376643D01*
X0503642Y0376646D01*
X0503403Y0376655D01*
X0503165Y0376669D01*
X0502927Y0376690D01*
X0502689Y0376716D01*
X0502453Y0376748D01*
X0502217Y0376786D01*
X0501982Y0376830D01*
X0501748Y0376880D01*
X0501516Y0376935D01*
X0501285Y0376996D01*
X0501055Y0377062D01*
X0500828Y0377134D01*
X0500602Y0377212D01*
X0500378Y0377295D01*
X0500156Y0377384D01*
X0499936Y0377478D01*
X0499719Y0377578D01*
X0499504Y0377682D01*
X0499292Y0377792D01*
X0499083Y0377908D01*
X0498877Y0378028D01*
X0498673Y0378153D01*
X0498473Y0378283D01*
X0498276Y0378419D01*
X0498082Y0378559D01*
X0497892Y0378703D01*
X0497706Y0378853D01*
X0497523Y0379006D01*
X0497344Y0379165D01*
X0497169Y0379327D01*
X0496998Y0379494D01*
X0496831Y0379665D01*
X0496669Y0379840D01*
X0496510Y0380019D01*
X0496357Y0380202D01*
X0496207Y0380388D01*
X0496063Y0380578D01*
X0495923Y0380772D01*
X0495787Y0380969D01*
X0495657Y0381169D01*
X0495532Y0381373D01*
X0495412Y0381579D01*
X0495296Y0381788D01*
X0495186Y0382000D01*
X0495082Y0382215D01*
X0494982Y0382432D01*
X0494888Y0382652D01*
X0494799Y0382874D01*
X0494716Y0383098D01*
X0494638Y0383324D01*
X0494566Y0383551D01*
X0494500Y0383781D01*
X0494439Y0384012D01*
X0494384Y0384244D01*
X0494334Y0384478D01*
X0494290Y0384713D01*
X0494252Y0384949D01*
X0494220Y0385185D01*
X0494194Y0385423D01*
X0494173Y0385661D01*
X0494159Y0385899D01*
X0494150Y0386138D01*
X0494147Y0386377D01*
X0495006Y0386377D02*
X0495009Y0386595D01*
X0495017Y0386812D01*
X0495030Y0387030D01*
X0495049Y0387247D01*
X0495073Y0387463D01*
X0495102Y0387679D01*
X0495137Y0387894D01*
X0495177Y0388108D01*
X0495222Y0388322D01*
X0495272Y0388533D01*
X0495327Y0388744D01*
X0495388Y0388953D01*
X0495454Y0389161D01*
X0495525Y0389367D01*
X0495601Y0389571D01*
X0495682Y0389773D01*
X0495767Y0389974D01*
X0495858Y0390172D01*
X0495954Y0390367D01*
X0496054Y0390561D01*
X0496159Y0390751D01*
X0496269Y0390940D01*
X0496383Y0391125D01*
X0496502Y0391308D01*
X0496625Y0391487D01*
X0496753Y0391664D01*
X0496884Y0391837D01*
X0497021Y0392007D01*
X0497161Y0392174D01*
X0497305Y0392337D01*
X0497453Y0392497D01*
X0497605Y0392653D01*
X0497761Y0392805D01*
X0497921Y0392953D01*
X0498084Y0393097D01*
X0498251Y0393237D01*
X0498421Y0393374D01*
X0498594Y0393505D01*
X0498771Y0393633D01*
X0498950Y0393756D01*
X0499133Y0393875D01*
X0499318Y0393989D01*
X0499507Y0394099D01*
X0499697Y0394204D01*
X0499891Y0394304D01*
X0500086Y0394400D01*
X0500284Y0394491D01*
X0500485Y0394576D01*
X0500687Y0394657D01*
X0500891Y0394733D01*
X0501097Y0394804D01*
X0501305Y0394870D01*
X0501514Y0394931D01*
X0501725Y0394986D01*
X0501936Y0395036D01*
X0502150Y0395081D01*
X0502364Y0395121D01*
X0502579Y0395156D01*
X0502795Y0395185D01*
X0503011Y0395209D01*
X0503228Y0395228D01*
X0503446Y0395241D01*
X0503663Y0395249D01*
X0503881Y0395252D01*
X0504099Y0395249D01*
X0504316Y0395241D01*
X0504534Y0395228D01*
X0504751Y0395209D01*
X0504967Y0395185D01*
X0505183Y0395156D01*
X0505398Y0395121D01*
X0505612Y0395081D01*
X0505826Y0395036D01*
X0506037Y0394986D01*
X0506248Y0394931D01*
X0506457Y0394870D01*
X0506665Y0394804D01*
X0506871Y0394733D01*
X0507075Y0394657D01*
X0507277Y0394576D01*
X0507478Y0394491D01*
X0507676Y0394400D01*
X0507871Y0394304D01*
X0508065Y0394204D01*
X0508255Y0394099D01*
X0508444Y0393989D01*
X0508629Y0393875D01*
X0508812Y0393756D01*
X0508991Y0393633D01*
X0509168Y0393505D01*
X0509341Y0393374D01*
X0509511Y0393237D01*
X0509678Y0393097D01*
X0509841Y0392953D01*
X0510001Y0392805D01*
X0510157Y0392653D01*
X0510309Y0392497D01*
X0510457Y0392337D01*
X0510601Y0392174D01*
X0510741Y0392007D01*
X0510878Y0391837D01*
X0511009Y0391664D01*
X0511137Y0391487D01*
X0511260Y0391308D01*
X0511379Y0391125D01*
X0511493Y0390940D01*
X0511603Y0390751D01*
X0511708Y0390561D01*
X0511808Y0390367D01*
X0511904Y0390172D01*
X0511995Y0389974D01*
X0512080Y0389773D01*
X0512161Y0389571D01*
X0512237Y0389367D01*
X0512308Y0389161D01*
X0512374Y0388953D01*
X0512435Y0388744D01*
X0512490Y0388533D01*
X0512540Y0388322D01*
X0512585Y0388108D01*
X0512625Y0387894D01*
X0512660Y0387679D01*
X0512689Y0387463D01*
X0512713Y0387247D01*
X0512732Y0387030D01*
X0512745Y0386812D01*
X0512753Y0386595D01*
X0512756Y0386377D01*
X0512753Y0386159D01*
X0512745Y0385942D01*
X0512732Y0385724D01*
X0512713Y0385507D01*
X0512689Y0385291D01*
X0512660Y0385075D01*
X0512625Y0384860D01*
X0512585Y0384646D01*
X0512540Y0384432D01*
X0512490Y0384221D01*
X0512435Y0384010D01*
X0512374Y0383801D01*
X0512308Y0383593D01*
X0512237Y0383387D01*
X0512161Y0383183D01*
X0512080Y0382981D01*
X0511995Y0382780D01*
X0511904Y0382582D01*
X0511808Y0382387D01*
X0511708Y0382193D01*
X0511603Y0382003D01*
X0511493Y0381814D01*
X0511379Y0381629D01*
X0511260Y0381446D01*
X0511137Y0381267D01*
X0511009Y0381090D01*
X0510878Y0380917D01*
X0510741Y0380747D01*
X0510601Y0380580D01*
X0510457Y0380417D01*
X0510309Y0380257D01*
X0510157Y0380101D01*
X0510001Y0379949D01*
X0509841Y0379801D01*
X0509678Y0379657D01*
X0509511Y0379517D01*
X0509341Y0379380D01*
X0509168Y0379249D01*
X0508991Y0379121D01*
X0508812Y0378998D01*
X0508629Y0378879D01*
X0508444Y0378765D01*
X0508255Y0378655D01*
X0508065Y0378550D01*
X0507871Y0378450D01*
X0507676Y0378354D01*
X0507478Y0378263D01*
X0507277Y0378178D01*
X0507075Y0378097D01*
X0506871Y0378021D01*
X0506665Y0377950D01*
X0506457Y0377884D01*
X0506248Y0377823D01*
X0506037Y0377768D01*
X0505826Y0377718D01*
X0505612Y0377673D01*
X0505398Y0377633D01*
X0505183Y0377598D01*
X0504967Y0377569D01*
X0504751Y0377545D01*
X0504534Y0377526D01*
X0504316Y0377513D01*
X0504099Y0377505D01*
X0503881Y0377502D01*
X0503663Y0377505D01*
X0503446Y0377513D01*
X0503228Y0377526D01*
X0503011Y0377545D01*
X0502795Y0377569D01*
X0502579Y0377598D01*
X0502364Y0377633D01*
X0502150Y0377673D01*
X0501936Y0377718D01*
X0501725Y0377768D01*
X0501514Y0377823D01*
X0501305Y0377884D01*
X0501097Y0377950D01*
X0500891Y0378021D01*
X0500687Y0378097D01*
X0500485Y0378178D01*
X0500284Y0378263D01*
X0500086Y0378354D01*
X0499891Y0378450D01*
X0499697Y0378550D01*
X0499507Y0378655D01*
X0499318Y0378765D01*
X0499133Y0378879D01*
X0498950Y0378998D01*
X0498771Y0379121D01*
X0498594Y0379249D01*
X0498421Y0379380D01*
X0498251Y0379517D01*
X0498084Y0379657D01*
X0497921Y0379801D01*
X0497761Y0379949D01*
X0497605Y0380101D01*
X0497453Y0380257D01*
X0497305Y0380417D01*
X0497161Y0380580D01*
X0497021Y0380747D01*
X0496884Y0380917D01*
X0496753Y0381090D01*
X0496625Y0381267D01*
X0496502Y0381446D01*
X0496383Y0381629D01*
X0496269Y0381814D01*
X0496159Y0382003D01*
X0496054Y0382193D01*
X0495954Y0382387D01*
X0495858Y0382582D01*
X0495767Y0382780D01*
X0495682Y0382981D01*
X0495601Y0383183D01*
X0495525Y0383387D01*
X0495454Y0383593D01*
X0495388Y0383801D01*
X0495327Y0384010D01*
X0495272Y0384221D01*
X0495222Y0384432D01*
X0495177Y0384646D01*
X0495137Y0384860D01*
X0495102Y0385075D01*
X0495073Y0385291D01*
X0495049Y0385507D01*
X0495030Y0385724D01*
X0495017Y0385942D01*
X0495009Y0386159D01*
X0495006Y0386377D01*
D179*
X0212024Y0348391D03*
X0210055Y0348391D03*
X0208087Y0348391D03*
X0206118Y0348391D03*
X0204150Y0348391D03*
X0202181Y0348391D03*
X0200213Y0348391D03*
X0200213Y0328509D03*
X0202181Y0328509D03*
X0204150Y0328509D03*
X0206118Y0328509D03*
X0208087Y0328509D03*
X0210055Y0328509D03*
X0212024Y0328509D03*
D180*
X0214396Y0346727D03*
D181*
X0206118Y0338450D03*
D182*
X0196178Y0338450D03*
X0196178Y0340418D03*
X0196178Y0342387D03*
X0196178Y0344355D03*
X0196178Y0336481D03*
X0196178Y0334513D03*
X0196178Y0332544D03*
X0216059Y0332544D03*
X0216059Y0334513D03*
X0216059Y0336481D03*
X0216059Y0338450D03*
X0216059Y0340418D03*
X0216059Y0342387D03*
X0216059Y0344355D03*
D183*
X0212321Y0414480D03*
X0206219Y0414480D03*
D184*
X0206711Y0402276D03*
X0204152Y0402276D03*
X0209270Y0402276D03*
X0211829Y0402276D03*
X0214388Y0402276D03*
D185*
X0220884Y0414480D03*
X0197656Y0414480D03*
D186*
X0199428Y0405425D03*
X0219113Y0405425D03*
D187*
X0188599Y0356560D03*
X0181118Y0356560D03*
X0254349Y0317190D03*
X0261829Y0317190D03*
X0265373Y0280576D03*
X0257892Y0280576D03*
X0198440Y0175493D03*
X0190959Y0175493D03*
X0114192Y0234513D03*
X0106711Y0234513D03*
X0056711Y0272308D03*
X0049231Y0272308D03*
X0049231Y0279788D03*
X0056711Y0279788D03*
D188*
X0219900Y0362465D03*
X0230924Y0362465D03*
D189*
X0229940Y0355379D03*
X0220884Y0355379D03*
X0253562Y0344749D03*
X0262617Y0344749D03*
X0139388Y0353804D03*
X0130333Y0353804D03*
D190*
X0199625Y0314040D03*
X0207105Y0314040D03*
X0214585Y0313253D03*
X0222066Y0313253D03*
X0218325Y0304985D03*
X0203365Y0322308D03*
X0254349Y0351442D03*
X0261829Y0351442D03*
X0258089Y0359709D03*
X0108680Y0262465D03*
X0101199Y0262465D03*
X0104940Y0254198D03*
X0108680Y0248686D03*
X0101199Y0248686D03*
X0104940Y0240418D03*
D191*
X0115963Y0242583D03*
X0115963Y0249276D03*
X0124288Y0254911D03*
X0124288Y0261604D03*
X0076593Y0272505D03*
X0076593Y0279198D03*
X0069900Y0279198D03*
X0063601Y0279198D03*
X0063601Y0272505D03*
X0069900Y0272505D03*
X0133089Y0310103D03*
X0139782Y0310103D03*
X0138207Y0341206D03*
X0143847Y0341144D03*
X0143847Y0347837D03*
X0138207Y0347505D03*
X0131514Y0347505D03*
X0131514Y0341206D03*
X0168126Y0343961D03*
X0174819Y0343961D03*
X0181118Y0343961D03*
X0187811Y0343961D03*
X0197457Y0354788D03*
X0197457Y0361481D03*
X0230727Y0348686D03*
X0237420Y0348686D03*
X0237420Y0329394D03*
X0230727Y0329394D03*
X0221672Y0319158D03*
X0214979Y0319158D03*
X0206711Y0308135D03*
X0200018Y0308135D03*
X0228365Y0311284D03*
X0235058Y0311284D03*
X0235058Y0299080D03*
X0235058Y0292387D03*
X0228365Y0292387D03*
X0228365Y0299080D03*
X0272066Y0279394D03*
X0278758Y0279394D03*
X0288010Y0288646D03*
X0288010Y0295339D03*
X0313365Y0283607D03*
X0313365Y0276914D03*
X0308483Y0275261D03*
X0308483Y0268568D03*
X0290176Y0253804D03*
X0283483Y0253804D03*
X0197834Y0191216D03*
X0191141Y0191216D03*
X0176492Y0192085D03*
X0176492Y0198778D03*
X0384893Y0370032D03*
X0384893Y0376725D03*
X0422556Y0377058D03*
X0422556Y0370365D03*
X0441554Y0370032D03*
X0441554Y0376725D03*
X0425222Y0106752D03*
X0425222Y0100059D03*
X0471551Y0080088D03*
X0471551Y0073395D03*
X0499215Y0073395D03*
X0499215Y0080088D03*
D192*
X0517533Y0114071D03*
X0524226Y0114071D03*
X0517893Y0141401D03*
X0511200Y0141401D03*
X0487563Y0169399D03*
X0480870Y0169399D03*
X0469564Y0131069D03*
X0462872Y0131069D03*
X0432235Y0119737D03*
X0425542Y0119737D03*
X0318246Y0136735D03*
X0318246Y0142735D03*
X0311553Y0142735D03*
X0311553Y0136735D03*
X0237617Y0222505D03*
X0237617Y0229198D03*
X0255924Y0274276D03*
X0262617Y0274276D03*
X0287026Y0281757D03*
X0293719Y0281757D03*
X0294113Y0262072D03*
X0287420Y0262072D03*
X0299034Y0256363D03*
X0299034Y0249670D03*
X0318916Y0254198D03*
X0318916Y0260497D03*
X0325609Y0260497D03*
X0325609Y0254198D03*
X0325609Y0266796D03*
X0325609Y0271520D03*
X0318916Y0271520D03*
X0318916Y0266796D03*
X0318562Y0276757D03*
X0318562Y0283450D03*
X0319310Y0294355D03*
X0326003Y0294355D03*
X0326003Y0301442D03*
X0319310Y0301442D03*
X0295491Y0302426D03*
X0295491Y0309119D03*
X0261436Y0324276D03*
X0254743Y0324276D03*
X0247066Y0344946D03*
X0247066Y0351639D03*
X0235058Y0304985D03*
X0228365Y0304985D03*
X0190370Y0331166D03*
X0183678Y0331166D03*
X0183678Y0337859D03*
X0190370Y0337859D03*
X0188205Y0349867D03*
X0181512Y0349867D03*
X0174819Y0349867D03*
X0168126Y0349867D03*
X0138151Y0360502D03*
X0131458Y0360502D03*
X0115176Y0279198D03*
X0108877Y0279198D03*
X0108877Y0272505D03*
X0115176Y0272505D03*
X0129152Y0272308D03*
X0135845Y0272308D03*
X0102577Y0272505D03*
X0102577Y0279198D03*
X0082892Y0279198D03*
X0082892Y0272505D03*
X0093129Y0261087D03*
X0093129Y0254394D03*
X0092735Y0248095D03*
X0092735Y0241402D03*
X0092932Y0234513D03*
X0099625Y0234513D03*
X0172866Y0159976D03*
X0172866Y0153283D03*
X0191178Y0182217D03*
X0197871Y0182217D03*
X0424542Y0324383D03*
X0431235Y0324383D03*
D193*
X0305924Y0309020D03*
X0300806Y0309020D03*
X0303365Y0301737D03*
D194*
X0301790Y0276442D03*
X0294310Y0276442D03*
X0286436Y0276442D03*
X0286436Y0267387D03*
X0294310Y0267387D03*
X0301790Y0267387D03*
D195*
X0277774Y0295339D03*
X0270688Y0295339D03*
X0270688Y0302820D03*
X0277774Y0302820D03*
X0262026Y0299276D03*
X0262026Y0306757D03*
X0273110Y0226317D03*
X0273110Y0218836D03*
D196*
X0345806Y0253883D03*
X0345806Y0314355D03*
D197*
X0338010Y0306757D03*
X0338010Y0304788D03*
X0338010Y0302820D03*
X0338010Y0300851D03*
X0338010Y0298883D03*
X0338010Y0296914D03*
X0338010Y0294946D03*
X0338010Y0292977D03*
X0338010Y0291009D03*
X0338010Y0289040D03*
X0338010Y0287072D03*
X0338010Y0285103D03*
X0338010Y0283135D03*
X0338010Y0281166D03*
X0338010Y0279198D03*
X0338010Y0277229D03*
X0338010Y0275261D03*
X0338010Y0273292D03*
X0338010Y0271324D03*
X0338010Y0269355D03*
X0338010Y0267387D03*
X0338010Y0265418D03*
X0338010Y0263450D03*
X0338010Y0261481D03*
D198*
X0307302Y0291206D03*
X0294703Y0291206D03*
D199*
X0270097Y0312072D03*
X0270097Y0321127D03*
X0270097Y0330182D03*
D200*
X0294900Y0321127D03*
D201*
X0083680Y0256757D03*
X0083680Y0234316D03*
D202*
X0031908Y0263056D03*
X0027971Y0211284D03*
D203*
X0043129Y0229631D03*
X0044703Y0233961D03*
X0043129Y0238292D03*
X0042341Y0242623D03*
X0043129Y0246954D03*
X0042341Y0251284D03*
X0043129Y0255615D03*
X0043129Y0259946D03*
D204*
X0175607Y0332438D02*
X0178363Y0332438D01*
X0178363Y0329682D01*
X0175607Y0329682D01*
X0175607Y0332438D01*
X0175607Y0330862D02*
X0178363Y0330862D01*
X0178363Y0332042D02*
X0175607Y0332042D01*
X0175607Y0339343D02*
X0178363Y0339343D01*
X0178363Y0336587D01*
X0175607Y0336587D01*
X0175607Y0339343D01*
X0175607Y0337767D02*
X0178363Y0337767D01*
X0178363Y0338947D02*
X0175607Y0338947D01*
X0231999Y0337859D02*
X0231999Y0335103D01*
X0229243Y0335103D01*
X0229243Y0337859D01*
X0231999Y0337859D01*
X0231999Y0336283D02*
X0229243Y0336283D01*
X0229243Y0337463D02*
X0231999Y0337463D01*
X0231999Y0341009D02*
X0231999Y0343765D01*
X0231999Y0341009D02*
X0229243Y0341009D01*
X0229243Y0343765D01*
X0231999Y0343765D01*
X0231999Y0342189D02*
X0229243Y0342189D01*
X0229243Y0343369D02*
X0231999Y0343369D01*
X0238904Y0343765D02*
X0238904Y0341009D01*
X0236148Y0341009D01*
X0236148Y0343765D01*
X0238904Y0343765D01*
X0238904Y0342189D02*
X0236148Y0342189D01*
X0236148Y0343369D02*
X0238904Y0343369D01*
X0238904Y0337859D02*
X0238904Y0335103D01*
X0236148Y0335103D01*
X0236148Y0337859D01*
X0238904Y0337859D01*
X0238904Y0336283D02*
X0236148Y0336283D01*
X0236148Y0337463D02*
X0238904Y0337463D01*
D205*
X0230302Y0325220D02*
X0229639Y0325398D01*
X0228955Y0325457D01*
X0228272Y0325398D01*
X0227609Y0325220D01*
X0226987Y0324930D01*
X0226425Y0324536D01*
X0225939Y0324051D01*
X0225546Y0323489D01*
X0225256Y0322867D01*
X0225078Y0322204D01*
X0225018Y0321520D01*
X0225078Y0320837D01*
X0225256Y0320174D01*
X0225546Y0319552D01*
X0225939Y0318990D01*
X0226425Y0318505D01*
X0226987Y0318111D01*
X0227609Y0317821D01*
X0228272Y0317643D01*
X0228955Y0317583D01*
X0229639Y0317643D01*
X0230302Y0317821D01*
X0230924Y0318111D01*
X0231486Y0318505D01*
X0231971Y0318990D01*
X0232365Y0319552D01*
X0232655Y0320174D01*
X0232833Y0320837D01*
X0232892Y0321520D01*
X0232833Y0322204D01*
X0232655Y0322867D01*
X0232365Y0323489D01*
X0231971Y0324051D01*
X0231486Y0324536D01*
X0230924Y0324930D01*
X0230302Y0325220D01*
X0230562Y0325099D02*
X0227349Y0325099D01*
X0226516Y0324600D02*
X0231395Y0324600D01*
X0231920Y0324102D02*
X0225990Y0324102D01*
X0225626Y0323603D02*
X0232285Y0323603D01*
X0232544Y0323105D02*
X0225367Y0323105D01*
X0225186Y0322606D02*
X0232725Y0322606D01*
X0232841Y0322108D02*
X0225070Y0322108D01*
X0225026Y0321609D02*
X0232885Y0321609D01*
X0232856Y0321111D02*
X0225054Y0321111D01*
X0225138Y0320612D02*
X0232772Y0320612D01*
X0232627Y0320114D02*
X0225284Y0320114D01*
X0225516Y0319615D02*
X0232394Y0319615D01*
X0232060Y0319117D02*
X0225851Y0319117D01*
X0226311Y0318618D02*
X0231600Y0318618D01*
X0230936Y0318120D02*
X0226974Y0318120D01*
X0228524Y0317621D02*
X0229387Y0317621D01*
X0192116Y0361812D02*
X0192601Y0362297D01*
X0192995Y0362859D01*
X0193285Y0363481D01*
X0193462Y0364144D01*
X0193522Y0364828D01*
X0193462Y0365511D01*
X0193285Y0366174D01*
X0192995Y0366796D01*
X0192601Y0367358D01*
X0192116Y0367843D01*
X0191554Y0368237D01*
X0190932Y0368527D01*
X0190269Y0368705D01*
X0189585Y0368765D01*
X0188902Y0368705D01*
X0188239Y0368527D01*
X0187617Y0368237D01*
X0187055Y0367843D01*
X0186569Y0367358D01*
X0186176Y0366796D01*
X0185886Y0366174D01*
X0185708Y0365511D01*
X0185648Y0364828D01*
X0185708Y0364144D01*
X0185886Y0363481D01*
X0186176Y0362859D01*
X0186569Y0362297D01*
X0187055Y0361812D01*
X0187617Y0361418D01*
X0188239Y0361128D01*
X0188902Y0360950D01*
X0189585Y0360891D01*
X0190269Y0360950D01*
X0190932Y0361128D01*
X0191554Y0361418D01*
X0192116Y0361812D01*
X0192293Y0361989D02*
X0186877Y0361989D01*
X0186436Y0362487D02*
X0192734Y0362487D01*
X0193054Y0362986D02*
X0186117Y0362986D01*
X0185885Y0363484D02*
X0193286Y0363484D01*
X0193419Y0363983D02*
X0185751Y0363983D01*
X0185679Y0364481D02*
X0193492Y0364481D01*
X0193509Y0364980D02*
X0185662Y0364980D01*
X0185705Y0365478D02*
X0193465Y0365478D01*
X0193338Y0365977D02*
X0185833Y0365977D01*
X0186026Y0366475D02*
X0193144Y0366475D01*
X0192870Y0366974D02*
X0186300Y0366974D01*
X0186683Y0367472D02*
X0192487Y0367472D01*
X0191934Y0367971D02*
X0187237Y0367971D01*
X0188115Y0368469D02*
X0191056Y0368469D01*
X0191657Y0361490D02*
X0187514Y0361490D01*
X0188747Y0360992D02*
X0190423Y0360992D01*
X0067538Y0370339D02*
X0067478Y0369656D01*
X0067301Y0368993D01*
X0067011Y0368371D01*
X0066617Y0367809D01*
X0066132Y0367323D01*
X0065570Y0366930D01*
X0064948Y0366640D01*
X0064285Y0366462D01*
X0063601Y0366402D01*
X0062917Y0366462D01*
X0062254Y0366640D01*
X0061632Y0366930D01*
X0061070Y0367323D01*
X0060585Y0367809D01*
X0060191Y0368371D01*
X0059901Y0368993D01*
X0059724Y0369656D01*
X0059664Y0370339D01*
X0059724Y0371023D01*
X0059901Y0371686D01*
X0060191Y0372308D01*
X0060585Y0372870D01*
X0061070Y0373355D01*
X0061632Y0373749D01*
X0062254Y0374039D01*
X0062917Y0374217D01*
X0063601Y0374276D01*
X0064285Y0374217D01*
X0064948Y0374039D01*
X0065570Y0373749D01*
X0066132Y0373355D01*
X0066617Y0372870D01*
X0067011Y0372308D01*
X0067301Y0371686D01*
X0067478Y0371023D01*
X0067538Y0370339D01*
X0067527Y0370463D02*
X0059675Y0370463D01*
X0059697Y0369965D02*
X0067505Y0369965D01*
X0067427Y0369466D02*
X0059775Y0369466D01*
X0059913Y0368968D02*
X0067289Y0368968D01*
X0067056Y0368469D02*
X0060145Y0368469D01*
X0060472Y0367971D02*
X0066730Y0367971D01*
X0066281Y0367472D02*
X0060921Y0367472D01*
X0061570Y0366974D02*
X0065632Y0366974D01*
X0064334Y0366475D02*
X0062868Y0366475D01*
X0059718Y0370962D02*
X0067484Y0370962D01*
X0067361Y0371460D02*
X0059841Y0371460D01*
X0060029Y0371959D02*
X0067173Y0371959D01*
X0066906Y0372457D02*
X0060296Y0372457D01*
X0060671Y0372956D02*
X0066531Y0372956D01*
X0065990Y0373455D02*
X0061212Y0373455D01*
X0062070Y0373953D02*
X0065132Y0373953D01*
X0359404Y0220733D02*
X0359114Y0220111D01*
X0358936Y0219448D01*
X0358877Y0218765D01*
X0358936Y0218081D01*
X0359114Y0217418D01*
X0359404Y0216796D01*
X0359798Y0216234D01*
X0360283Y0215749D01*
X0360845Y0215355D01*
X0361467Y0215065D01*
X0362130Y0214887D01*
X0362814Y0214828D01*
X0363497Y0214887D01*
X0364160Y0215065D01*
X0364782Y0215355D01*
X0365344Y0215749D01*
X0365830Y0216234D01*
X0366223Y0216796D01*
X0366513Y0217418D01*
X0366691Y0218081D01*
X0366751Y0218765D01*
X0366691Y0219448D01*
X0366513Y0220111D01*
X0366223Y0220733D01*
X0365830Y0221295D01*
X0365344Y0221780D01*
X0364782Y0222174D01*
X0364160Y0222464D01*
X0363497Y0222642D01*
X0362814Y0222702D01*
X0362130Y0222642D01*
X0361467Y0222464D01*
X0360845Y0222174D01*
X0360283Y0221780D01*
X0359798Y0221295D01*
X0359404Y0220733D01*
X0359528Y0220910D02*
X0366099Y0220910D01*
X0366373Y0220412D02*
X0359254Y0220412D01*
X0359061Y0219913D02*
X0366566Y0219913D01*
X0366694Y0219415D02*
X0358933Y0219415D01*
X0358890Y0218916D02*
X0366737Y0218916D01*
X0366720Y0218417D02*
X0358907Y0218417D01*
X0358980Y0217919D02*
X0366647Y0217919D01*
X0366514Y0217420D02*
X0359113Y0217420D01*
X0359345Y0216922D02*
X0366282Y0216922D01*
X0365962Y0216423D02*
X0359665Y0216423D01*
X0360107Y0215925D02*
X0365521Y0215925D01*
X0364884Y0215426D02*
X0360743Y0215426D01*
X0361979Y0214928D02*
X0363648Y0214928D01*
X0365716Y0221409D02*
X0359911Y0221409D01*
X0360464Y0221907D02*
X0365163Y0221907D01*
X0364286Y0222406D02*
X0361341Y0222406D01*
X0364782Y0368371D02*
X0365466Y0368431D01*
X0366129Y0368608D01*
X0366751Y0368898D01*
X0367313Y0369292D01*
X0367798Y0369777D01*
X0368192Y0370339D01*
X0368482Y0370961D01*
X0368659Y0371624D01*
X0368719Y0372308D01*
X0368659Y0372992D01*
X0368482Y0373654D01*
X0368192Y0374276D01*
X0367798Y0374839D01*
X0367313Y0375324D01*
X0366751Y0375717D01*
X0366129Y0376007D01*
X0365466Y0376185D01*
X0364782Y0376245D01*
X0364098Y0376185D01*
X0363436Y0376007D01*
X0362814Y0375717D01*
X0362251Y0375324D01*
X0361766Y0374839D01*
X0361373Y0374276D01*
X0361083Y0373654D01*
X0360905Y0372992D01*
X0360845Y0372308D01*
X0360905Y0371624D01*
X0361083Y0370961D01*
X0361373Y0370339D01*
X0361766Y0369777D01*
X0362251Y0369292D01*
X0362814Y0368898D01*
X0363436Y0368608D01*
X0364098Y0368431D01*
X0364782Y0368371D01*
X0363954Y0368469D02*
X0365610Y0368469D01*
X0366850Y0368968D02*
X0362714Y0368968D01*
X0362077Y0369466D02*
X0367487Y0369466D01*
X0367929Y0369965D02*
X0361635Y0369965D01*
X0361315Y0370463D02*
X0368249Y0370463D01*
X0368482Y0370962D02*
X0361082Y0370962D01*
X0360949Y0371460D02*
X0368615Y0371460D01*
X0368689Y0371959D02*
X0360876Y0371959D01*
X0360858Y0372457D02*
X0368706Y0372457D01*
X0368662Y0372956D02*
X0360902Y0372956D01*
X0361029Y0373455D02*
X0368535Y0373455D01*
X0368342Y0373953D02*
X0361222Y0373953D01*
X0361495Y0374452D02*
X0368069Y0374452D01*
X0367687Y0374950D02*
X0361878Y0374950D01*
X0362430Y0375449D02*
X0367135Y0375449D01*
X0366258Y0375947D02*
X0363306Y0375947D01*
D206*
X0117223Y0361206D03*
X0112223Y0361206D03*
X0107223Y0361206D03*
X0102223Y0361206D03*
X0097223Y0361206D03*
X0092223Y0361206D03*
X0087223Y0361206D03*
X0082223Y0361206D03*
X0077223Y0361206D03*
X0072223Y0361206D03*
X0067223Y0361206D03*
X0062223Y0361206D03*
X0057223Y0361206D03*
X0052223Y0361206D03*
X0052223Y0287583D03*
X0057223Y0287583D03*
X0062223Y0287583D03*
X0067223Y0287583D03*
X0072223Y0287583D03*
X0077223Y0287583D03*
X0082223Y0287583D03*
X0087223Y0287583D03*
X0092223Y0287583D03*
X0097223Y0287583D03*
X0102223Y0287583D03*
X0107223Y0287583D03*
X0112223Y0287583D03*
X0117223Y0287583D03*
D207*
X0124310Y0301875D03*
X0124310Y0306875D03*
X0124310Y0311875D03*
X0124310Y0316875D03*
X0124310Y0321875D03*
X0124310Y0326875D03*
X0124310Y0331875D03*
X0124310Y0336875D03*
X0124310Y0341875D03*
X0124310Y0346875D03*
D208*
X0082499Y0323883D03*
D209*
X0247066Y0274276D03*
X0247066Y0263253D03*
D210*
X0289585Y0234513D03*
X0289585Y0226639D03*
X0289585Y0218765D03*
D211*
X0314192Y0209513D03*
X0314192Y0243765D03*
X0314192Y0243765D03*
D212*
X0185648Y0204521D03*
X0177251Y0204549D03*
X0169530Y0204415D03*
D213*
X0166774Y0284493D03*
X0166774Y0299493D03*
X0188774Y0299493D03*
X0198664Y0299493D03*
X0198664Y0284493D03*
X0188774Y0284493D03*
X0220664Y0284493D03*
X0220664Y0299493D03*
D214*
X0224270Y0274670D03*
X0234270Y0274670D03*
X0214270Y0274670D03*
X0204270Y0274670D03*
X0194270Y0274670D03*
X0184270Y0274670D03*
X0184270Y0249473D03*
X0194270Y0249473D03*
X0204270Y0249473D03*
X0214270Y0249473D03*
X0224270Y0249473D03*
X0234270Y0249473D03*
D215*
X0234270Y0257072D03*
X0224270Y0257072D03*
X0224270Y0267072D03*
X0234270Y0267072D03*
X0214270Y0267072D03*
X0204270Y0267072D03*
X0194270Y0267072D03*
X0184270Y0267072D03*
X0184270Y0257072D03*
X0194270Y0257072D03*
X0204270Y0257072D03*
X0214270Y0257072D03*
D216*
X0255707Y0267721D03*
X0260707Y0267721D03*
X0265707Y0267721D03*
X0270707Y0267721D03*
X0270707Y0243824D03*
X0265707Y0243824D03*
X0260707Y0243824D03*
X0255707Y0243824D03*
D217*
X0263207Y0255772D03*
D218*
X0310451Y0254788D03*
X0310451Y0251245D03*
D219*
G36*
X0195672Y0163674D02*
X0196379Y0162967D01*
X0194400Y0160988D01*
X0193693Y0161695D01*
X0195672Y0163674D01*
G37*
G36*
X0194611Y0164735D02*
X0195318Y0164028D01*
X0193339Y0162049D01*
X0192632Y0162756D01*
X0194611Y0164735D01*
G37*
G36*
X0193480Y0165866D02*
X0194187Y0165159D01*
X0192208Y0163180D01*
X0191501Y0163887D01*
X0193480Y0165866D01*
G37*
G36*
X0192349Y0166998D02*
X0193056Y0166291D01*
X0191077Y0164312D01*
X0190370Y0165019D01*
X0192349Y0166998D01*
G37*
G36*
X0191288Y0168058D02*
X0191995Y0167351D01*
X0190016Y0165372D01*
X0189309Y0166079D01*
X0191288Y0168058D01*
G37*
G36*
X0185632Y0167351D02*
X0186339Y0168058D01*
X0188318Y0166079D01*
X0187611Y0165372D01*
X0185632Y0167351D01*
G37*
G36*
X0184571Y0166291D02*
X0185278Y0166998D01*
X0187257Y0165019D01*
X0186550Y0164312D01*
X0184571Y0166291D01*
G37*
G36*
X0183440Y0165159D02*
X0184147Y0165866D01*
X0186126Y0163887D01*
X0185419Y0163180D01*
X0183440Y0165159D01*
G37*
G36*
X0182309Y0164028D02*
X0183016Y0164735D01*
X0184995Y0162756D01*
X0184288Y0162049D01*
X0182309Y0164028D01*
G37*
G36*
X0181248Y0162967D02*
X0181955Y0163674D01*
X0183934Y0161695D01*
X0183227Y0160988D01*
X0181248Y0162967D01*
G37*
G36*
X0183227Y0159997D02*
X0183934Y0159290D01*
X0181955Y0157311D01*
X0181248Y0158018D01*
X0183227Y0159997D01*
G37*
G36*
X0184288Y0158937D02*
X0184995Y0158230D01*
X0183016Y0156251D01*
X0182309Y0156958D01*
X0184288Y0158937D01*
G37*
G36*
X0185419Y0157805D02*
X0186126Y0157098D01*
X0184147Y0155119D01*
X0183440Y0155826D01*
X0185419Y0157805D01*
G37*
G36*
X0186550Y0156674D02*
X0187257Y0155967D01*
X0185278Y0153988D01*
X0184571Y0154695D01*
X0186550Y0156674D01*
G37*
G36*
X0187611Y0155613D02*
X0188318Y0154906D01*
X0186339Y0152927D01*
X0185632Y0153634D01*
X0187611Y0155613D01*
G37*
G36*
X0189309Y0154906D02*
X0190016Y0155613D01*
X0191995Y0153634D01*
X0191288Y0152927D01*
X0189309Y0154906D01*
G37*
G36*
X0190370Y0155967D02*
X0191077Y0156674D01*
X0193056Y0154695D01*
X0192349Y0153988D01*
X0190370Y0155967D01*
G37*
G36*
X0191501Y0157098D02*
X0192208Y0157805D01*
X0194187Y0155826D01*
X0193480Y0155119D01*
X0191501Y0157098D01*
G37*
G36*
X0192632Y0158230D02*
X0193339Y0158937D01*
X0195318Y0156958D01*
X0194611Y0156251D01*
X0192632Y0158230D01*
G37*
G36*
X0193693Y0159290D02*
X0194400Y0159997D01*
X0196379Y0158018D01*
X0195672Y0157311D01*
X0193693Y0159290D01*
G37*
D220*
X0251703Y0288843D03*
X0262900Y0288843D03*
D221*
X0418555Y0278519D03*
X0421655Y0278519D03*
X0424855Y0278519D03*
X0427955Y0278519D03*
X0431155Y0278519D03*
X0434255Y0278519D03*
X0437455Y0278519D03*
X0440555Y0278519D03*
X0440555Y0310919D03*
X0437455Y0310919D03*
X0434255Y0310919D03*
X0431155Y0310919D03*
X0427955Y0310919D03*
X0424855Y0310919D03*
X0421655Y0310919D03*
X0418555Y0310919D03*
D222*
X0413355Y0305719D03*
X0413355Y0302619D03*
X0413355Y0299419D03*
X0413355Y0296319D03*
X0413355Y0293119D03*
X0413355Y0290019D03*
X0413355Y0286819D03*
X0413355Y0283719D03*
X0445755Y0283719D03*
X0445755Y0286819D03*
X0445755Y0290019D03*
X0445755Y0293119D03*
X0445755Y0296319D03*
X0445755Y0299419D03*
X0445755Y0302619D03*
X0445755Y0305719D03*
D223*
X0452886Y0376928D03*
X0452886Y0395826D03*
X0411890Y0395826D03*
X0411890Y0376928D03*
X0374227Y0376928D03*
X0374227Y0395826D03*
X0461552Y0159183D03*
X0461552Y0140285D03*
X0488216Y0140285D03*
X0488216Y0159183D03*
X0488216Y0091856D03*
X0488216Y0072959D03*
X0461885Y0072959D03*
X0461885Y0091856D03*
D224*
X0461885Y0082407D03*
X0442220Y0103072D03*
X0442220Y0129069D03*
X0461552Y0149734D03*
X0488216Y0149734D03*
X0508547Y0129069D03*
X0508547Y0103072D03*
X0488216Y0082407D03*
X0452886Y0386377D03*
X0411890Y0386377D03*
X0374227Y0386377D03*
D225*
X0432772Y0129069D03*
X0451669Y0129069D03*
X0451669Y0103072D03*
X0432772Y0103072D03*
X0499098Y0103072D03*
X0517996Y0103072D03*
X0517996Y0129069D03*
X0499098Y0129069D03*
D226*
X0373261Y0133404D02*
X0367861Y0133404D01*
X0367861Y0123404D02*
X0373261Y0123404D01*
X0373261Y0113404D02*
X0367861Y0113404D01*
X0367861Y0103404D02*
X0373261Y0103404D01*
D227*
X0466051Y0284052D03*
X0476051Y0284052D03*
X0475051Y0294052D03*
X0465051Y0294052D03*
X0466051Y0304052D03*
X0476051Y0304052D03*
X0473886Y0341715D03*
X0463886Y0341715D03*
X0463886Y0351715D03*
X0473886Y0351715D03*
X0453886Y0351715D03*
X0453886Y0341715D03*
X0074259Y0401709D03*
X0064259Y0401709D03*
X0064259Y0411709D03*
X0074259Y0411709D03*
X0054259Y0411709D03*
X0054259Y0401709D03*
D228*
X0294074Y0196239D03*
X0294074Y0186397D03*
X0294074Y0176554D03*
X0315728Y0176554D03*
X0315728Y0186397D03*
X0315728Y0196239D03*
X0332070Y0196239D03*
X0332070Y0186397D03*
X0332070Y0176554D03*
X0353724Y0176554D03*
X0353724Y0186397D03*
X0353724Y0196239D03*
M02*
