%
M48
M72
T01C0.01200
T02C0.01575
T03C0.01969
T04C0.02362
T05C0.03600
T06C0.04000
T07C0.04331
T08C0.07087
%
T01
X168512Y307160
X327013Y170411
X306012Y143410
X259762Y120910
X326179Y93160
X400429Y85244
X396930Y153076
X440844Y200159
X444762Y204660
X453513Y204660
X458264Y207909
X456763Y216409
X463846Y215827
X454513Y196994
X469762Y243410
X437262Y243410
X409512Y218908
X403929Y230658
X372262Y209660
X348512Y208410
X427262Y285910
X421096Y290662
X439762Y290910
X439762Y304660
X450179Y309327
X449762Y279660
X416012Y315910
X412262Y324660
X412263Y336993
X394762Y329660
X391012Y340910
X441012Y357075
T02
X49065Y93785
X83874Y95214
X124391Y127600
X137322Y139800
X123007Y148742
X137817Y169823
X151180Y155679
X178004Y160645
X188764Y160456
X207798Y137159
X195507Y125319
X168811Y131607
X161564Y123941
X163095Y106118
X141747Y97245
X127007Y104578
X44037Y144930
X83360Y189991
X73560Y205631
X77381Y218765
X65570Y226639
X57695Y218765
X51148Y234513
X51003Y238450
X51790Y252229
X48247Y255772
X49821Y266009
X45884Y266009
X43916Y269946
X43916Y273883
X43916Y277820
X51396Y293568
X51396Y297505
X56514Y295143
X62420Y292780
X65570Y295536
X73050Y295536
X82892Y282544
X76593Y267977
X69900Y267977
X63601Y267977
X61632Y252229
X67144Y244355
X75412Y236481
X75412Y232544
X91160Y228607
X94310Y221127
X104940Y228607
X110845Y228607
X118719Y234513
X123062Y238668
X127437Y242918
X133286Y249473
X128955Y258135
X128483Y263646
X131318Y263646
X125412Y272308
X128955Y277032
X131318Y279198
X133680Y277032
X132892Y291599
X134467Y294355
X130924Y294355
X128955Y291599
X126593Y294355
X137223Y297111
X137223Y301048
X132499Y303804
X138798Y306560
X134467Y317190
X130530Y319158
X130530Y315221
X130530Y323095
X130530Y327032
X130530Y330969
X130530Y334906
X134861Y334513
X134467Y330576
X136829Y327032
X134467Y323883
X114782Y308135
X112420Y309709
X110058Y308135
X112420Y305379
X110058Y302623
X107695Y299867
X105333Y297111
X112420Y293568
X99034Y305379
X99034Y309316
X99034Y313253
X91554Y314434
X82499Y314434
X73444Y314434
X65570Y309316
X53758Y309316
X59270Y325064
X73444Y323883
X73444Y332544
X65570Y336875
X57695Y345143
X53486Y348746
X53486Y353744
X62420Y348686
X67144Y352229
X72262Y354198
X77617Y343725
X87617Y340812
X94310Y340812
X97853Y338056
X97066Y332938
X91554Y332544
X82499Y332544
X82499Y323883
X91554Y323883
X97066Y321127
X108877Y332938
X105727Y350654
X108794Y352623
X112382Y354556
X101003Y369552
X109062Y376272
X119113Y373883
X117144Y382938
X129454Y383998
X135451Y383331
X136816Y376636
X144900Y371127
X144310Y360497
X156121Y360497
X167932Y360497
X177378Y362465
X185340Y362011
X191554Y372308
X181711Y378213
X173837Y372308
X156121Y375064
X163599Y389850
X202908Y356954
X210722Y355620
X212087Y361011
X206908Y364465
X197457Y351108
X195882Y347898
X202969Y341206
X206118Y338450
X203363Y335300
X208874Y335300
X209268Y341206
X216446Y351048
X225412Y351442
X225018Y355772
X225412Y346324
X225745Y342266
X226472Y336602
X226199Y329394
X220294Y323883
X230924Y315615
X235255Y315221
X239782Y309316
X239782Y305379
X239782Y299473
X239782Y295536
X231743Y287787
X234861Y283725
X239067Y283800
X243522Y281757
X250609Y278607
X251790Y284119
X240766Y273883
X246475Y269119
X251947Y257741
X251947Y253804
X242735Y249867
X245491Y245536
X239979Y239237
X234467Y238843
X237223Y249867
X219113Y262072
X209270Y262072
X189192Y271127
X178562Y270339
X170294Y271127
X166232Y271283
X162420Y271127
X158758Y271442
X157302Y267977
X154940Y272308
X162814Y266009
X158877Y261678
X164546Y255339
X168325Y255379
X170123Y258961
X178562Y255379
X189192Y249080
X199678Y245367
X204152Y243568
X209270Y246324
X214388Y241599
X219113Y248292
X219113Y252229
X209270Y252229
X219507Y275851
X227649Y281438
X230011Y279076
X226199Y284906
X219900Y288450
X213207Y283725
X209664Y277426
X199428Y279788
X205333Y291599
X209270Y299473
X218325Y309316
X234861Y325064
X238798Y325064
X253365Y329001
X262972Y332703
X264388Y335300
X274625Y338135
X278955Y334198
X282105Y328213
X286042Y328213
X286042Y324276
X286042Y320339
X286042Y316402
X286042Y312465
X282105Y312465
X278168Y308528
X278168Y316402
X282105Y320339
X278168Y324276
X263995Y329788
X253365Y338843
X235845Y353607
X235845Y357544
X235255Y362465
X236436Y367190
X244703Y373095
X232105Y378213
X226987Y374276
X225018Y371127
X247853Y356560
X258483Y366402
X266751Y364040
X269900Y366402
X285219Y367089
X285646Y348051
X295884Y338843
X302729Y344669
X301790Y328213
X301790Y324276
X301790Y320339
X301790Y316402
X305727Y316402
X309664Y320339
X313601Y316402
X317538Y320339
X313601Y324276
X309664Y328213
X305727Y324276
X317538Y328213
X321475Y324276
X337223Y321127
X341160Y332938
X335161Y341020
X323808Y340020
X345638Y351945
X350215Y340414
X362324Y343821
X364303Y353487
X360845Y332938
X350215Y321914
X360178Y305795
X343522Y292780
X342735Y287269
X342735Y277426
X342735Y268765
X352971Y266009
X352971Y276245
X327774Y277820
X324625Y279788
X323050Y283331
X325412Y286087
X327774Y289237
X330924Y292387
X326199Y305772
X324231Y308922
X314782Y301442
X314782Y298292
X314782Y295143
X306984Y298292
X306984Y301283
X299428Y297898
X296278Y297898
X293129Y297898
X289388Y300851
X285255Y300654
X283286Y297505
X283286Y294355
X283680Y288646
X279349Y284906
X275412Y286087
X269113Y286481
X254940Y295930
X256514Y299473
X256514Y305379
X256514Y309316
X252184Y308135
X265727Y275064
X273837Y267583
X273601Y262859
X270058Y262859
X266908Y262859
X263758Y262859
X260609Y262859
X273719Y258371
X273601Y254198
X273601Y250654
X270707Y247918
X277381Y247898
X276396Y243646
X275018Y239631
X280491Y239473
X285766Y239591
X292341Y239631
X292066Y246796
X284861Y246717
X282892Y264828
X282105Y270733
X286436Y272308
X292060Y272595
X296672Y269946
X299034Y273095
X301790Y273095
X303758Y269946
X305333Y264751
X311944Y264751
X312026Y260891
X304152Y252623
X304152Y249473
X303758Y243961
X309664Y238450
X337223Y242387
X344625Y236678
X352971Y242387
X352971Y230576
X345553Y229951
X341160Y222702
X356908Y214828
X340285Y206370
X379051Y224160
X388404Y230576
X375052Y238054
X388404Y246324
X388404Y258135
X388404Y269946
X388404Y281757
X388404Y293568
X388404Y305379
X388404Y317190
X388404Y332938
X380259Y332938
X417037Y322626
X426713Y318356
X427715Y301055
X420445Y295832
X432807Y284889
X411133Y279818
X404487Y302816
X445754Y336826
X457202Y317054
X477697Y324136
X476578Y249653
X459555Y264090
X476391Y273485
X431216Y231832
X425713Y193913
X438520Y186064
X440456Y165638
X401986Y168111
X402716Y150042
X398884Y141251
X398961Y92203
X408314Y65581
X425434Y80725
X440682Y65935
X525466Y159631
X388798Y212859
X380289Y189185
X328646Y131758
X268226Y144473
X252351Y133839
X260381Y105618
X238194Y98578
X237585Y171279
X221081Y170733
X205244Y187216
X222623Y206367
X225412Y217977
X231318Y217977
X237617Y216009
X241554Y217977
X265570Y239631
X189192Y237269
X184467Y241206
X180530Y239237
X175215Y247505
X168365Y247465
X164546Y247505
X141947Y228213
X150609Y217977
X163995Y217977
X176199Y217977
X177251Y207699
X173620Y202672
X185648Y207671
X194603Y216634
X187617Y217977
X202099Y218977
X209664Y221520
X158498Y205557
X128562Y218765
X124625Y218765
X128562Y224670
X129062Y232168
X108877Y240418
X96672Y241206
X108877Y253017
X104940Y258528
X105727Y267190
X102577Y267190
X159664Y294355
X161081Y281560
X175806Y292387
X181962Y292412
X175150Y299849
X180924Y308528
X187617Y308528
X189782Y302820
X189585Y291599
X181318Y285694
X173444Y310653
X173444Y315221
X180924Y315221
X187617Y315221
X192341Y323489
X196095Y329061
X187221Y331363
X184702Y325518
X179029Y325715
X172473Y325699
X170806Y331605
X160451Y315615
X165338Y315221
X165338Y310653
X90075Y375728
X76929Y369883
X71902Y375818
X52363Y370485
X85398Y400059
X42599Y407396
X53758Y336875
X30136Y250261
X30136Y238450
X30136Y226639
X38010Y218765
X263092Y175083
X279385Y205444
X277774Y275457
X298247Y284513
X305333Y284119
X305333Y280969
X309270Y284119
X313601Y271914
X341654Y364067
X361382Y427540
X266755Y387485
X502310Y428459
T03
X193522Y281363
X167144Y325851
X180247Y384710
X253365Y366009
X253365Y355379
X373227Y331382
X415556Y351380
X421556Y318384
X433888Y299052
X426222Y267722
X429555Y262056
X426222Y251390
X403558Y257390
X360229Y206395
X363228Y166399
X304901Y164732
X290569Y142068
X137617Y267190
X443887Y192730
X475550Y209728
X514547Y184730
T04
X433888Y336049
T05
X370561Y133404
X370561Y123404
X370561Y113404
X370561Y103404
T06
X453886Y341715
X453886Y351715
X463886Y351715
X473886Y351715
X473886Y341715
X463886Y341715
X476051Y284052
X466051Y284052
X465051Y294052
X475051Y294052
X476051Y304052
X466051Y304052
X74259Y401709
X64259Y401709
X64259Y411709
X74259Y411709
X54259Y411709
X54259Y401709
T07
X184270Y257072
X184270Y267072
X194270Y267072
X194270Y257072
X204270Y257072
X204270Y267072
X214270Y267072
X214270Y257072
X224270Y257072
X224270Y267072
X234270Y267072
X234270Y257072
T08
X189270Y262072
X229270Y262072
M30
